0
SECTION
2
HEADER
9
$INSUNITS
70
4
9
$ACADVER
1
AC1014
9
$HANDSEED
5
FFFF
0
ENDSEC
0
SECTION
2
TABLES
0
TABLE
2
VPORT
5
8
100
AcDbSymbolTable
0
ENDTAB
0
TABLE
2
LTYPE
5
5
100
AcDbSymbolTable
0
LTYPE
5
14
100
AcDbSymbolTableRecord
100
AcDbLinetypeTableRecord
2
BYBLOCK
70
0
0
LTYPE
5
15
100
AcDbSymbolTableRecord
100
AcDbLinetypeTableRecord
2
BYLAYER
70
0
0
LTYPE
5
16
100
AcDbSymbolTableRecord
100
AcDbLinetypeTableRecord
2
DASHED
70
0
3
Dashed __ __ __ __ __ __ __ __ __ __ __ __ __ _
72
65
73
2
40
0.75
49
0.5
74
0
49
-0.25
74
0
0
ENDTAB
0
TABLE
2
LAYER
5
2
100
AcDbSymbolTable
70
3
0
LAYER
5
50
100
AcDbSymbolTableRecord
100
AcDbLayerTableRecord
2
1
70
0
62
7
6
DASHED
0
LAYER
5
51
100
AcDbSymbolTableRecord
100
AcDbLayerTableRecord
2
0
70
0
62
7
6
CONTINUOUS
0
ENDTAB
0
TABLE
2
STYLE
5
3
100
AcDbSymbolTable
70
1
0
STYLE
5
11
100
AcDbSymbolTableRecord
100
AcDbTextStyleTableRecord
2
STANDARD
70
0
0
ENDTAB
0
TABLE
2
VIEW
5
6
100
AcDbSymbolTable
70
0
0
ENDTAB
0
TABLE
2
UCS
5
7
100
AcDbSymbolTable
70
0
0
ENDTAB
0
TABLE
2
APPID
5
9
100
AcDbSymbolTable
70
2
0
APPID
5
12
100
AcDbSymbolTableRecord
100
AcDbRegAppTableRecord
2
ACAD
70
0
0
ENDTAB
0
TABLE
2
DIMSTYLE
5
A
100
AcDbSymbolTable
70
1
0
ENDTAB
0
TABLE
2
BLOCK_RECORD
5
1
100
AcDbSymbolTable
70
1
0
BLOCK_RECORD
5
1F
100
AcDbSymbolTableRecord
100
AcDbBlockTableRecord
2
*MODEL_SPACE
0
BLOCK_RECORD
5
1B
100
AcDbSymbolTableRecord
100
AcDbBlockTableRecord
2
*PAPER_SPACE
0
ENDTAB
0
ENDSEC
0
SECTION
2
BLOCKS
0
BLOCK
5
20
100
AcDbEntity
100
AcDbBlockBegin
2
*MODEL_SPACE
0
ENDBLK
5
21
100
AcDbEntity
100
AcDbBlockEnd
0
BLOCK
5
1C
100
AcDbEntity
100
AcDbBlockBegin
2
*PAPER_SPACE
0
ENDBLK
5
1D
100
AcDbEntity
100
AcDbBlockEnd
0
ENDSEC
0
SECTION
2
ENTITIES
0
LWPOLYLINE
5
100
100
AcDbEntity
8
0
100
AcDbPolyline
90
16
70
1
43
0.0
10
-67.254397092532059
20
-50.839874991235938
10
-62.092499984423725
20
-50.839874991235902
42
-0.99999999999999989
10
-62.092499984423704
20
-54.522874986412589
10
-67.254397092532059
20
-54.52287498641261
42
-0.18106068280993737
10
-69.458499842933549
20
-56.7269778152139
10
-69.458499842933549
20
-61.88887498882427
42
-0.99999999999999989
10
-73.141500125913865
20
-61.888874988824291
10
-73.141500125913865
20
-56.7269778152139
42
-0.18106068280993712
10
-75.345602876315368
20
-54.522874986412624
10
-80.507499984423688
20
-54.52287498641266
42
-0.99999999999999989
10
-80.507499984423717
20
-50.839874991235973
10
-75.345602876315368
20
-50.839874991235959
42
-0.18106068280993876
10
-73.141500125913865
20
-48.635772162434662
10
-73.141500125913865
20
-43.473874988824271
42
-0.99999999999999989
10
-69.458499842933549
20
-43.473874988824292
10
-69.458499842933549
20
-48.635772162434669
42
-0.18106068280993623
0
LWPOLYLINE
5
101
100
AcDbEntity
8
0
100
AcDbPolyline
90
16
70
1
43
0.0
10
-356.45439661053945
20
-50.839876034897884
10
-351.29249997749025
20
-50.839876034897799
42
-0.99999999999999989
10
-351.29249997749042
20
-54.522873942751993
10
-356.45439661053933
20
-54.522873942751993
42
-0.18106074940822528
10
-358.65849983585053
20
-56.726977815146412
10
-358.65849983585053
20
-61.888874988824995
42
-0.99999999999999989
10
-362.34150011913027
20
-61.888874988824938
10
-362.34150011913027
20
-56.72697781514637
42
-0.18106074940822245
10
-364.54560334444136
20
-54.522873942752028
10
-369.70749997749039
20
-54.522873942752035
42
-0.99999999999999989
10
-369.70749997749039
20
-50.839876034897912
10
-364.54560334444136
20
-50.839876034897898
42
-0.18106074940822831
10
-362.34150011913022
20
-48.635772162503486
10
-362.34150011913039
20
-43.473874988825038
42
-0.99999999999999989
10
-358.65849983585042
20
-43.473874988824967
10
-358.65849983585042
20
-48.635772162503557
42
-0.18106074940821854
0
LWPOLYLINE
5
102
100
AcDbEntity
8
0
100
AcDbPolyline
90
16
70
1
43
0.0
10
-75.345602876299012
20
-161.8856249938992
10
-80.507499984423703
20
-161.88562499389923
42
-0.99999999999999989
10
-80.507499984423703
20
-158.2026249986508
10
-75.345602876299054
20
-158.20262499865075
42
-0.18106069091104032
10
-73.141499998943942
20
-155.99852211209046
10
-73.141499998939949
20
-150.83662499627349
42
-0.99999999999999989
10
-69.458499969893111
20
-150.83662499627636
10
-69.458499969897133
20
-155.99852211209327
42
-0.18106069091062893
10
-67.254397092548416
20
-158.20262499865069
10
-62.092499984423746
20
-158.20262499865063
42
-0.99999999999999989
10
-62.092499984423675
20
-161.88562499389906
10
-67.254397092548359
20
-161.88562499389906
42
-0.18106069091104091
10
-69.458499969903514
20
-164.08972788045946
10
-69.458499969907578
20
-169.25162499627632
42
-0.99999999999999989
10
-73.141499998954359
20
-169.25162499627348
10
-73.14149999895028
20
-164.08972788045648
42
-0.18106069091062915
0
LWPOLYLINE
5
103
100
AcDbEntity
8
0
100
AcDbPolyline
90
16
70
1
43
0.0
10
-356.45439708561116
20
-158.20262499865964
42
0.18106068187181396
10
-358.65849982132806
20
-155.99852217656399
10
-358.65849982132772
20
-150.83662499627471
42
0.99999999999999989
10
-362.3415001336528
20
-150.83662499627533
10
-362.34150013365115
20
-155.99852217656323
42
0.18106068187191834
10
-364.54560286936982
20
-158.20262499865964
10
-369.70749997749056
20
-158.20262499865964
42
0.99999999999999989
10
-369.70749997749067
20
-161.88562499389039
10
-364.54560286936982
20
-161.88562499389039
42
0.18106068187187274
10
-362.34150013365183
20
-164.08972781598649
10
-362.34150013365218
20
-169.2516249962749
42
0.99999999999999989
10
-358.65849982132909
20
-169.25162499627518
10
-358.65849982132875
20
-164.08972781598632
42
0.18106068187185001
10
-356.45439708561116
20
-161.88562499389039
10
-351.29249997749048
20
-161.88562499389039
42
0.99999999999999989
10
-351.29249997749042
20
-158.20262499865967
0
LWPOLYLINE
5
104
100
AcDbEntity
8
0
100
AcDbPolyline
90
4
70
1
43
0.0
10
-119.99999999856601
20
-190.72549999999995
10
-119.99999999856601
20
-175.72549999999995
10
-83.999999998566025
20
-175.72549999999995
10
-83.999999998566025
20
-190.72549999999995
0
LWPOLYLINE
5
105
100
AcDbEntity
8
0
100
AcDbPolyline
90
4
70
1
43
0.0
10
-119.99999999856601
20
-85.545499999999947
10
-119.99999999856601
20
-70.545499999999947
10
-83.999999998566025
20
-70.545499999999947
10
-83.999999998566025
20
-85.545499999999947
0
CIRCLE
5
106
100
AcDbEntity
8
0
100
AcDbCircle
10
-238.90000000000001
20
-95.362499999999969
30
0
40
1.4999999999999858
210
0
220
-0
230
1
0
CIRCLE
5
107
100
AcDbEntity
8
0
100
AcDbCircle
10
-409.80000000000013
20
-118.363
30
0
40
1.4999999999999858
210
0
220
-0
230
1
0
CIRCLE
5
108
100
AcDbEntity
8
0
100
AcDbCircle
10
-409.80000000000013
20
-201.72549999999995
30
0
40
1.4999999999999858
210
0
220
-0
230
1
0
CIRCLE
5
109
100
AcDbEntity
8
0
100
AcDbCircle
10
-238.90000000000001
20
-11.999999999999993
30
0
40
1.4999999999999858
210
0
220
-0
230
1
0
CIRCLE
5
110
100
AcDbEntity
8
0
100
AcDbCircle
10
-193.90000000000009
20
-11.999999999999993
30
0
40
1.4999999999999858
210
0
220
-0
230
1
0
CIRCLE
5
111
100
AcDbEntity
8
0
100
AcDbCircle
10
-238.90000000000001
20
-201.72549999999995
30
0
40
1.4999999999999858
210
0
220
-0
230
1
0
CIRCLE
5
112
100
AcDbEntity
8
0
100
AcDbCircle
10
-193.90000000000009
20
-118.363
30
0
40
1.4999999999999858
210
0
220
-0
230
1
0
CIRCLE
5
113
100
AcDbEntity
8
0
100
AcDbCircle
10
-409.80000000000013
20
-11.999999999999993
30
0
40
1.4999999999999858
210
0
220
-0
230
1
0
CIRCLE
5
114
100
AcDbEntity
8
0
100
AcDbCircle
10
-409.80000000000013
20
-95.362499999999969
30
0
40
1.4999999999999858
210
0
220
-0
230
1
0
CIRCLE
5
115
100
AcDbEntity
8
0
100
AcDbCircle
10
-238.90000000000001
20
-118.363
30
0
40
1.4999999999999858
210
0
220
-0
230
1
0
CIRCLE
5
116
100
AcDbEntity
8
0
100
AcDbCircle
10
-23.000000000000007
20
-118.363
30
0
40
1.4999999999999991
210
0
220
-0
230
1
0
CIRCLE
5
117
100
AcDbEntity
8
0
100
AcDbCircle
10
-23.000000000000007
20
-201.72549999999995
30
0
40
1.4999999999999991
210
0
220
-0
230
1
0
CIRCLE
5
118
100
AcDbEntity
8
0
100
AcDbCircle
10
-23.000000000000007
20
-95.362499999999969
30
0
40
1.4999999999999991
210
0
220
-0
230
1
0
CIRCLE
5
119
100
AcDbEntity
8
0
100
AcDbCircle
10
-193.90000000000009
20
-201.72549999999995
30
0
40
1.4999999999999858
210
0
220
-0
230
1
0
CIRCLE
5
120
100
AcDbEntity
8
0
100
AcDbCircle
10
-193.90000000000009
20
-95.362499999999969
30
0
40
1.4999999999999858
210
0
220
-0
230
1
0
CIRCLE
5
121
100
AcDbEntity
8
0
100
AcDbCircle
10
-23.000000000000007
20
-11.999999999999993
30
0
40
1.4999999999999991
210
0
220
-0
230
1
0
LINE
5
122
100
AcDbEntity
8
0
100
AcDbLine
10
-432.80000001490123
20
-18.999999985098839
30
0
11
-432.80000000093429
21
-96.362749992548856
31
0
0
LINE
5
123
100
AcDbEntity
8
0
100
AcDbLine
10
-432.80000000093429
20
-96.362749992548856
30
0
11
-438.20000000093432
21
-96.362749992548856
31
0
0
LINE
5
124
100
AcDbEntity
8
0
100
AcDbLine
10
-438.20000000093432
20
-96.362749992548856
30
0
11
-438.20000000093432
21
-116.36274999254886
31
0
0
LINE
5
125
100
AcDbEntity
8
0
100
AcDbLine
10
-438.20000000093432
20
-116.36274999254886
30
0
11
-432.80000000093429
21
-116.36274999254886
31
0
0
LINE
5
126
100
AcDbEntity
8
0
100
AcDbLine
10
-432.80000000093429
20
-116.36274999254886
30
0
11
-432.80000000000007
21
-122.87528460048385
31
0
0
LINE
5
127
100
AcDbEntity
8
0
100
AcDbLine
10
-432.80000000000007
20
-122.87528460048385
30
0
11
-432.80000000000007
21
-193.72549999999995
31
0
0
LINE
5
128
100
AcDbEntity
8
0
100
AcDbLine
10
-432.80000000000007
20
-193.72549999999995
30
0
11
-438.20000000000005
21
-193.72549999999995
31
0
0
LINE
5
129
100
AcDbEntity
8
0
100
AcDbLine
10
-438.20000000000005
20
-193.72549999999995
30
0
11
-438.20000000000005
21
-213.72549999999995
31
0
0
LINE
5
130
100
AcDbEntity
8
0
100
AcDbLine
10
-438.20000000000005
20
-213.72549999999995
30
0
11
-432.80000000000007
21
-213.72549999999995
31
0
0
LINE
5
131
100
AcDbEntity
8
0
100
AcDbLine
10
-432.80000000000007
20
-213.72549999999995
30
0
11
-432.80000000000007
21
-219.12549999999996
31
0
0
LINE
5
132
100
AcDbEntity
8
0
100
AcDbLine
10
-432.80000000000007
20
-219.12549999999996
30
0
11
-412.80000000000007
21
-219.12549999999996
31
0
0
LINE
5
133
100
AcDbEntity
8
0
100
AcDbLine
10
-412.80000000000007
20
-219.12549999999996
30
0
11
-412.80000000000007
21
-213.72549999999995
31
0
0
LINE
5
134
100
AcDbEntity
8
0
100
AcDbLine
10
-412.80000000000007
20
-213.72549999999995
30
0
11
-225.89999999189718
21
-213.72549999999995
31
0
0
LINE
5
135
100
AcDbEntity
8
0
100
AcDbLine
10
-225.89999999189718
20
-213.72549999999995
30
0
11
-225.89999999189718
21
-219.12549999999996
31
0
0
LINE
5
136
100
AcDbEntity
8
0
100
AcDbLine
10
-225.89999999189718
20
-219.12549999999996
30
0
11
-205.89999999189718
21
-219.12549999999996
31
0
0
LINE
5
137
100
AcDbEntity
8
0
100
AcDbLine
10
-205.89999999189718
20
-219.12549999999996
30
0
11
-205.89999999189718
21
-213.72549999999995
31
0
0
LINE
5
138
100
AcDbEntity
8
0
100
AcDbLine
10
-205.89999999189718
20
-213.72549999999995
30
0
11
-18.999999999999986
21
-213.72549999999995
31
0
0
LINE
5
139
100
AcDbEntity
8
0
100
AcDbLine
10
-18.999999999999986
20
-213.72549999999995
30
0
11
-18.999999999999986
21
-219.12549999999996
31
0
0
LINE
5
140
100
AcDbEntity
8
0
100
AcDbLine
10
-18.999999999999986
20
-219.12549999999996
30
0
11
1.0000000000000142
21
-219.12549999999996
31
0
0
LINE
5
141
100
AcDbEntity
8
0
100
AcDbLine
10
1.0000000000000142
20
-219.12549999999996
30
0
11
1.0000000000000142
21
-213.72549999999995
31
0
0
LINE
5
142
100
AcDbEntity
8
0
100
AcDbLine
10
1.0000000000000142
20
-213.72549999999995
30
0
11
6.4000000000000146
21
-213.72549999999995
31
0
0
LINE
5
143
100
AcDbEntity
8
0
100
AcDbLine
10
6.4000000000000146
20
-213.72549999999995
30
0
11
6.4000000000000146
21
-193.72549999999995
31
0
0
LINE
5
144
100
AcDbEntity
8
0
100
AcDbLine
10
6.4000000000000146
20
-193.72549999999995
30
0
11
1.0000000000000142
21
-193.72549999999995
31
0
0
LINE
5
145
100
AcDbEntity
8
0
100
AcDbLine
10
1.0000000000000142
20
-193.72549999999995
30
0
11
1.0000000131100919
21
-116.36274999254886
31
0
0
LINE
5
146
100
AcDbEntity
8
0
100
AcDbLine
10
1.0000000131100919
20
-116.36274999254886
30
0
11
6.400000013110092
21
-116.36274999254886
31
0
0
LINE
5
147
100
AcDbEntity
8
0
100
AcDbLine
10
6.400000013110092
20
-116.36274999254886
30
0
11
6.400000013110092
21
-96.362749992548856
31
0
0
LINE
5
148
100
AcDbEntity
8
0
100
AcDbLine
10
6.400000013110092
20
-96.362749992548856
30
0
11
1.0000000131100917
21
-96.362749992548856
31
0
0
LINE
5
149
100
AcDbEntity
8
0
100
AcDbLine
10
1.0000000131100919
20
-96.362749992548856
30
0
11
1.0000000149011612
21
-18.999999985098839
31
0
0
LINE
5
150
100
AcDbEntity
8
0
100
AcDbLine
10
1.0000000149011612
20
-18.999999985098839
30
0
11
6.4000000149011615
21
-18.999999985098839
31
0
0
LINE
5
151
100
AcDbEntity
8
0
100
AcDbLine
10
6.4000000149011615
20
-18.999999985098839
30
0
11
6.4000000149011615
21
1.0000000149011612
31
0
0
LINE
5
152
100
AcDbEntity
8
0
100
AcDbLine
10
6.4000000149011615
20
1.0000000149011612
30
0
11
1.0000000149011612
21
1.0000000149011612
31
0
0
LINE
5
153
100
AcDbEntity
8
0
100
AcDbLine
10
1.0000000149011612
20
1.0000000149011612
30
0
11
1.0000000149011612
21
6.4000000149011615
31
0
0
LINE
5
154
100
AcDbEntity
8
0
100
AcDbLine
10
1.0000000149011612
20
6.4000000149011615
30
0
11
-18.999999985098839
21
6.4000000149011615
31
0
0
LINE
5
155
100
AcDbEntity
8
0
100
AcDbLine
10
-18.999999985098839
20
6.4000000149011615
30
0
11
-18.999999985098839
21
1.0000000149011612
31
0
0
LINE
5
156
100
AcDbEntity
8
0
100
AcDbLine
10
-18.999999985098839
20
1.0000000149011612
30
0
11
-205.89999997664887
21
1.0000000149011612
31
0
0
LINE
5
157
100
AcDbEntity
8
0
100
AcDbLine
10
-205.89999997664887
20
1.0000000149011612
30
0
11
-205.89999997664887
21
6.4000000149011607
31
0
0
LINE
5
158
100
AcDbEntity
8
0
100
AcDbLine
10
-205.89999997664887
20
6.4000000149011607
30
0
11
-225.89999997664887
21
6.4000000149011607
31
0
0
LINE
5
159
100
AcDbEntity
8
0
100
AcDbLine
10
-225.89999997664887
20
6.4000000149011607
30
0
11
-225.89999997664887
21
1.0000000149011612
31
0
0
LINE
5
160
100
AcDbEntity
8
0
100
AcDbLine
10
-225.89999997664887
20
1.0000000149011612
30
0
11
-412.80000001490123
21
1.0000000149011612
31
0
0
LINE
5
161
100
AcDbEntity
8
0
100
AcDbLine
10
-412.80000001490123
20
1.0000000149011612
30
0
11
-412.80000001490123
21
6.4000000149011615
31
0
0
LINE
5
162
100
AcDbEntity
8
0
100
AcDbLine
10
-412.80000001490123
20
6.4000000149011615
30
0
11
-432.80000001490123
21
6.4000000149011615
31
0
0
LINE
5
163
100
AcDbEntity
8
0
100
AcDbLine
10
-432.80000001490123
20
6.4000000149011615
30
0
11
-432.80000001490123
21
1.0000000149011612
31
0
0
LINE
5
164
100
AcDbEntity
8
0
100
AcDbLine
10
-432.80000001490123
20
1.0000000149011612
30
0
11
-438.20000001490121
21
1.0000000149011612
31
0
0
LINE
5
165
100
AcDbEntity
8
0
100
AcDbLine
10
-438.20000001490121
20
1.0000000149011612
30
0
11
-438.20000001490121
21
-18.999999985098839
31
0
0
LINE
5
166
100
AcDbEntity
8
0
100
AcDbLine
10
-438.20000001490121
20
-18.999999985098839
30
0
11
-432.80000001490123
21
-18.999999985098839
31
0
0
ENDSEC
0
SECTION
2
OBJECTS
0
DICTIONARY
5
C
100
AcDbDictionary
3
ACAD_GROUP
350
D
3
ACAD_MLINESTYLE
350
17
0
DICTIONARY
5
D
100
AcDbDictionary
0
DICTIONARY
5
1A
330
C
100
AcDbDictionary
0
DICTIONARY
5
17
100
AcDbDictionary
0
ENDSEC
0
EOF
