999
"DXF R12 Output" (www.mydxf.blogspot.com)
 0 
SECTION
 2 
HEADER
 9 
$ACADVER
 1 
AC1009
 9 
$EXTMIN
 10 
 0 
 20 
 0 
 9 
$EXTMAX
 10 
 8.5 
 20 
 11 
 0 
ENDSEC
 0 
SECTION
 2 
ENTITIES
0
LINE
8
Layer 1
10
0.793749
20
297.793749
11
-0.793749
21
296.206251
0
LINE
8
Layer 1
10
0.000000
20
298.322915
11
0.000000
21
295.677085
0
LINE
8
Layer 1
10
2.116664
20
295.941668
11
1.058332
21
294.883336
0
LINE
8
Layer 1
10
1.587498
20
296.470834
11
0.529166
21
295.412502
0
LINE
8
Layer 1
10
1.058332
20
297.000000
11
0.000000
21
295.941668
0
LINE
8
0
10
537.615121
20
174.283300
11
538.365120
21
174.484262
0
LINE
8
0
10
538.365120
20
174.484262
11
538.914158
21
175.033300
0
LINE
8
0
10
538.914158
20
175.033300
11
539.115120
21
175.783299
0
LINE
8
0
10
539.115120
20
175.783299
11
538.914158
21
176.533299
0
LINE
8
0
10
538.914158
20
176.533299
11
538.365120
21
177.082337
0
LINE
8
0
10
538.365120
20
177.082337
11
537.615121
21
177.283298
0
LINE
8
0
10
537.615121
20
177.283298
11
536.865121
21
177.082337
0
LINE
8
0
10
536.865121
20
177.082337
11
536.316084
21
176.533299
0
LINE
8
0
10
536.316084
20
176.533299
11
536.115122
21
175.783299
0
LINE
8
0
10
536.115122
20
175.783299
11
536.316084
21
175.033300
0
LINE
8
0
10
536.316084
20
175.033300
11
536.865121
21
174.484262
0
LINE
8
0
10
536.865121
20
174.484262
11
537.615121
21
174.283300
0
LINE
8
0
10
537.615121
20
174.283300
11
537.615121
21
174.283300
0
LINE
8
0
10
717.340214
20
369.683180
11
717.340214
21
336.684388
0
LINE
8
0
10
717.340214
20
336.684388
11
723.340957
21
336.684388
0
LINE
8
0
10
723.340957
20
336.684388
11
723.340957
21
185.783178
0
LINE
8
0
10
723.340957
20
185.783178
11
548.615635
21
185.783178
0
LINE
8
0
10
548.615635
20
185.783178
11
548.615635
21
336.684388
0
LINE
8
0
10
548.615635
20
336.684388
11
657.340727
21
336.684388
0
LINE
8
0
10
657.340727
20
336.684388
11
657.340727
21
369.683180
0
LINE
8
0
10
657.340727
20
369.683180
11
642.976516
21
369.683180
0
LINE
8
0
10
642.976516
20
369.683180
11
642.976516
21
375.083319
0
LINE
8
0
10
642.976516
20
375.083319
11
622.976687
21
375.083319
0
LINE
8
0
10
622.976687
20
375.083319
11
622.976687
21
369.683180
0
LINE
8
0
10
622.976687
20
369.683180
11
616.465300
21
369.683180
0
LINE
8
0
10
616.465300
20
369.683180
11
545.615264
21
369.683180
0
LINE
8
0
10
545.615264
20
369.683180
11
545.615264
21
375.083319
0
LINE
8
0
10
545.615264
20
375.083319
11
525.615435
21
375.083319
0
LINE
8
0
10
525.615435
20
375.083319
11
525.615435
21
369.683180
0
LINE
8
0
10
525.615435
20
369.683180
11
520.215296
21
369.683180
0
LINE
8
0
10
520.215296
20
369.683180
11
520.215296
21
349.683351
0
LINE
8
0
10
520.215296
20
349.683351
11
525.615435
21
349.683351
0
LINE
8
0
10
525.615435
20
349.683351
11
525.615435
21
162.783242
0
LINE
8
0
10
525.615435
20
162.783242
11
520.215296
21
162.783242
0
LINE
8
0
10
520.215296
20
162.783242
11
520.215296
21
142.783414
0
LINE
8
0
10
520.215296
20
142.783414
11
525.615435
21
142.783414
0
LINE
8
0
10
525.615435
20
142.783414
11
525.615435
21
-44.116430
0
LINE
8
0
10
525.615435
20
-44.116430
11
520.215296
21
-44.116430
0
LINE
8
0
10
520.215296
20
-44.116430
11
520.215296
21
-64.116399
0
LINE
8
0
10
520.215296
20
-64.116399
11
525.615435
21
-64.116399
0
LINE
8
0
10
525.615435
20
-64.116399
11
525.615435
21
-69.516398
0
LINE
8
0
10
525.615435
20
-69.516398
11
545.615264
21
-69.516398
0
LINE
8
0
10
545.615264
20
-69.516398
11
545.615264
21
-64.116399
0
LINE
8
0
10
545.615264
20
-64.116399
11
622.976687
21
-64.116399
0
LINE
8
0
10
622.976687
20
-64.116399
11
622.976687
21
-69.516398
0
LINE
8
0
10
622.976687
20
-69.516398
11
642.976516
21
-69.516398
0
LINE
8
0
10
642.976516
20
-69.516398
11
642.976516
21
-64.116399
0
LINE
8
0
10
642.976516
20
-64.116399
11
720.340586
21
-64.116399
0
LINE
8
0
10
720.340586
20
-64.116399
11
720.340586
21
-69.516398
0
LINE
8
0
10
720.340586
20
-69.516398
11
740.340415
21
-69.516398
0
LINE
8
0
10
740.340415
20
-69.516398
11
740.340415
21
-64.116399
0
LINE
8
0
10
740.340415
20
-64.116399
11
745.740554
21
-64.116399
0
LINE
8
0
10
745.740554
20
-64.116399
11
745.740554
21
-44.116430
0
LINE
8
0
10
745.740554
20
-44.116430
11
740.340415
21
-44.116430
0
LINE
8
0
10
740.340415
20
-44.116430
11
740.340415
21
142.783414
0
LINE
8
0
10
740.340415
20
142.783414
11
745.740554
21
142.783414
0
LINE
8
0
10
745.740554
20
142.783414
11
745.740554
21
162.783242
0
LINE
8
0
10
745.740554
20
162.783242
11
740.340415
21
162.783242
0
LINE
8
0
10
740.340415
20
162.783242
11
740.340415
21
349.683351
0
LINE
8
0
10
740.340415
20
349.683351
11
745.740554
21
349.683351
0
LINE
8
0
10
745.740554
20
349.683351
11
745.740554
21
369.683180
0
LINE
8
0
10
745.740554
20
369.683180
11
740.340415
21
369.683180
0
LINE
8
0
10
740.340415
20
369.683180
11
740.340415
21
375.083319
0
LINE
8
0
10
740.340415
20
375.083319
11
720.340586
21
375.083319
0
LINE
8
0
10
720.340586
20
375.083319
11
720.340586
21
369.683180
0
LINE
8
0
10
720.340586
20
369.683180
11
717.340214
21
369.683180
0
LINE
8
0
10
727.340393
20
174.283300
11
728.090393
21
174.484262
0
LINE
8
0
10
728.090393
20
174.484262
11
728.639431
21
175.033300
0
LINE
8
0
10
728.639431
20
175.033300
11
728.840393
21
175.783299
0
LINE
8
0
10
728.840393
20
175.783299
11
728.639431
21
176.533299
0
LINE
8
0
10
728.639431
20
176.533299
11
728.090393
21
177.082337
0
LINE
8
0
10
728.090393
20
177.082337
11
727.340393
21
177.283298
0
LINE
8
0
10
727.340393
20
177.283298
11
726.590394
21
177.082337
0
LINE
8
0
10
726.590394
20
177.082337
11
726.041356
21
176.533299
0
LINE
8
0
10
726.041356
20
176.533299
11
725.840394
21
175.783299
0
LINE
8
0
10
725.840394
20
175.783299
11
726.041356
21
175.033300
0
LINE
8
0
10
726.041356
20
175.033300
11
726.590394
21
174.484262
0
LINE
8
0
10
726.590394
20
174.484262
11
727.340393
21
174.283300
0
LINE
8
0
10
727.340393
20
174.283300
11
727.340393
21
174.283300
0
LINE
8
0
10
620.977525
20
174.283300
11
621.727524
21
174.484262
0
LINE
8
0
10
621.727524
20
174.484262
11
622.276562
21
175.033300
0
LINE
8
0
10
622.276562
20
175.033300
11
622.477524
21
175.783299
0
LINE
8
0
10
622.477524
20
175.783299
11
622.276562
21
176.533299
0
LINE
8
0
10
622.276562
20
176.533299
11
621.727524
21
177.082337
0
LINE
8
0
10
621.727524
20
177.082337
11
620.977525
21
177.283298
0
LINE
8
0
10
620.977525
20
177.283298
11
620.227525
21
177.082337
0
LINE
8
0
10
620.227525
20
177.082337
11
619.678487
21
176.533299
0
LINE
8
0
10
619.678487
20
176.533299
11
619.477526
21
175.783299
0
LINE
8
0
10
619.477526
20
175.783299
11
619.678487
21
175.033300
0
LINE
8
0
10
619.678487
20
175.033300
11
620.227525
21
174.484262
0
LINE
8
0
10
620.227525
20
174.484262
11
620.977525
21
174.283300
0
LINE
8
0
10
620.977525
20
174.283300
11
620.977525
21
174.283300
0
LINE
8
0
10
723.340401
20
-30.116441
11
548.615106
21
-30.116441
0
LINE
8
0
10
548.615106
20
-30.116441
11
548.615106
21
120.783369
0
LINE
8
0
10
548.615106
20
120.783369
11
723.340401
21
120.783369
0
LINE
8
0
10
723.340401
20
120.783369
11
723.340401
21
-30.116441
0
LINE
8
0
10
643.977990
20
345.183085
11
644.727990
21
345.384047
0
LINE
8
0
10
644.727990
20
345.384047
11
645.277028
21
345.933085
0
LINE
8
0
10
645.277028
20
345.933085
11
645.477990
21
346.683085
0
LINE
8
0
10
645.477990
20
346.683085
11
645.277028
21
347.433086
0
LINE
8
0
10
645.277028
20
347.433086
11
644.727990
21
347.982124
0
LINE
8
0
10
644.727990
20
347.982124
11
643.977990
21
348.183086
0
LINE
8
0
10
643.977990
20
348.183086
11
643.227989
21
347.982124
0
LINE
8
0
10
643.227989
20
347.982124
11
642.678951
21
347.433086
0
LINE
8
0
10
642.678951
20
347.433086
11
642.477989
21
346.683085
0
LINE
8
0
10
642.477989
20
346.683085
11
642.678951
21
345.933085
0
LINE
8
0
10
642.678951
20
345.933085
11
643.227989
21
345.384047
0
LINE
8
0
10
643.227989
20
345.384047
11
643.977990
21
345.183085
0
LINE
8
0
10
643.977990
20
345.183085
11
643.977990
21
345.183085
0
LINE
8
0
10
727.340393
20
345.183085
11
728.090394
21
345.384047
0
LINE
8
0
10
728.090394
20
345.384047
11
728.639432
21
345.933085
0
LINE
8
0
10
728.639432
20
345.933085
11
728.840394
21
346.683085
0
LINE
8
0
10
728.840394
20
346.683085
11
728.639432
21
347.433086
0
LINE
8
0
10
728.639432
20
347.433086
11
728.090394
21
347.982124
0
LINE
8
0
10
728.090394
20
347.982124
11
727.340393
21
348.183086
0
LINE
8
0
10
727.340393
20
348.183086
11
726.590393
21
347.982124
0
LINE
8
0
10
726.590393
20
347.982124
11
726.041355
21
347.433086
0
LINE
8
0
10
726.041355
20
347.433086
11
725.840393
21
346.683085
0
LINE
8
0
10
725.840393
20
346.683085
11
726.041355
21
345.933085
0
LINE
8
0
10
726.041355
20
345.933085
11
726.590393
21
345.384047
0
LINE
8
0
10
726.590393
20
345.384047
11
727.340393
21
345.183085
0
LINE
8
0
10
727.340393
20
345.183085
11
727.340393
21
345.183085
0
LINE
8
0
10
643.977990
20
174.283300
11
644.727989
21
174.484262
0
LINE
8
0
10
644.727989
20
174.484262
11
645.277027
21
175.033300
0
LINE
8
0
10
645.277027
20
175.033300
11
645.477989
21
175.783299
0
LINE
8
0
10
645.477989
20
175.783299
11
645.277027
21
176.533299
0
LINE
8
0
10
645.277027
20
176.533299
11
644.727989
21
177.082337
0
LINE
8
0
10
644.727989
20
177.082337
11
643.977990
21
177.283298
0
LINE
8
0
10
643.977990
20
177.283298
11
643.227990
21
177.082337
0
LINE
8
0
10
643.227990
20
177.082337
11
642.678952
21
176.533299
0
LINE
8
0
10
642.678952
20
176.533299
11
642.477990
21
175.783299
0
LINE
8
0
10
642.477990
20
175.783299
11
642.678952
21
175.033300
0
LINE
8
0
10
642.678952
20
175.033300
11
643.227990
21
174.484262
0
LINE
8
0
10
643.227990
20
174.484262
11
643.977990
21
174.283300
0
LINE
8
0
10
643.977990
20
174.283300
11
643.977990
21
174.283300
0
LINE
8
0
10
620.977525
20
345.183085
11
621.727525
21
345.384047
0
LINE
8
0
10
621.727525
20
345.384047
11
622.276563
21
345.933085
0
LINE
8
0
10
622.276563
20
345.933085
11
622.477525
21
346.683085
0
LINE
8
0
10
622.477525
20
346.683085
11
622.276563
21
347.433086
0
LINE
8
0
10
622.276563
20
347.433086
11
621.727525
21
347.982124
0
LINE
8
0
10
621.727525
20
347.982124
11
620.977525
21
348.183086
0
LINE
8
0
10
620.977525
20
348.183086
11
620.227525
21
347.982124
0
LINE
8
0
10
620.227525
20
347.982124
11
619.678486
21
347.433086
0
LINE
8
0
10
619.678486
20
347.433086
11
619.477524
21
346.683085
0
LINE
8
0
10
619.477524
20
346.683085
11
619.678486
21
345.933085
0
LINE
8
0
10
619.678486
20
345.933085
11
620.227525
21
345.384047
0
LINE
8
0
10
620.227525
20
345.384047
11
620.977525
21
345.183085
0
LINE
8
0
10
620.977525
20
345.183085
11
620.977525
21
345.183085
0
LINE
8
0
10
537.615121
20
345.183085
11
538.365121
21
345.384047
0
LINE
8
0
10
538.365121
20
345.384047
11
538.914159
21
345.933085
0
LINE
8
0
10
538.914159
20
345.933085
11
539.115121
21
346.683085
0
LINE
8
0
10
539.115121
20
346.683085
11
538.914159
21
347.433086
0
LINE
8
0
10
538.914159
20
347.433086
11
538.365121
21
347.982124
0
LINE
8
0
10
538.365121
20
347.982124
11
537.615121
21
348.183086
0
LINE
8
0
10
537.615121
20
348.183086
11
536.865121
21
347.982124
0
LINE
8
0
10
536.865121
20
347.982124
11
536.316082
21
347.433086
0
LINE
8
0
10
536.316082
20
347.433086
11
536.115120
21
346.683085
0
LINE
8
0
10
536.115120
20
346.683085
11
536.316082
21
345.933085
0
LINE
8
0
10
536.316082
20
345.933085
11
536.865121
21
345.384047
0
LINE
8
0
10
536.865121
20
345.384047
11
537.615121
21
345.183085
0
LINE
8
0
10
537.615121
20
345.183085
11
537.615121
21
345.183085
0
LINE
8
0
10
727.340393
20
129.283357
11
727.923910
21
129.401548
0
LINE
8
0
10
727.923910
20
129.401548
11
728.400347
21
129.723082
0
LINE
8
0
10
728.400347
20
129.723082
11
728.721534
21
130.199752
0
LINE
8
0
10
728.721534
20
130.199752
11
728.839300
21
130.783355
0
LINE
8
0
10
728.839300
20
130.783355
11
728.721534
21
131.366957
0
LINE
8
0
10
728.721534
20
131.366957
11
728.400347
21
131.843628
0
LINE
8
0
10
728.400347
20
131.843628
11
727.923910
21
132.165161
0
LINE
8
0
10
727.923910
20
132.165161
11
727.340393
21
132.283352
0
LINE
8
0
10
727.340393
20
132.283352
11
726.756877
21
132.165161
0
LINE
8
0
10
726.756877
20
132.165161
11
726.280440
21
131.843628
0
LINE
8
0
10
726.280440
20
131.843628
11
725.959253
21
131.366957
0
LINE
8
0
10
725.959253
20
131.366957
11
725.841486
21
130.783355
0
LINE
8
0
10
725.841486
20
130.783355
11
725.959253
21
130.199752
0
LINE
8
0
10
725.959253
20
130.199752
11
726.280440
21
129.723082
0
LINE
8
0
10
726.280440
20
129.723082
11
726.756877
21
129.401548
0
LINE
8
0
10
726.756877
20
129.401548
11
727.340393
21
129.283357
0
LINE
8
0
10
727.340393
20
129.283357
11
727.340393
21
129.283357
0
LINE
8
0
10
620.977525
20
129.283357
11
621.561041
21
129.401548
0
LINE
8
0
10
621.561041
20
129.401548
11
622.037478
21
129.723082
0
LINE
8
0
10
622.037478
20
129.723082
11
622.358665
21
130.199752
0
LINE
8
0
10
622.358665
20
130.199752
11
622.476432
21
130.783355
0
LINE
8
0
10
622.476432
20
130.783355
11
622.358665
21
131.366957
0
LINE
8
0
10
622.358665
20
131.366957
11
622.037478
21
131.843628
0
LINE
8
0
10
622.037478
20
131.843628
11
621.561041
21
132.165161
0
LINE
8
0
10
621.561041
20
132.165161
11
620.977525
21
132.283352
0
LINE
8
0
10
620.977525
20
132.283352
11
620.394008
21
132.165161
0
LINE
8
0
10
620.394008
20
132.165161
11
619.917571
21
131.843628
0
LINE
8
0
10
619.917571
20
131.843628
11
619.596385
21
131.366957
0
LINE
8
0
10
619.596385
20
131.366957
11
619.478618
21
130.783355
0
LINE
8
0
10
619.478618
20
130.783355
11
619.596385
21
130.199752
0
LINE
8
0
10
619.596385
20
130.199752
11
619.917571
21
129.723082
0
LINE
8
0
10
619.917571
20
129.723082
11
620.394008
21
129.401548
0
LINE
8
0
10
620.394008
20
129.401548
11
620.977525
21
129.283357
0
LINE
8
0
10
620.977525
20
129.283357
11
620.977525
21
129.283357
0
LINE
8
0
10
620.977525
20
-41.616427
11
621.727524
21
-41.415465
0
LINE
8
0
10
621.727524
20
-41.415465
11
622.276561
21
-40.866428
0
LINE
8
0
10
622.276561
20
-40.866428
11
622.477523
21
-40.116429
0
LINE
8
0
10
622.477523
20
-40.116429
11
622.276561
21
-39.366430
0
LINE
8
0
10
622.276561
20
-39.366430
11
621.727524
21
-38.817393
0
LINE
8
0
10
621.727524
20
-38.817393
11
620.977525
21
-38.616431
0
LINE
8
0
10
620.977525
20
-38.616431
11
620.227526
21
-38.817393
0
LINE
8
0
10
620.227526
20
-38.817393
11
619.678488
21
-39.366430
0
LINE
8
0
10
619.678488
20
-39.366430
11
619.477527
21
-40.116429
0
LINE
8
0
10
619.477527
20
-40.116429
11
619.678488
21
-40.866428
0
LINE
8
0
10
619.678488
20
-40.866428
11
620.227526
21
-41.415465
0
LINE
8
0
10
620.227526
20
-41.415465
11
620.977525
21
-41.616427
0
LINE
8
0
10
620.977525
20
-41.616427
11
620.977525
21
-41.616427
0
LINE
8
0
10
537.615121
20
-41.616427
11
538.365120
21
-41.415465
0
LINE
8
0
10
538.365120
20
-41.415465
11
538.914157
21
-40.866428
0
LINE
8
0
10
538.914157
20
-40.866428
11
539.115119
21
-40.116429
0
LINE
8
0
10
539.115119
20
-40.116429
11
538.914157
21
-39.366430
0
LINE
8
0
10
538.914157
20
-39.366430
11
538.365120
21
-38.817393
0
LINE
8
0
10
538.365120
20
-38.817393
11
537.615121
21
-38.616431
0
LINE
8
0
10
537.615121
20
-38.616431
11
536.865122
21
-38.817393
0
LINE
8
0
10
536.865122
20
-38.817393
11
536.316084
21
-39.366430
0
LINE
8
0
10
536.316084
20
-39.366430
11
536.115123
21
-40.116429
0
LINE
8
0
10
536.115123
20
-40.116429
11
536.316084
21
-40.866428
0
LINE
8
0
10
536.316084
20
-40.866428
11
536.865122
21
-41.415465
0
LINE
8
0
10
536.865122
20
-41.415465
11
537.615121
21
-41.616427
0
LINE
8
0
10
537.615121
20
-41.616427
11
537.615121
21
-41.616427
0
LINE
8
0
10
537.615121
20
129.283357
11
538.198637
21
129.401548
0
LINE
8
0
10
538.198637
20
129.401548
11
538.675074
21
129.723082
0
LINE
8
0
10
538.675074
20
129.723082
11
538.996261
21
130.199752
0
LINE
8
0
10
538.996261
20
130.199752
11
539.114028
21
130.783355
0
LINE
8
0
10
539.114028
20
130.783355
11
538.996261
21
131.366957
0
LINE
8
0
10
538.996261
20
131.366957
11
538.675074
21
131.843628
0
LINE
8
0
10
538.675074
20
131.843628
11
538.198637
21
132.165161
0
LINE
8
0
10
538.198637
20
132.165161
11
537.615121
21
132.283352
0
LINE
8
0
10
537.615121
20
132.283352
11
537.031604
21
132.165161
0
LINE
8
0
10
537.031604
20
132.165161
11
536.555167
21
131.843628
0
LINE
8
0
10
536.555167
20
131.843628
11
536.233981
21
131.366957
0
LINE
8
0
10
536.233981
20
131.366957
11
536.116214
21
130.783355
0
LINE
8
0
10
536.116214
20
130.783355
11
536.233981
21
130.199752
0
LINE
8
0
10
536.233981
20
130.199752
11
536.555167
21
129.723082
0
LINE
8
0
10
536.555167
20
129.723082
11
537.031604
21
129.401548
0
LINE
8
0
10
537.031604
20
129.401548
11
537.615121
21
129.283357
0
LINE
8
0
10
537.615121
20
129.283357
11
537.615121
21
129.283357
0
LINE
8
0
10
643.977990
20
129.283357
11
644.561506
21
129.401548
0
LINE
8
0
10
644.561506
20
129.401548
11
645.037943
21
129.723082
0
LINE
8
0
10
645.037943
20
129.723082
11
645.359130
21
130.199752
0
LINE
8
0
10
645.359130
20
130.199752
11
645.476897
21
130.783355
0
LINE
8
0
10
645.476897
20
130.783355
11
645.359130
21
131.366957
0
LINE
8
0
10
645.359130
20
131.366957
11
645.037943
21
131.843628
0
LINE
8
0
10
645.037943
20
131.843628
11
644.561506
21
132.165161
0
LINE
8
0
10
644.561506
20
132.165161
11
643.977990
21
132.283352
0
LINE
8
0
10
643.977990
20
132.283352
11
643.394473
21
132.165161
0
LINE
8
0
10
643.394473
20
132.165161
11
642.918036
21
131.843628
0
LINE
8
0
10
642.918036
20
131.843628
11
642.596849
21
131.366957
0
LINE
8
0
10
642.596849
20
131.366957
11
642.479083
21
130.783355
0
LINE
8
0
10
642.479083
20
130.783355
11
642.596849
21
130.199752
0
LINE
8
0
10
642.596849
20
130.199752
11
642.918036
21
129.723082
0
LINE
8
0
10
642.918036
20
129.723082
11
643.394473
21
129.401548
0
LINE
8
0
10
643.394473
20
129.401548
11
643.977990
21
129.283357
0
LINE
8
0
10
643.977990
20
129.283357
11
643.977990
21
129.283357
0
LINE
8
0
10
643.977990
20
-41.616427
11
644.727989
21
-41.415465
0
LINE
8
0
10
644.727989
20
-41.415465
11
645.277026
21
-40.866428
0
LINE
8
0
10
645.277026
20
-40.866428
11
645.477988
21
-40.116429
0
LINE
8
0
10
645.477988
20
-40.116429
11
645.277026
21
-39.366430
0
LINE
8
0
10
645.277026
20
-39.366430
11
644.727989
21
-38.817393
0
LINE
8
0
10
644.727989
20
-38.817393
11
643.977990
21
-38.616431
0
LINE
8
0
10
643.977990
20
-38.616431
11
643.227991
21
-38.817393
0
LINE
8
0
10
643.227991
20
-38.817393
11
642.678953
21
-39.366430
0
LINE
8
0
10
642.678953
20
-39.366430
11
642.477992
21
-40.116429
0
LINE
8
0
10
642.477992
20
-40.116429
11
642.678953
21
-40.866428
0
LINE
8
0
10
642.678953
20
-40.866428
11
643.227991
21
-41.415465
0
LINE
8
0
10
643.227991
20
-41.415465
11
643.977990
21
-41.616427
0
LINE
8
0
10
643.977990
20
-41.616427
11
643.977990
21
-41.616427
0
LINE
8
0
10
727.340393
20
-41.616427
11
728.090392
21
-41.415465
0
LINE
8
0
10
728.090392
20
-41.415465
11
728.639430
21
-40.866428
0
LINE
8
0
10
728.639430
20
-40.866428
11
728.840391
21
-40.116429
0
LINE
8
0
10
728.840391
20
-40.116429
11
728.639430
21
-39.366430
0
LINE
8
0
10
728.639430
20
-39.366430
11
728.090392
21
-38.817393
0
LINE
8
0
10
728.090392
20
-38.817393
11
727.340393
21
-38.616431
0
LINE
8
0
10
727.340393
20
-38.616431
11
726.590394
21
-38.817393
0
LINE
8
0
10
726.590394
20
-38.817393
11
726.041357
21
-39.366430
0
LINE
8
0
10
726.041357
20
-39.366430
11
725.840395
21
-40.116429
0
LINE
8
0
10
725.840395
20
-40.116429
11
726.041357
21
-40.866428
0
LINE
8
0
10
726.041357
20
-40.866428
11
726.590394
21
-41.415465
0
LINE
8
0
10
726.590394
20
-41.415465
11
727.340393
21
-41.616427
0
LINE
8
0
10
727.340393
20
-41.616427
11
727.340393
21
-41.616427
0
LINE
8
0
10
-180.739200
20
-52.317879
11
-180.857078
21
-51.734012
0
LINE
8
0
10
-180.857078
20
-51.734012
11
-181.178540
21
-51.257220
0
LINE
8
0
10
-181.178540
20
-51.257220
11
-181.655332
21
-50.935758
0
LINE
8
0
10
-181.655332
20
-50.935758
11
-182.239199
21
-50.817880
0
LINE
8
0
10
-182.239199
20
-50.817880
11
-182.823067
21
-50.935758
0
LINE
8
0
10
-182.823067
20
-50.935758
11
-183.299859
21
-51.257220
0
LINE
8
0
10
-183.299859
20
-51.257220
11
-183.621321
21
-51.734012
0
LINE
8
0
10
-183.621321
20
-51.734012
11
-183.739198
21
-52.317879
0
LINE
8
0
10
-183.739198
20
-52.317879
11
-183.621321
21
-52.901746
0
LINE
8
0
10
-183.621321
20
-52.901746
11
-183.299859
21
-53.378539
0
LINE
8
0
10
-183.299859
20
-53.378539
11
-182.823067
21
-53.700001
0
LINE
8
0
10
-182.823067
20
-53.700001
11
-182.239199
21
-53.817878
0
LINE
8
0
10
-182.239199
20
-53.817878
11
-181.655332
21
-53.700001
0
LINE
8
0
10
-181.655332
20
-53.700001
11
-181.178540
21
-53.378539
0
LINE
8
0
10
-181.178540
20
-53.378539
11
-180.857078
21
-52.901746
0
LINE
8
0
10
-180.857078
20
-52.901746
11
-180.739200
21
-52.317879
0
LINE
8
0
10
-180.739200
20
-52.317879
11
-180.739200
21
-52.317879
0
LINE
8
0
10
-376.139080
20
127.407214
11
-343.140288
21
127.407214
0
LINE
8
0
10
-343.140288
20
127.407214
11
-343.140288
21
133.407957
0
LINE
8
0
10
-343.140288
20
133.407957
11
-192.239078
21
133.407957
0
LINE
8
0
10
-192.239078
20
133.407957
11
-192.239078
21
-41.317365
0
LINE
8
0
10
-192.239078
20
-41.317365
11
-343.140288
21
-41.317365
0
LINE
8
0
10
-343.140288
20
-41.317365
11
-343.140288
21
67.407727
0
LINE
8
0
10
-343.140288
20
67.407727
11
-376.139080
21
67.407727
0
LINE
8
0
10
-376.139080
20
67.407727
11
-376.139080
21
53.043516
0
LINE
8
0
10
-376.139080
20
53.043516
11
-381.539219
21
53.043516
0
LINE
8
0
10
-381.539219
20
53.043516
11
-381.539219
21
33.043687
0
LINE
8
0
10
-381.539219
20
33.043687
11
-376.139080
21
33.043687
0
LINE
8
0
10
-376.139080
20
33.043687
11
-376.139080
21
26.532300
0
LINE
8
0
10
-376.139080
20
26.532300
11
-376.139080
21
-44.317736
0
LINE
8
0
10
-376.139080
20
-44.317736
11
-381.539219
21
-44.317736
0
LINE
8
0
10
-381.539219
20
-44.317736
11
-381.539219
21
-64.317565
0
LINE
8
0
10
-381.539219
20
-64.317565
11
-376.139080
21
-64.317565
0
LINE
8
0
10
-376.139080
20
-64.317565
11
-376.139080
21
-69.717704
0
LINE
8
0
10
-376.139080
20
-69.717704
11
-356.139251
21
-69.717704
0
LINE
8
0
10
-356.139251
20
-69.717704
11
-356.139251
21
-64.317565
0
LINE
8
0
10
-356.139251
20
-64.317565
11
-169.239142
21
-64.317565
0
LINE
8
0
10
-169.239142
20
-64.317565
11
-169.239142
21
-69.717704
0
LINE
8
0
10
-169.239142
20
-69.717704
11
-149.239314
21
-69.717704
0
LINE
8
0
10
-149.239314
20
-69.717704
11
-149.239314
21
-64.317565
0
LINE
8
0
10
-149.239314
20
-64.317565
11
37.660530
21
-64.317565
0
LINE
8
0
10
37.660530
20
-64.317565
11
37.660530
21
-69.717704
0
LINE
8
0
10
37.660530
20
-69.717704
11
57.660499
21
-69.717704
0
LINE
8
0
10
57.660499
20
-69.717704
11
57.660499
21
-64.317565
0
LINE
8
0
10
57.660499
20
-64.317565
11
63.060498
21
-64.317565
0
LINE
8
0
10
63.060498
20
-64.317565
11
63.060498
21
-44.317736
0
LINE
8
0
10
63.060498
20
-44.317736
11
57.660499
21
-44.317736
0
LINE
8
0
10
57.660499
20
-44.317736
11
57.660499
21
33.043687
0
LINE
8
0
10
57.660499
20
33.043687
11
63.060498
21
33.043687
0
LINE
8
0
10
63.060498
20
33.043687
11
63.060498
21
53.043516
0
LINE
8
0
10
63.060498
20
53.043516
11
57.660499
21
53.043516
0
LINE
8
0
10
57.660499
20
53.043516
11
57.660499
21
130.407586
0
LINE
8
0
10
57.660499
20
130.407586
11
63.060498
21
130.407586
0
LINE
8
0
10
63.060498
20
130.407586
11
63.060498
21
150.407415
0
LINE
8
0
10
63.060498
20
150.407415
11
57.660499
21
150.407415
0
LINE
8
0
10
57.660499
20
150.407415
11
57.660499
21
155.807554
0
LINE
8
0
10
57.660499
20
155.807554
11
37.660530
21
155.807554
0
LINE
8
0
10
37.660530
20
155.807554
11
37.660530
21
150.407415
0
LINE
8
0
10
37.660530
20
150.407415
11
-149.239314
21
150.407415
0
LINE
8
0
10
-149.239314
20
150.407415
11
-149.239314
21
155.807554
0
LINE
8
0
10
-149.239314
20
155.807554
11
-169.239142
21
155.807554
0
LINE
8
0
10
-169.239142
20
155.807554
11
-169.239142
21
150.407415
0
LINE
8
0
10
-169.239142
20
150.407415
11
-356.139251
21
150.407415
0
LINE
8
0
10
-356.139251
20
150.407415
11
-356.139251
21
155.807554
0
LINE
8
0
10
-356.139251
20
155.807554
11
-376.139080
21
155.807554
0
LINE
8
0
10
-376.139080
20
155.807554
11
-376.139080
21
150.407415
0
LINE
8
0
10
-376.139080
20
150.407415
11
-381.539219
21
150.407415
0
LINE
8
0
10
-381.539219
20
150.407415
11
-381.539219
21
130.407586
0
LINE
8
0
10
-381.539219
20
130.407586
11
-376.139080
21
130.407586
0
LINE
8
0
10
-376.139080
20
130.407586
11
-376.139080
21
127.407214
0
LINE
8
0
10
-180.739200
20
137.407393
11
-180.857078
21
137.991261
0
LINE
8
0
10
-180.857078
20
137.991261
11
-181.178540
21
138.468053
0
LINE
8
0
10
-181.178540
20
138.468053
11
-181.655332
21
138.789515
0
LINE
8
0
10
-181.655332
20
138.789515
11
-182.239199
21
138.907392
0
LINE
8
0
10
-182.239199
20
138.907392
11
-182.823067
21
138.789515
0
LINE
8
0
10
-182.823067
20
138.789515
11
-183.299859
21
138.468053
0
LINE
8
0
10
-183.299859
20
138.468053
11
-183.621321
21
137.991261
0
LINE
8
0
10
-183.621321
20
137.991261
11
-183.739198
21
137.407393
0
LINE
8
0
10
-183.739198
20
137.407393
11
-183.621321
21
136.823526
0
LINE
8
0
10
-183.621321
20
136.823526
11
-183.299859
21
136.346734
0
LINE
8
0
10
-183.299859
20
136.346734
11
-182.823067
21
136.025272
0
LINE
8
0
10
-182.823067
20
136.025272
11
-182.239199
21
135.907395
0
LINE
8
0
10
-182.239199
20
135.907395
11
-181.655332
21
136.025272
0
LINE
8
0
10
-181.655332
20
136.025272
11
-181.178540
21
136.346734
0
LINE
8
0
10
-181.178540
20
136.346734
11
-180.857078
21
136.823526
0
LINE
8
0
10
-180.857078
20
136.823526
11
-180.739200
21
137.407393
0
LINE
8
0
10
-180.739200
20
137.407393
11
-180.739200
21
137.407393
0
LINE
8
0
10
-180.739200
20
31.044525
11
-180.857078
21
31.628392
0
LINE
8
0
10
-180.857078
20
31.628392
11
-181.178540
21
32.105184
0
LINE
8
0
10
-181.178540
20
32.105184
11
-181.655332
21
32.426646
0
LINE
8
0
10
-181.655332
20
32.426646
11
-182.239199
21
32.544524
0
LINE
8
0
10
-182.239199
20
32.544524
11
-182.823067
21
32.426646
0
LINE
8
0
10
-182.823067
20
32.426646
11
-183.299859
21
32.105184
0
LINE
8
0
10
-183.299859
20
32.105184
11
-183.621321
21
31.628392
0
LINE
8
0
10
-183.621321
20
31.628392
11
-183.739198
21
31.044525
0
LINE
8
0
10
-183.739198
20
31.044525
11
-183.621321
21
30.460657
0
LINE
8
0
10
-183.621321
20
30.460657
11
-183.299859
21
29.983865
0
LINE
8
0
10
-183.299859
20
29.983865
11
-182.823067
21
29.662403
0
LINE
8
0
10
-182.823067
20
29.662403
11
-182.239199
21
29.544526
0
LINE
8
0
10
-182.239199
20
29.544526
11
-181.655332
21
29.662403
0
LINE
8
0
10
-181.655332
20
29.662403
11
-181.178540
21
29.983865
0
LINE
8
0
10
-181.178540
20
29.983865
11
-180.857078
21
30.460657
0
LINE
8
0
10
-180.857078
20
30.460657
11
-180.739200
21
31.044525
0
LINE
8
0
10
-180.739200
20
31.044525
11
-180.739200
21
31.044525
0
LINE
8
0
10
23.660541
20
133.407401
11
23.660541
21
-41.317894
0
LINE
8
0
10
23.660541
20
-41.317894
11
-127.239269
21
-41.317894
0
LINE
8
0
10
-127.239269
20
-41.317894
11
-127.239269
21
133.407401
0
LINE
8
0
10
-127.239269
20
133.407401
11
23.660541
21
133.407401
0
LINE
8
0
10
-351.638985
20
54.044990
11
-351.839947
21
54.794990
0
LINE
8
0
10
-351.839947
20
54.794990
11
-352.388985
21
55.344028
0
LINE
8
0
10
-352.388985
20
55.344028
11
-353.138985
21
55.544990
0
LINE
8
0
10
-353.138985
20
55.544990
11
-353.888986
21
55.344028
0
LINE
8
0
10
-353.888986
20
55.344028
11
-354.438024
21
54.794990
0
LINE
8
0
10
-354.438024
20
54.794990
11
-354.638986
21
54.044990
0
LINE
8
0
10
-354.638986
20
54.044990
11
-354.438024
21
53.294989
0
LINE
8
0
10
-354.438024
20
53.294989
11
-353.888986
21
52.745951
0
LINE
8
0
10
-353.888986
20
52.745951
11
-353.138985
21
52.544989
0
LINE
8
0
10
-353.138985
20
52.544989
11
-352.388985
21
52.745951
0
LINE
8
0
10
-352.388985
20
52.745951
11
-351.839947
21
53.294989
0
LINE
8
0
10
-351.839947
20
53.294989
11
-351.638985
21
54.044990
0
LINE
8
0
10
-351.638985
20
54.044990
11
-351.638985
21
54.044990
0
LINE
8
0
10
-351.638985
20
137.407393
11
-351.839947
21
138.157394
0
LINE
8
0
10
-351.839947
20
138.157394
11
-352.388985
21
138.706432
0
LINE
8
0
10
-352.388985
20
138.706432
11
-353.138985
21
138.907394
0
LINE
8
0
10
-353.138985
20
138.907394
11
-353.888986
21
138.706432
0
LINE
8
0
10
-353.888986
20
138.706432
11
-354.438024
21
138.157394
0
LINE
8
0
10
-354.438024
20
138.157394
11
-354.638986
21
137.407393
0
LINE
8
0
10
-354.638986
20
137.407393
11
-354.438024
21
136.657393
0
LINE
8
0
10
-354.438024
20
136.657393
11
-353.888986
21
136.108355
0
LINE
8
0
10
-353.888986
20
136.108355
11
-353.138985
21
135.907393
0
LINE
8
0
10
-353.138985
20
135.907393
11
-352.388985
21
136.108355
0
LINE
8
0
10
-352.388985
20
136.108355
11
-351.839947
21
136.657393
0
LINE
8
0
10
-351.839947
20
136.657393
11
-351.638985
21
137.407393
0
LINE
8
0
10
-351.638985
20
137.407393
11
-351.638985
21
137.407393
0
LINE
8
0
10
-180.739200
20
54.044990
11
-180.857078
21
54.628857
0
LINE
8
0
10
-180.857078
20
54.628857
11
-181.178540
21
55.105649
0
LINE
8
0
10
-181.178540
20
55.105649
11
-181.655332
21
55.427111
0
LINE
8
0
10
-181.655332
20
55.427111
11
-182.239199
21
55.544988
0
LINE
8
0
10
-182.239199
20
55.544988
11
-182.823067
21
55.427111
0
LINE
8
0
10
-182.823067
20
55.427111
11
-183.299859
21
55.105649
0
LINE
8
0
10
-183.299859
20
55.105649
11
-183.621321
21
54.628857
0
LINE
8
0
10
-183.621321
20
54.628857
11
-183.739198
21
54.044990
0
LINE
8
0
10
-183.739198
20
54.044990
11
-183.621321
21
53.461122
0
LINE
8
0
10
-183.621321
20
53.461122
11
-183.299859
21
52.984330
0
LINE
8
0
10
-183.299859
20
52.984330
11
-182.823067
21
52.662868
0
LINE
8
0
10
-182.823067
20
52.662868
11
-182.239199
21
52.544991
0
LINE
8
0
10
-182.239199
20
52.544991
11
-181.655332
21
52.662868
0
LINE
8
0
10
-181.655332
20
52.662868
11
-181.178540
21
52.984330
0
LINE
8
0
10
-181.178540
20
52.984330
11
-180.857078
21
53.461122
0
LINE
8
0
10
-180.857078
20
53.461122
11
-180.739200
21
54.044990
0
LINE
8
0
10
-180.739200
20
54.044990
11
-180.739200
21
54.044990
0
LINE
8
0
10
-351.638985
20
31.044525
11
-351.839947
21
31.794525
0
LINE
8
0
10
-351.839947
20
31.794525
11
-352.388985
21
32.343563
0
LINE
8
0
10
-352.388985
20
32.343563
11
-353.138985
21
32.544525
0
LINE
8
0
10
-353.138985
20
32.544525
11
-353.888986
21
32.343563
0
LINE
8
0
10
-353.888986
20
32.343563
11
-354.438024
21
31.794525
0
LINE
8
0
10
-354.438024
20
31.794525
11
-354.638986
21
31.044525
0
LINE
8
0
10
-354.638986
20
31.044525
11
-354.438024
21
30.294525
0
LINE
8
0
10
-354.438024
20
30.294525
11
-353.888986
21
29.745486
0
LINE
8
0
10
-353.888986
20
29.745486
11
-353.138985
21
29.544524
0
LINE
8
0
10
-353.138985
20
29.544524
11
-352.388985
21
29.745486
0
LINE
8
0
10
-352.388985
20
29.745486
11
-351.839947
21
30.294525
0
LINE
8
0
10
-351.839947
20
30.294525
11
-351.638985
21
31.044525
0
LINE
8
0
10
-351.638985
20
31.044525
11
-351.638985
21
31.044525
0
LINE
8
0
10
-351.638985
20
-52.317879
11
-351.839947
21
-51.567879
0
LINE
8
0
10
-351.839947
20
-51.567879
11
-352.388985
21
-51.018841
0
LINE
8
0
10
-352.388985
20
-51.018841
11
-353.138985
21
-50.817879
0
LINE
8
0
10
-353.138985
20
-50.817879
11
-353.888986
21
-51.018841
0
LINE
8
0
10
-353.888986
20
-51.018841
11
-354.438024
21
-51.567879
0
LINE
8
0
10
-354.438024
20
-51.567879
11
-354.638986
21
-52.317879
0
LINE
8
0
10
-354.638986
20
-52.317879
11
-354.438024
21
-53.067879
0
LINE
8
0
10
-354.438024
20
-53.067879
11
-353.888986
21
-53.616918
0
LINE
8
0
10
-353.888986
20
-53.616918
11
-353.138985
21
-53.817880
0
LINE
8
0
10
-353.138985
20
-53.817880
11
-352.388985
21
-53.616918
0
LINE
8
0
10
-352.388985
20
-53.616918
11
-351.839947
21
-53.067879
0
LINE
8
0
10
-351.839947
20
-53.067879
11
-351.638985
21
-52.317879
0
LINE
8
0
10
-351.638985
20
-52.317879
11
-351.638985
21
-52.317879
0
LINE
8
0
10
-135.739257
20
137.407393
11
-135.857448
21
137.990910
0
LINE
8
0
10
-135.857448
20
137.990910
11
-136.178982
21
138.467347
0
LINE
8
0
10
-136.178982
20
138.467347
11
-136.655652
21
138.788534
0
LINE
8
0
10
-136.655652
20
138.788534
11
-137.239255
21
138.906300
0
LINE
8
0
10
-137.239255
20
138.906300
11
-137.822857
21
138.788534
0
LINE
8
0
10
-137.822857
20
138.788534
11
-138.299528
21
138.467347
0
LINE
8
0
10
-138.299528
20
138.467347
11
-138.621061
21
137.990910
0
LINE
8
0
10
-138.621061
20
137.990910
11
-138.739252
21
137.407393
0
LINE
8
0
10
-138.739252
20
137.407393
11
-138.621061
21
136.823877
0
LINE
8
0
10
-138.621061
20
136.823877
11
-138.299528
21
136.347440
0
LINE
8
0
10
-138.299528
20
136.347440
11
-137.822857
21
136.026253
0
LINE
8
0
10
-137.822857
20
136.026253
11
-137.239255
21
135.908486
0
LINE
8
0
10
-137.239255
20
135.908486
11
-136.655652
21
136.026253
0
LINE
8
0
10
-136.655652
20
136.026253
11
-136.178982
21
136.347440
0
LINE
8
0
10
-136.178982
20
136.347440
11
-135.857448
21
136.823877
0
LINE
8
0
10
-135.857448
20
136.823877
11
-135.739257
21
137.407393
0
LINE
8
0
10
-135.739257
20
137.407393
11
-135.739257
21
137.407393
0
LINE
8
0
10
-135.739257
20
31.044525
11
-135.857448
21
31.628041
0
LINE
8
0
10
-135.857448
20
31.628041
11
-136.178982
21
32.104478
0
LINE
8
0
10
-136.178982
20
32.104478
11
-136.655652
21
32.425665
0
LINE
8
0
10
-136.655652
20
32.425665
11
-137.239255
21
32.543432
0
LINE
8
0
10
-137.239255
20
32.543432
11
-137.822857
21
32.425665
0
LINE
8
0
10
-137.822857
20
32.425665
11
-138.299528
21
32.104478
0
LINE
8
0
10
-138.299528
20
32.104478
11
-138.621061
21
31.628041
0
LINE
8
0
10
-138.621061
20
31.628041
11
-138.739252
21
31.044525
0
LINE
8
0
10
-138.739252
20
31.044525
11
-138.621061
21
30.461008
0
LINE
8
0
10
-138.621061
20
30.461008
11
-138.299528
21
29.984571
0
LINE
8
0
10
-138.299528
20
29.984571
11
-137.822857
21
29.663385
0
LINE
8
0
10
-137.822857
20
29.663385
11
-137.239255
21
29.545618
0
LINE
8
0
10
-137.239255
20
29.545618
11
-136.655652
21
29.663385
0
LINE
8
0
10
-136.655652
20
29.663385
11
-136.178982
21
29.984571
0
LINE
8
0
10
-136.178982
20
29.984571
11
-135.857448
21
30.461008
0
LINE
8
0
10
-135.857448
20
30.461008
11
-135.739257
21
31.044525
0
LINE
8
0
10
-135.739257
20
31.044525
11
-135.739257
21
31.044525
0
LINE
8
0
10
35.160527
20
31.044525
11
34.959565
21
31.794524
0
LINE
8
0
10
34.959565
20
31.794524
11
34.410528
21
32.343561
0
LINE
8
0
10
34.410528
20
32.343561
11
33.660529
21
32.544523
0
LINE
8
0
10
33.660529
20
32.544523
11
32.910530
21
32.343561
0
LINE
8
0
10
32.910530
20
32.343561
11
32.361493
21
31.794524
0
LINE
8
0
10
32.361493
20
31.794524
11
32.160531
21
31.044525
0
LINE
8
0
10
32.160531
20
31.044525
11
32.361493
21
30.294526
0
LINE
8
0
10
32.361493
20
30.294526
11
32.910530
21
29.745488
0
LINE
8
0
10
32.910530
20
29.745488
11
33.660529
21
29.544527
0
LINE
8
0
10
33.660529
20
29.544527
11
34.410528
21
29.745488
0
LINE
8
0
10
34.410528
20
29.745488
11
34.959565
21
30.294526
0
LINE
8
0
10
34.959565
20
30.294526
11
35.160527
21
31.044525
0
LINE
8
0
10
35.160527
20
31.044525
11
35.160527
21
31.044525
0
LINE
8
0
10
35.160527
20
-52.317879
11
34.959565
21
-51.567880
0
LINE
8
0
10
34.959565
20
-51.567880
11
34.410528
21
-51.018843
0
LINE
8
0
10
34.410528
20
-51.018843
11
33.660529
21
-50.817881
0
LINE
8
0
10
33.660529
20
-50.817881
11
32.910530
21
-51.018843
0
LINE
8
0
10
32.910530
20
-51.018843
11
32.361493
21
-51.567880
0
LINE
8
0
10
32.361493
20
-51.567880
11
32.160531
21
-52.317879
0
LINE
8
0
10
32.160531
20
-52.317879
11
32.361493
21
-53.067878
0
LINE
8
0
10
32.361493
20
-53.067878
11
32.910530
21
-53.616916
0
LINE
8
0
10
32.910530
20
-53.616916
11
33.660529
21
-53.817877
0
LINE
8
0
10
33.660529
20
-53.817877
11
34.410528
21
-53.616916
0
LINE
8
0
10
34.410528
20
-53.616916
11
34.959565
21
-53.067878
0
LINE
8
0
10
34.959565
20
-53.067878
11
35.160527
21
-52.317879
0
LINE
8
0
10
35.160527
20
-52.317879
11
35.160527
21
-52.317879
0
LINE
8
0
10
-135.739257
20
-52.317879
11
-135.857448
21
-51.734363
0
LINE
8
0
10
-135.857448
20
-51.734363
11
-136.178982
21
-51.257926
0
LINE
8
0
10
-136.178982
20
-51.257926
11
-136.655652
21
-50.936739
0
LINE
8
0
10
-136.655652
20
-50.936739
11
-137.239255
21
-50.818972
0
LINE
8
0
10
-137.239255
20
-50.818972
11
-137.822857
21
-50.936739
0
LINE
8
0
10
-137.822857
20
-50.936739
11
-138.299528
21
-51.257926
0
LINE
8
0
10
-138.299528
20
-51.257926
11
-138.621061
21
-51.734363
0
LINE
8
0
10
-138.621061
20
-51.734363
11
-138.739252
21
-52.317879
0
LINE
8
0
10
-138.739252
20
-52.317879
11
-138.621061
21
-52.901396
0
LINE
8
0
10
-138.621061
20
-52.901396
11
-138.299528
21
-53.377833
0
LINE
8
0
10
-138.299528
20
-53.377833
11
-137.822857
21
-53.699019
0
LINE
8
0
10
-137.822857
20
-53.699019
11
-137.239255
21
-53.816786
0
LINE
8
0
10
-137.239255
20
-53.816786
11
-136.655652
21
-53.699019
0
LINE
8
0
10
-136.655652
20
-53.699019
11
-136.178982
21
-53.377833
0
LINE
8
0
10
-136.178982
20
-53.377833
11
-135.857448
21
-52.901396
0
LINE
8
0
10
-135.857448
20
-52.901396
11
-135.739257
21
-52.317879
0
LINE
8
0
10
-135.739257
20
-52.317879
11
-135.739257
21
-52.317879
0
LINE
8
0
10
-135.739257
20
54.044990
11
-135.857448
21
54.628506
0
LINE
8
0
10
-135.857448
20
54.628506
11
-136.178982
21
55.104943
0
LINE
8
0
10
-136.178982
20
55.104943
11
-136.655652
21
55.426130
0
LINE
8
0
10
-136.655652
20
55.426130
11
-137.239255
21
55.543897
0
LINE
8
0
10
-137.239255
20
55.543897
11
-137.822857
21
55.426130
0
LINE
8
0
10
-137.822857
20
55.426130
11
-138.299528
21
55.104943
0
LINE
8
0
10
-138.299528
20
55.104943
11
-138.621061
21
54.628506
0
LINE
8
0
10
-138.621061
20
54.628506
11
-138.739252
21
54.044990
0
LINE
8
0
10
-138.739252
20
54.044990
11
-138.621061
21
53.461473
0
LINE
8
0
10
-138.621061
20
53.461473
11
-138.299528
21
52.985036
0
LINE
8
0
10
-138.299528
20
52.985036
11
-137.822857
21
52.663849
0
LINE
8
0
10
-137.822857
20
52.663849
11
-137.239255
21
52.546083
0
LINE
8
0
10
-137.239255
20
52.546083
11
-136.655652
21
52.663849
0
LINE
8
0
10
-136.655652
20
52.663849
11
-136.178982
21
52.985036
0
LINE
8
0
10
-136.178982
20
52.985036
11
-135.857448
21
53.461473
0
LINE
8
0
10
-135.857448
20
53.461473
11
-135.739257
21
54.044990
0
LINE
8
0
10
-135.739257
20
54.044990
11
-135.739257
21
54.044990
0
LINE
8
0
10
35.160527
20
54.044990
11
34.959565
21
54.794989
0
LINE
8
0
10
34.959565
20
54.794989
11
34.410528
21
55.344026
0
LINE
8
0
10
34.410528
20
55.344026
11
33.660529
21
55.544988
0
LINE
8
0
10
33.660529
20
55.544988
11
32.910530
21
55.344026
0
LINE
8
0
10
32.910530
20
55.344026
11
32.361493
21
54.794989
0
LINE
8
0
10
32.361493
20
54.794989
11
32.160531
21
54.044990
0
LINE
8
0
10
32.160531
20
54.044990
11
32.361493
21
53.294991
0
LINE
8
0
10
32.361493
20
53.294991
11
32.910530
21
52.745953
0
LINE
8
0
10
32.910530
20
52.745953
11
33.660529
21
52.544992
0
LINE
8
0
10
33.660529
20
52.544992
11
34.410528
21
52.745953
0
LINE
8
0
10
34.410528
20
52.745953
11
34.959565
21
53.294991
0
LINE
8
0
10
34.959565
20
53.294991
11
35.160527
21
54.044990
0
LINE
8
0
10
35.160527
20
54.044990
11
35.160527
21
54.044990
0
LINE
8
0
10
35.160527
20
137.407393
11
34.959565
21
138.157392
0
LINE
8
0
10
34.959565
20
138.157392
11
34.410528
21
138.706430
0
LINE
8
0
10
34.410528
20
138.706430
11
33.660529
21
138.907391
0
LINE
8
0
10
33.660529
20
138.907391
11
32.910530
21
138.706430
0
LINE
8
0
10
32.910530
20
138.706430
11
32.361493
21
138.157392
0
LINE
8
0
10
32.361493
20
138.157392
11
32.160531
21
137.407393
0
LINE
8
0
10
32.160531
20
137.407393
11
32.361493
21
136.657394
0
LINE
8
0
10
32.361493
20
136.657394
11
32.910530
21
136.108357
0
LINE
8
0
10
32.910530
20
136.108357
11
33.660529
21
135.907395
0
LINE
8
0
10
33.660529
20
135.907395
11
34.410528
21
136.108357
0
LINE
8
0
10
34.410528
20
136.108357
11
34.959565
21
136.657394
0
LINE
8
0
10
34.959565
20
136.657394
11
35.160527
21
137.407393
0
LINE
8
0
10
35.160527
20
137.407393
11
35.160527
21
137.407393
0
LINE
8
0
10
-31.494513
20
319.466562
11
-26.332620
21
319.466562
0
LINE
8
0
10
-26.332620
20
319.466562
11
-25.411872
21
319.219848
0
LINE
8
0
10
-25.411872
20
319.219848
11
-24.737837
21
318.545813
0
LINE
8
0
10
-24.737837
20
318.545813
11
-24.491123
21
317.625064
0
LINE
8
0
10
-24.491123
20
317.625064
11
-24.737837
21
316.704315
0
LINE
8
0
10
-24.737837
20
316.704315
11
-25.411872
21
316.030280
0
LINE
8
0
10
-25.411872
20
316.030280
11
-26.332620
21
315.783566
0
LINE
8
0
10
-26.332620
20
315.783566
11
-31.494513
21
315.783566
0
LINE
8
0
10
-31.494513
20
315.783566
11
-32.397023
21
314.481974
0
LINE
8
0
10
-32.397023
20
314.481974
11
-33.698611
21
313.579458
0
LINE
8
0
10
-33.698611
20
313.579458
11
-33.698611
21
308.417575
0
LINE
8
0
10
-33.698611
20
308.417575
11
-33.843609
21
307.701098
0
LINE
8
0
10
-33.843609
20
307.701098
11
-34.238322
21
307.116078
0
LINE
8
0
10
-34.238322
20
307.116078
11
-34.823554
21
306.721679
0
LINE
8
0
10
-34.823554
20
306.721679
11
-35.540109
21
306.577065
0
LINE
8
0
10
-35.540109
20
306.577065
11
-36.256664
21
306.721679
0
LINE
8
0
10
-36.256664
20
306.721679
11
-36.841895
21
307.116078
0
LINE
8
0
10
-36.841895
20
307.116078
11
-37.236608
21
307.701098
0
LINE
8
0
10
-37.236608
20
307.701098
11
-37.381607
21
308.417575
0
LINE
8
0
10
-37.381607
20
308.417575
11
-37.381607
21
313.579458
0
LINE
8
0
10
-37.381607
20
313.579458
11
-38.683196
21
314.481973
0
LINE
8
0
10
-38.683196
20
314.481973
11
-39.585707
21
315.783566
0
LINE
8
0
10
-39.585707
20
315.783566
11
-44.747597
21
315.783566
0
LINE
8
0
10
-44.747597
20
315.783566
11
-45.668346
21
316.030280
0
LINE
8
0
10
-45.668346
20
316.030280
11
-46.342381
21
316.704315
0
LINE
8
0
10
-46.342381
20
316.704315
11
-46.589095
21
317.625064
0
LINE
8
0
10
-46.589095
20
317.625064
11
-46.342381
21
318.545813
0
LINE
8
0
10
-46.342381
20
318.545813
11
-45.668346
21
319.219848
0
LINE
8
0
10
-45.668346
20
319.219848
11
-44.747597
21
319.466562
0
LINE
8
0
10
-44.747597
20
319.466562
11
-39.585707
21
319.466562
0
LINE
8
0
10
-39.585707
20
319.466562
11
-38.683196
21
320.768154
0
LINE
8
0
10
-38.683196
20
320.768154
11
-37.381607
21
321.670670
0
LINE
8
0
10
-37.381607
20
321.670670
11
-37.381607
21
326.832552
0
LINE
8
0
10
-37.381607
20
326.832552
11
-37.236608
21
327.549029
0
LINE
8
0
10
-37.236608
20
327.549029
11
-36.841895
21
328.134050
0
LINE
8
0
10
-36.841895
20
328.134050
11
-36.256664
21
328.528449
0
LINE
8
0
10
-36.256664
20
328.528449
11
-35.540109
21
328.673063
0
LINE
8
0
10
-35.540109
20
328.673063
11
-34.823554
21
328.528449
0
LINE
8
0
10
-34.823554
20
328.528449
11
-34.238322
21
328.134050
0
LINE
8
0
10
-34.238322
20
328.134050
11
-33.843609
21
327.549029
0
LINE
8
0
10
-33.843609
20
327.549029
11
-33.698611
21
326.832552
0
LINE
8
0
10
-33.698611
20
326.832552
11
-33.698611
21
321.670670
0
LINE
8
0
10
-33.698611
20
321.670670
11
-32.397023
21
320.768154
0
LINE
8
0
10
-32.397023
20
320.768154
11
-31.494513
21
319.466562
0
LINE
8
0
10
-31.494513
20
319.466562
11
-31.494513
21
319.466562
0
LINE
8
0
10
-320.694143
20
319.466562
11
-315.532261
21
319.466562
0
LINE
8
0
10
-315.532261
20
319.466562
11
-314.611513
21
319.219848
0
LINE
8
0
10
-314.611513
20
319.219848
11
-313.937478
21
318.545813
0
LINE
8
0
10
-313.937478
20
318.545813
11
-313.690764
21
317.625064
0
LINE
8
0
10
-313.690764
20
317.625064
11
-313.937478
21
316.704315
0
LINE
8
0
10
-313.937478
20
316.704315
11
-314.611513
21
316.030280
0
LINE
8
0
10
-314.611513
20
316.030280
11
-315.532261
21
315.783566
0
LINE
8
0
10
-315.532261
20
315.783566
11
-320.694143
21
315.783566
0
LINE
8
0
10
-320.694143
20
315.783566
11
-321.596658
21
314.481972
0
LINE
8
0
10
-321.596658
20
314.481972
11
-322.898252
21
313.579458
0
LINE
8
0
10
-322.898252
20
313.579458
11
-322.898252
21
308.417575
0
LINE
8
0
10
-322.898252
20
308.417575
11
-323.043250
21
307.701098
0
LINE
8
0
10
-323.043250
20
307.701098
11
-323.437963
21
307.116078
0
LINE
8
0
10
-323.437963
20
307.116078
11
-324.023195
21
306.721679
0
LINE
8
0
10
-324.023195
20
306.721679
11
-324.739750
21
306.577065
0
LINE
8
0
10
-324.739750
20
306.577065
11
-325.456305
21
306.721679
0
LINE
8
0
10
-325.456305
20
306.721679
11
-326.041536
21
307.116078
0
LINE
8
0
10
-326.041536
20
307.116078
11
-326.436249
21
307.701098
0
LINE
8
0
10
-326.436249
20
307.701098
11
-326.581247
21
308.417575
0
LINE
8
0
10
-326.581247
20
308.417575
11
-326.581247
21
313.579458
0
LINE
8
0
10
-326.581247
20
313.579458
11
-327.882841
21
314.481972
0
LINE
8
0
10
-327.882841
20
314.481972
11
-328.785356
21
315.783566
0
LINE
8
0
10
-328.785356
20
315.783566
11
-333.947238
21
315.783566
0
LINE
8
0
10
-333.947238
20
315.783566
11
-334.867987
21
316.030280
0
LINE
8
0
10
-334.867987
20
316.030280
11
-335.542022
21
316.704315
0
LINE
8
0
10
-335.542022
20
316.704315
11
-335.788736
21
317.625064
0
LINE
8
0
10
-335.788736
20
317.625064
11
-335.542022
21
318.545813
0
LINE
8
0
10
-335.542022
20
318.545813
11
-334.867987
21
319.219848
0
LINE
8
0
10
-334.867987
20
319.219848
11
-333.947238
21
319.466562
0
LINE
8
0
10
-333.947238
20
319.466562
11
-328.785356
21
319.466562
0
LINE
8
0
10
-328.785356
20
319.466562
11
-327.882841
21
320.768155
0
LINE
8
0
10
-327.882841
20
320.768155
11
-326.581247
21
321.670670
0
LINE
8
0
10
-326.581247
20
321.670670
11
-326.581247
21
326.832552
0
LINE
8
0
10
-326.581247
20
326.832552
11
-326.436249
21
327.549029
0
LINE
8
0
10
-326.436249
20
327.549029
11
-326.041536
21
328.134050
0
LINE
8
0
10
-326.041536
20
328.134050
11
-325.456305
21
328.528449
0
LINE
8
0
10
-325.456305
20
328.528449
11
-324.739750
21
328.673063
0
LINE
8
0
10
-324.739750
20
328.673063
11
-324.023195
21
328.528449
0
LINE
8
0
10
-324.023195
20
328.528449
11
-323.437963
21
328.134050
0
LINE
8
0
10
-323.437963
20
328.134050
11
-323.043250
21
327.549029
0
LINE
8
0
10
-323.043250
20
327.549029
11
-322.898252
21
326.832552
0
LINE
8
0
10
-322.898252
20
326.832552
11
-322.898252
21
321.670670
0
LINE
8
0
10
-322.898252
20
321.670670
11
-321.596658
21
320.768155
0
LINE
8
0
10
-321.596658
20
320.768155
11
-320.694143
21
319.466562
0
LINE
8
0
10
-320.694143
20
319.466562
11
-320.694143
21
319.466562
0
LINE
8
0
10
-39.585707
20
208.420944
11
-44.747597
21
208.420944
0
LINE
8
0
10
-44.747597
20
208.420944
11
-45.668346
21
208.667658
0
LINE
8
0
10
-45.668346
20
208.667658
11
-46.342381
21
209.341693
0
LINE
8
0
10
-46.342381
20
209.341693
11
-46.589095
21
210.262442
0
LINE
8
0
10
-46.589095
20
210.262442
11
-46.342381
21
211.183191
0
LINE
8
0
10
-46.342381
20
211.183191
11
-45.668346
21
211.857226
0
LINE
8
0
10
-45.668346
20
211.857226
11
-44.747597
21
212.103940
0
LINE
8
0
10
-44.747597
20
212.103940
11
-39.585707
21
212.103940
0
LINE
8
0
10
-39.585707
20
212.103940
11
-38.683196
21
213.405532
0
LINE
8
0
10
-38.683196
20
213.405532
11
-37.381607
21
214.308048
0
LINE
8
0
10
-37.381607
20
214.308048
11
-37.381607
21
219.469930
0
LINE
8
0
10
-37.381607
20
219.469930
11
-37.134893
21
220.390679
0
LINE
8
0
10
-37.134893
20
220.390679
11
-36.460858
21
221.064714
0
LINE
8
0
10
-36.460858
20
221.064714
11
-35.540109
21
221.311428
0
LINE
8
0
10
-35.540109
20
221.311428
11
-34.619360
21
221.064714
0
LINE
8
0
10
-34.619360
20
221.064714
11
-33.945325
21
220.390679
0
LINE
8
0
10
-33.945325
20
220.390679
11
-33.698611
21
219.469930
0
LINE
8
0
10
-33.698611
20
219.469930
11
-33.698611
21
214.308048
0
LINE
8
0
10
-33.698611
20
214.308048
11
-32.397023
21
213.405532
0
LINE
8
0
10
-32.397023
20
213.405532
11
-31.494513
21
212.103940
0
LINE
8
0
10
-31.494513
20
212.103940
11
-26.332620
21
212.103940
0
LINE
8
0
10
-26.332620
20
212.103940
11
-25.411872
21
211.857226
0
LINE
8
0
10
-25.411872
20
211.857226
11
-24.737837
21
211.183191
0
LINE
8
0
10
-24.737837
20
211.183191
11
-24.491123
21
210.262442
0
LINE
8
0
10
-24.491123
20
210.262442
11
-24.737837
21
209.341693
0
LINE
8
0
10
-24.737837
20
209.341693
11
-25.411872
21
208.667658
0
LINE
8
0
10
-25.411872
20
208.667658
11
-26.332620
21
208.420944
0
LINE
8
0
10
-26.332620
20
208.420944
11
-31.494513
21
208.420944
0
LINE
8
0
10
-31.494513
20
208.420944
11
-32.397027
21
207.119366
0
LINE
8
0
10
-32.397027
20
207.119366
11
-33.698611
21
206.216862
0
LINE
8
0
10
-33.698611
20
206.216862
11
-33.698611
21
201.054953
0
LINE
8
0
10
-33.698611
20
201.054953
11
-33.945325
21
200.134205
0
LINE
8
0
10
-33.945325
20
200.134205
11
-34.619360
21
199.460170
0
LINE
8
0
10
-34.619360
20
199.460170
11
-35.540109
21
199.213456
0
LINE
8
0
10
-35.540109
20
199.213456
11
-36.460858
21
199.460170
0
LINE
8
0
10
-36.460858
20
199.460170
11
-37.134893
21
200.134205
0
LINE
8
0
10
-37.134893
20
200.134205
11
-37.381607
21
201.054953
0
LINE
8
0
10
-37.381607
20
201.054953
11
-37.381607
21
206.216862
0
LINE
8
0
10
-37.381607
20
206.216862
11
-38.683192
21
207.119366
0
LINE
8
0
10
-38.683192
20
207.119366
11
-39.585707
21
208.420944
0
LINE
8
0
10
-39.585707
20
208.420944
11
-39.585707
21
208.420944
0
LINE
8
0
10
-320.694143
20
212.103940
11
-321.596658
21
213.405533
0
LINE
8
0
10
-321.596658
20
213.405533
11
-322.898252
21
214.308048
0
LINE
8
0
10
-322.898252
20
214.308048
11
-322.898252
21
219.469930
0
LINE
8
0
10
-322.898252
20
219.469930
11
-323.043250
21
220.186407
0
LINE
8
0
10
-323.043250
20
220.186407
11
-323.437963
21
220.771428
0
LINE
8
0
10
-323.437963
20
220.771428
11
-324.023195
21
221.165827
0
LINE
8
0
10
-324.023195
20
221.165827
11
-324.739750
21
221.310441
0
LINE
8
0
10
-324.739750
20
221.310441
11
-325.456305
21
221.165827
0
LINE
8
0
10
-325.456305
20
221.165827
11
-326.041536
21
220.771428
0
LINE
8
0
10
-326.041536
20
220.771428
11
-326.436249
21
220.186407
0
LINE
8
0
10
-326.436249
20
220.186407
11
-326.581247
21
219.469930
0
LINE
8
0
10
-326.581247
20
219.469930
11
-326.581247
21
214.308048
0
LINE
8
0
10
-326.581247
20
214.308048
11
-327.882841
21
213.405533
0
LINE
8
0
10
-327.882841
20
213.405533
11
-328.785356
21
212.103940
0
LINE
8
0
10
-328.785356
20
212.103940
11
-333.947238
21
212.103940
0
LINE
8
0
10
-333.947238
20
212.103940
11
-334.867987
21
211.857226
0
LINE
8
0
10
-334.867987
20
211.857226
11
-335.542022
21
211.183191
0
LINE
8
0
10
-335.542022
20
211.183191
11
-335.788736
21
210.262442
0
LINE
8
0
10
-335.788736
20
210.262442
11
-335.542022
21
209.341693
0
LINE
8
0
10
-335.542022
20
209.341693
11
-334.867987
21
208.667658
0
LINE
8
0
10
-334.867987
20
208.667658
11
-333.947238
21
208.420944
0
LINE
8
0
10
-333.947238
20
208.420944
11
-328.785356
21
208.420944
0
LINE
8
0
10
-328.785356
20
208.420944
11
-327.882838
21
207.119365
0
LINE
8
0
10
-327.882838
20
207.119365
11
-326.581247
21
206.216862
0
LINE
8
0
10
-326.581247
20
206.216862
11
-326.581247
21
201.054953
0
LINE
8
0
10
-326.581247
20
201.054953
11
-326.436249
21
200.338476
0
LINE
8
0
10
-326.436249
20
200.338476
11
-326.041536
21
199.753456
0
LINE
8
0
10
-326.041536
20
199.753456
11
-325.456305
21
199.359057
0
LINE
8
0
10
-325.456305
20
199.359057
11
-324.739750
21
199.214443
0
LINE
8
0
10
-324.739750
20
199.214443
11
-324.023195
21
199.359057
0
LINE
8
0
10
-324.023195
20
199.359057
11
-323.437963
21
199.753456
0
LINE
8
0
10
-323.437963
20
199.753456
11
-323.043250
21
200.338476
0
LINE
8
0
10
-323.043250
20
200.338476
11
-322.898252
21
201.054953
0
LINE
8
0
10
-322.898252
20
201.054953
11
-322.898252
21
206.216862
0
LINE
8
0
10
-322.898252
20
206.216862
11
-321.596662
21
207.119365
0
LINE
8
0
10
-321.596662
20
207.119365
11
-320.694143
21
208.420944
0
LINE
8
0
10
-320.694143
20
208.420944
11
-315.532261
21
208.420944
0
LINE
8
0
10
-315.532261
20
208.420944
11
-314.611513
21
208.667658
0
LINE
8
0
10
-314.611513
20
208.667658
11
-313.937478
21
209.341693
0
LINE
8
0
10
-313.937478
20
209.341693
11
-313.690764
21
210.262442
0
LINE
8
0
10
-313.690764
20
210.262442
11
-313.937478
21
211.183191
0
LINE
8
0
10
-313.937478
20
211.183191
11
-314.611513
21
211.857226
0
LINE
8
0
10
-314.611513
20
211.857226
11
-315.532261
21
212.103940
0
LINE
8
0
10
-315.532261
20
212.103940
11
-320.694143
21
212.103940
0
LINE
8
0
10
-84.240050
20
179.581106
11
-84.240050
21
194.581084
0
LINE
8
0
10
-84.240050
20
194.581084
11
-48.240096
21
194.581084
0
LINE
8
0
10
-48.240096
20
194.581084
11
-48.240096
21
179.581106
0
LINE
8
0
10
-48.240096
20
179.581106
11
-84.240050
21
179.581106
0
LINE
8
0
10
-84.240050
20
284.760971
11
-84.240050
21
299.760975
0
LINE
8
0
10
-84.240050
20
299.760975
11
-48.240096
21
299.760975
0
LINE
8
0
10
-48.240096
20
299.760975
11
-48.240096
21
284.760971
0
LINE
8
0
10
-48.240096
20
284.760971
11
-84.240050
21
284.760971
0
LINE
8
0
10
-201.639900
20
274.943990
11
-201.840862
21
275.693989
0
LINE
8
0
10
-201.840862
20
275.693989
11
-202.389900
21
276.243027
0
LINE
8
0
10
-202.389900
20
276.243027
11
-203.139899
21
276.443989
0
LINE
8
0
10
-203.139899
20
276.443989
11
-203.889899
21
276.243027
0
LINE
8
0
10
-203.889899
20
276.243027
11
-204.438937
21
275.693989
0
LINE
8
0
10
-204.438937
20
275.693989
11
-204.639898
21
274.943990
0
LINE
8
0
10
-204.639898
20
274.943990
11
-204.438937
21
274.193990
0
LINE
8
0
10
-204.438937
20
274.193990
11
-203.889899
21
273.644952
0
LINE
8
0
10
-203.889899
20
273.644952
11
-203.139899
21
273.443990
0
LINE
8
0
10
-203.139899
20
273.443990
11
-202.389900
21
273.644952
0
LINE
8
0
10
-202.389900
20
273.644952
11
-201.840862
21
274.193990
0
LINE
8
0
10
-201.840862
20
274.193990
11
-201.639900
21
274.943990
0
LINE
8
0
10
-201.639900
20
274.943990
11
-201.639900
21
274.943990
0
LINE
8
0
10
-372.539685
20
251.943525
11
-372.740647
21
252.693525
0
LINE
8
0
10
-372.740647
20
252.693525
11
-373.289685
21
253.242563
0
LINE
8
0
10
-373.289685
20
253.242563
11
-374.039685
21
253.443525
0
LINE
8
0
10
-374.039685
20
253.443525
11
-374.789686
21
253.242563
0
LINE
8
0
10
-374.789686
20
253.242563
11
-375.338724
21
252.693525
0
LINE
8
0
10
-375.338724
20
252.693525
11
-375.539686
21
251.943525
0
LINE
8
0
10
-375.539686
20
251.943525
11
-375.338724
21
251.193525
0
LINE
8
0
10
-375.338724
20
251.193525
11
-374.789686
21
250.644486
0
LINE
8
0
10
-374.789686
20
250.644486
11
-374.039685
21
250.443524
0
LINE
8
0
10
-374.039685
20
250.443524
11
-373.289685
21
250.644486
0
LINE
8
0
10
-373.289685
20
250.644486
11
-372.740647
21
251.193525
0
LINE
8
0
10
-372.740647
20
251.193525
11
-372.539685
21
251.943525
0
LINE
8
0
10
-372.539685
20
251.943525
11
-372.539685
21
251.943525
0
LINE
8
0
10
-372.539685
20
168.581121
11
-372.740647
21
169.331121
0
LINE
8
0
10
-372.740647
20
169.331121
11
-373.289685
21
169.880159
0
LINE
8
0
10
-373.289685
20
169.880159
11
-374.039685
21
170.081121
0
LINE
8
0
10
-374.039685
20
170.081121
11
-374.789686
21
169.880159
0
LINE
8
0
10
-374.789686
20
169.880159
11
-375.338724
21
169.331121
0
LINE
8
0
10
-375.338724
20
169.331121
11
-375.539686
21
168.581121
0
LINE
8
0
10
-375.539686
20
168.581121
11
-375.338724
21
167.831121
0
LINE
8
0
10
-375.338724
20
167.831121
11
-374.789686
21
167.282082
0
LINE
8
0
10
-374.789686
20
167.282082
11
-374.039685
21
167.081120
0
LINE
8
0
10
-374.039685
20
167.081120
11
-373.289685
21
167.282082
0
LINE
8
0
10
-373.289685
20
167.282082
11
-372.740647
21
167.831121
0
LINE
8
0
10
-372.740647
20
167.831121
11
-372.539685
21
168.581121
0
LINE
8
0
10
-372.539685
20
168.581121
11
-372.539685
21
168.581121
0
LINE
8
0
10
-201.639900
20
358.306393
11
-201.840862
21
359.056393
0
LINE
8
0
10
-201.840862
20
359.056393
11
-202.389900
21
359.605431
0
LINE
8
0
10
-202.389900
20
359.605431
11
-203.139899
21
359.806393
0
LINE
8
0
10
-203.139899
20
359.806393
11
-203.889899
21
359.605431
0
LINE
8
0
10
-203.889899
20
359.605431
11
-204.438937
21
359.056393
0
LINE
8
0
10
-204.438937
20
359.056393
11
-204.639898
21
358.306393
0
LINE
8
0
10
-204.639898
20
358.306393
11
-204.438937
21
357.556394
0
LINE
8
0
10
-204.438937
20
357.556394
11
-203.889899
21
357.007356
0
LINE
8
0
10
-203.889899
20
357.007356
11
-203.139899
21
356.806394
0
LINE
8
0
10
-203.139899
20
356.806394
11
-202.389900
21
357.007356
0
LINE
8
0
10
-202.389900
20
357.007356
11
-201.840862
21
357.556394
0
LINE
8
0
10
-201.840862
20
357.556394
11
-201.639900
21
358.306393
0
LINE
8
0
10
-201.639900
20
358.306393
11
-201.639900
21
358.306393
0
LINE
8
0
10
-156.639957
20
358.306393
11
-156.758148
21
358.889910
0
LINE
8
0
10
-156.758148
20
358.889910
11
-157.079682
21
359.366347
0
LINE
8
0
10
-157.079682
20
359.366347
11
-157.556352
21
359.687534
0
LINE
8
0
10
-157.556352
20
359.687534
11
-158.139955
21
359.805300
0
LINE
8
0
10
-158.139955
20
359.805300
11
-158.723557
21
359.687534
0
LINE
8
0
10
-158.723557
20
359.687534
11
-159.200228
21
359.366347
0
LINE
8
0
10
-159.200228
20
359.366347
11
-159.521761
21
358.889910
0
LINE
8
0
10
-159.521761
20
358.889910
11
-159.639952
21
358.306393
0
LINE
8
0
10
-159.639952
20
358.306393
11
-159.521761
21
357.722877
0
LINE
8
0
10
-159.521761
20
357.722877
11
-159.200228
21
357.246440
0
LINE
8
0
10
-159.200228
20
357.246440
11
-158.723557
21
356.925253
0
LINE
8
0
10
-158.723557
20
356.925253
11
-158.139955
21
356.807486
0
LINE
8
0
10
-158.139955
20
356.807486
11
-157.556352
21
356.925253
0
LINE
8
0
10
-157.556352
20
356.925253
11
-157.079682
21
357.246440
0
LINE
8
0
10
-157.079682
20
357.246440
11
-156.758148
21
357.722877
0
LINE
8
0
10
-156.758148
20
357.722877
11
-156.639957
21
358.306393
0
LINE
8
0
10
-156.639957
20
358.306393
11
-156.639957
21
358.306393
0
LINE
8
0
10
-201.639900
20
168.581121
11
-201.840862
21
169.331120
0
LINE
8
0
10
-201.840862
20
169.331120
11
-202.389900
21
169.880158
0
LINE
8
0
10
-202.389900
20
169.880158
11
-203.139899
21
170.081120
0
LINE
8
0
10
-203.139899
20
170.081120
11
-203.889899
21
169.880158
0
LINE
8
0
10
-203.889899
20
169.880158
11
-204.438937
21
169.331120
0
LINE
8
0
10
-204.438937
20
169.331120
11
-204.639898
21
168.581121
0
LINE
8
0
10
-204.639898
20
168.581121
11
-204.438937
21
167.831121
0
LINE
8
0
10
-204.438937
20
167.831121
11
-203.889899
21
167.282084
0
LINE
8
0
10
-203.889899
20
167.282084
11
-203.139899
21
167.081122
0
LINE
8
0
10
-203.139899
20
167.081122
11
-202.389900
21
167.282084
0
LINE
8
0
10
-202.389900
20
167.282084
11
-201.840862
21
167.831121
0
LINE
8
0
10
-201.840862
20
167.831121
11
-201.639900
21
168.581121
0
LINE
8
0
10
-201.639900
20
168.581121
11
-201.639900
21
168.581121
0
LINE
8
0
10
-156.639957
20
251.943525
11
-156.758148
21
252.527041
0
LINE
8
0
10
-156.758148
20
252.527041
11
-157.079682
21
253.003478
0
LINE
8
0
10
-157.079682
20
253.003478
11
-157.556352
21
253.324665
0
LINE
8
0
10
-157.556352
20
253.324665
11
-158.139955
21
253.442432
0
LINE
8
0
10
-158.139955
20
253.442432
11
-158.723557
21
253.324665
0
LINE
8
0
10
-158.723557
20
253.324665
11
-159.200228
21
253.003478
0
LINE
8
0
10
-159.200228
20
253.003478
11
-159.521761
21
252.527041
0
LINE
8
0
10
-159.521761
20
252.527041
11
-159.639952
21
251.943525
0
LINE
8
0
10
-159.639952
20
251.943525
11
-159.521761
21
251.360008
0
LINE
8
0
10
-159.521761
20
251.360008
11
-159.200228
21
250.883571
0
LINE
8
0
10
-159.200228
20
250.883571
11
-158.723557
21
250.562385
0
LINE
8
0
10
-158.723557
20
250.562385
11
-158.139955
21
250.444618
0
LINE
8
0
10
-158.139955
20
250.444618
11
-157.556352
21
250.562385
0
LINE
8
0
10
-157.556352
20
250.562385
11
-157.079682
21
250.883571
0
LINE
8
0
10
-157.079682
20
250.883571
11
-156.758148
21
251.360008
0
LINE
8
0
10
-156.758148
20
251.360008
11
-156.639957
21
251.943525
0
LINE
8
0
10
-156.639957
20
251.943525
11
-156.639957
21
251.943525
0
LINE
8
0
10
-372.539685
20
358.306393
11
-372.740647
21
359.056394
0
LINE
8
0
10
-372.740647
20
359.056394
11
-373.289685
21
359.605432
0
LINE
8
0
10
-373.289685
20
359.605432
11
-374.039685
21
359.806394
0
LINE
8
0
10
-374.039685
20
359.806394
11
-374.789686
21
359.605432
0
LINE
8
0
10
-374.789686
20
359.605432
11
-375.338724
21
359.056394
0
LINE
8
0
10
-375.338724
20
359.056394
11
-375.539686
21
358.306393
0
LINE
8
0
10
-375.539686
20
358.306393
11
-375.338724
21
357.556393
0
LINE
8
0
10
-375.338724
20
357.556393
11
-374.789686
21
357.007355
0
LINE
8
0
10
-374.789686
20
357.007355
11
-374.039685
21
356.806393
0
LINE
8
0
10
-374.039685
20
356.806393
11
-373.289685
21
357.007355
0
LINE
8
0
10
-373.289685
20
357.007355
11
-372.740647
21
357.556393
0
LINE
8
0
10
-372.740647
20
357.556393
11
-372.539685
21
358.306393
0
LINE
8
0
10
-372.539685
20
358.306393
11
-372.539685
21
358.306393
0
LINE
8
0
10
-372.539685
20
274.943990
11
-372.740647
21
275.693990
0
LINE
8
0
10
-372.740647
20
275.693990
11
-373.289685
21
276.243028
0
LINE
8
0
10
-373.289685
20
276.243028
11
-374.039685
21
276.443990
0
LINE
8
0
10
-374.039685
20
276.443990
11
-374.789686
21
276.243028
0
LINE
8
0
10
-374.789686
20
276.243028
11
-375.338724
21
275.693990
0
LINE
8
0
10
-375.338724
20
275.693990
11
-375.539686
21
274.943990
0
LINE
8
0
10
-375.539686
20
274.943990
11
-375.338724
21
274.193989
0
LINE
8
0
10
-375.338724
20
274.193989
11
-374.789686
21
273.644951
0
LINE
8
0
10
-374.789686
20
273.644951
11
-374.039685
21
273.443989
0
LINE
8
0
10
-374.039685
20
273.443989
11
-373.289685
21
273.644951
0
LINE
8
0
10
-373.289685
20
273.644951
11
-372.740647
21
274.193989
0
LINE
8
0
10
-372.740647
20
274.193989
11
-372.539685
21
274.943990
0
LINE
8
0
10
-372.539685
20
274.943990
11
-372.539685
21
274.943990
0
LINE
8
0
10
-201.639900
20
251.943525
11
-201.840862
21
252.693524
0
LINE
8
0
10
-201.840862
20
252.693524
11
-202.389900
21
253.242562
0
LINE
8
0
10
-202.389900
20
253.242562
11
-203.139899
21
253.443524
0
LINE
8
0
10
-203.139899
20
253.443524
11
-203.889899
21
253.242562
0
LINE
8
0
10
-203.889899
20
253.242562
11
-204.438937
21
252.693524
0
LINE
8
0
10
-204.438937
20
252.693524
11
-204.639898
21
251.943525
0
LINE
8
0
10
-204.639898
20
251.943525
11
-204.438937
21
251.193525
0
LINE
8
0
10
-204.438937
20
251.193525
11
-203.889899
21
250.644487
0
LINE
8
0
10
-203.889899
20
250.644487
11
-203.139899
21
250.443526
0
LINE
8
0
10
-203.139899
20
250.443526
11
-202.389900
21
250.644487
0
LINE
8
0
10
-202.389900
20
250.644487
11
-201.840862
21
251.193525
0
LINE
8
0
10
-201.840862
20
251.193525
11
-201.639900
21
251.943525
0
LINE
8
0
10
-201.639900
20
251.943525
11
-201.639900
21
251.943525
0
LINE
8
0
10
14.259827
20
251.943525
11
14.058865
21
252.693524
0
LINE
8
0
10
14.058865
20
252.693524
11
13.509828
21
253.242561
0
LINE
8
0
10
13.509828
20
253.242561
11
12.759829
21
253.443523
0
LINE
8
0
10
12.759829
20
253.443523
11
12.009830
21
253.242561
0
LINE
8
0
10
12.009830
20
253.242561
11
11.460793
21
252.693524
0
LINE
8
0
10
11.460793
20
252.693524
11
11.259831
21
251.943525
0
LINE
8
0
10
11.259831
20
251.943525
11
11.460793
21
251.193526
0
LINE
8
0
10
11.460793
20
251.193526
11
12.009830
21
250.644488
0
LINE
8
0
10
12.009830
20
250.644488
11
12.759829
21
250.443527
0
LINE
8
0
10
12.759829
20
250.443527
11
13.509828
21
250.644488
0
LINE
8
0
10
13.509828
20
250.644488
11
14.058865
21
251.193526
0
LINE
8
0
10
14.058865
20
251.193526
11
14.259827
21
251.943525
0
LINE
8
0
10
14.259827
20
251.943525
11
14.259827
21
251.943525
0
LINE
8
0
10
14.259827
20
168.581121
11
14.058865
21
169.331120
0
LINE
8
0
10
14.058865
20
169.331120
11
13.509828
21
169.880157
0
LINE
8
0
10
13.509828
20
169.880157
11
12.759829
21
170.081119
0
LINE
8
0
10
12.759829
20
170.081119
11
12.009830
21
169.880157
0
LINE
8
0
10
12.009830
20
169.880157
11
11.460793
21
169.331120
0
LINE
8
0
10
11.460793
20
169.331120
11
11.259831
21
168.581121
0
LINE
8
0
10
11.259831
20
168.581121
11
11.460793
21
167.831122
0
LINE
8
0
10
11.460793
20
167.831122
11
12.009830
21
167.282084
0
LINE
8
0
10
12.009830
20
167.282084
11
12.759829
21
167.081123
0
LINE
8
0
10
12.759829
20
167.081123
11
13.509828
21
167.282084
0
LINE
8
0
10
13.509828
20
167.282084
11
14.058865
21
167.831122
0
LINE
8
0
10
14.058865
20
167.831122
11
14.259827
21
168.581121
0
LINE
8
0
10
14.259827
20
168.581121
11
14.259827
21
168.581121
0
LINE
8
0
10
14.259827
20
274.943990
11
14.058865
21
275.693989
0
LINE
8
0
10
14.058865
20
275.693989
11
13.509828
21
276.243026
0
LINE
8
0
10
13.509828
20
276.243026
11
12.759829
21
276.443988
0
LINE
8
0
10
12.759829
20
276.443988
11
12.009830
21
276.243026
0
LINE
8
0
10
12.009830
20
276.243026
11
11.460793
21
275.693989
0
LINE
8
0
10
11.460793
20
275.693989
11
11.259831
21
274.943990
0
LINE
8
0
10
11.259831
20
274.943990
11
11.460793
21
274.193991
0
LINE
8
0
10
11.460793
20
274.193991
11
12.009830
21
273.644953
0
LINE
8
0
10
12.009830
20
273.644953
11
12.759829
21
273.443992
0
LINE
8
0
10
12.759829
20
273.443992
11
13.509828
21
273.644953
0
LINE
8
0
10
13.509828
20
273.644953
11
14.058865
21
274.193991
0
LINE
8
0
10
14.058865
20
274.193991
11
14.259827
21
274.943990
0
LINE
8
0
10
14.259827
20
274.943990
11
14.259827
21
274.943990
0
LINE
8
0
10
-156.639957
20
168.581121
11
-156.758148
21
169.164637
0
LINE
8
0
10
-156.758148
20
169.164637
11
-157.079682
21
169.641074
0
LINE
8
0
10
-157.079682
20
169.641074
11
-157.556352
21
169.962261
0
LINE
8
0
10
-157.556352
20
169.962261
11
-158.139955
21
170.080028
0
LINE
8
0
10
-158.139955
20
170.080028
11
-158.723557
21
169.962261
0
LINE
8
0
10
-158.723557
20
169.962261
11
-159.200228
21
169.641074
0
LINE
8
0
10
-159.200228
20
169.641074
11
-159.521761
21
169.164637
0
LINE
8
0
10
-159.521761
20
169.164637
11
-159.639952
21
168.581121
0
LINE
8
0
10
-159.639952
20
168.581121
11
-159.521761
21
167.997604
0
LINE
8
0
10
-159.521761
20
167.997604
11
-159.200228
21
167.521167
0
LINE
8
0
10
-159.200228
20
167.521167
11
-158.723557
21
167.199981
0
LINE
8
0
10
-158.723557
20
167.199981
11
-158.139955
21
167.082214
0
LINE
8
0
10
-158.139955
20
167.082214
11
-157.556352
21
167.199981
0
LINE
8
0
10
-157.556352
20
167.199981
11
-157.079682
21
167.521167
0
LINE
8
0
10
-157.079682
20
167.521167
11
-156.758148
21
167.997604
0
LINE
8
0
10
-156.758148
20
167.997604
11
-156.639957
21
168.581121
0
LINE
8
0
10
-156.639957
20
168.581121
11
-156.639957
21
168.581121
0
LINE
8
0
10
-156.639957
20
274.943990
11
-156.758148
21
275.527506
0
LINE
8
0
10
-156.758148
20
275.527506
11
-157.079682
21
276.003943
0
LINE
8
0
10
-157.079682
20
276.003943
11
-157.556352
21
276.325130
0
LINE
8
0
10
-157.556352
20
276.325130
11
-158.139955
21
276.442897
0
LINE
8
0
10
-158.139955
20
276.442897
11
-158.723557
21
276.325130
0
LINE
8
0
10
-158.723557
20
276.325130
11
-159.200228
21
276.003943
0
LINE
8
0
10
-159.200228
20
276.003943
11
-159.521761
21
275.527506
0
LINE
8
0
10
-159.521761
20
275.527506
11
-159.639952
21
274.943990
0
LINE
8
0
10
-159.639952
20
274.943990
11
-159.521761
21
274.360473
0
LINE
8
0
10
-159.521761
20
274.360473
11
-159.200228
21
273.884036
0
LINE
8
0
10
-159.200228
20
273.884036
11
-158.723557
21
273.562849
0
LINE
8
0
10
-158.723557
20
273.562849
11
-158.139955
21
273.445083
0
LINE
8
0
10
-158.139955
20
273.445083
11
-157.556352
21
273.562849
0
LINE
8
0
10
-157.556352
20
273.562849
11
-157.079682
21
273.884036
0
LINE
8
0
10
-157.079682
20
273.884036
11
-156.758148
21
274.360473
0
LINE
8
0
10
-156.758148
20
274.360473
11
-156.639957
21
274.943990
0
LINE
8
0
10
-156.639957
20
274.943990
11
-156.639957
21
274.943990
0
LINE
8
0
10
14.259827
20
358.306393
11
14.058865
21
359.056392
0
LINE
8
0
10
14.058865
20
359.056392
11
13.509828
21
359.605430
0
LINE
8
0
10
13.509828
20
359.605430
11
12.759829
21
359.806391
0
LINE
8
0
10
12.759829
20
359.806391
11
12.009830
21
359.605430
0
LINE
8
0
10
12.009830
20
359.605430
11
11.460793
21
359.056392
0
LINE
8
0
10
11.460793
20
359.056392
11
11.259831
21
358.306393
0
LINE
8
0
10
11.259831
20
358.306393
11
11.460793
21
357.556394
0
LINE
8
0
10
11.460793
20
357.556394
11
12.009830
21
357.007357
0
LINE
8
0
10
12.009830
20
357.007357
11
12.759829
21
356.806395
0
LINE
8
0
10
12.759829
20
356.806395
11
13.509828
21
357.007357
0
LINE
8
0
10
13.509828
20
357.007357
11
14.058865
21
357.556394
0
LINE
8
0
10
14.058865
20
357.556394
11
14.259827
21
358.306393
0
LINE
8
0
10
14.259827
20
358.306393
11
14.259827
21
358.306393
0
LINE
8
0
10
-397.039780
20
351.306586
11
-397.039780
21
273.942516
0
LINE
8
0
10
-397.039780
20
273.942516
11
-402.439919
21
273.942516
0
LINE
8
0
10
-402.439919
20
273.942516
11
-402.439919
21
253.942687
0
LINE
8
0
10
-402.439919
20
253.942687
11
-397.039780
21
253.942687
0
LINE
8
0
10
-397.039780
20
253.942687
11
-397.039780
21
247.431300
0
LINE
8
0
10
-397.039780
20
247.431300
11
-397.039780
21
176.581264
0
LINE
8
0
10
-397.039780
20
176.581264
11
-402.439919
21
176.581264
0
LINE
8
0
10
-402.439919
20
176.581264
11
-402.439919
21
156.581435
0
LINE
8
0
10
-402.439919
20
156.581435
11
-397.039780
21
156.581435
0
LINE
8
0
10
-397.039780
20
156.581435
11
-397.039780
21
151.181296
0
LINE
8
0
10
-397.039780
20
151.181296
11
-377.039951
21
151.181296
0
LINE
8
0
10
-377.039951
20
151.181296
11
-377.039951
21
156.581435
0
LINE
8
0
10
-377.039951
20
156.581435
11
-190.139842
21
156.581435
0
LINE
8
0
10
-190.139842
20
156.581435
11
-190.139842
21
151.181296
0
LINE
8
0
10
-190.139842
20
151.181296
11
-170.140014
21
151.181296
0
LINE
8
0
10
-170.140014
20
151.181296
11
-170.140014
21
156.581435
0
LINE
8
0
10
-170.140014
20
156.581435
11
16.759830
21
156.581435
0
LINE
8
0
10
16.759830
20
156.581435
11
16.759830
21
151.181296
0
LINE
8
0
10
16.759830
20
151.181296
11
36.759799
21
151.181296
0
LINE
8
0
10
36.759799
20
151.181296
11
36.759799
21
156.581435
0
LINE
8
0
10
36.759799
20
156.581435
11
42.159798
21
156.581435
0
LINE
8
0
10
42.159798
20
156.581435
11
42.159798
21
176.581264
0
LINE
8
0
10
42.159798
20
176.581264
11
36.759799
21
176.581264
0
LINE
8
0
10
36.759799
20
176.581264
11
36.759799
21
253.942687
0
LINE
8
0
10
36.759799
20
253.942687
11
42.159798
21
253.942687
0
LINE
8
0
10
42.159798
20
253.942687
11
42.159798
21
273.942516
0
LINE
8
0
10
42.159798
20
273.942516
11
36.759799
21
273.942516
0
LINE
8
0
10
36.759799
20
273.942516
11
36.759799
21
351.306586
0
LINE
8
0
10
36.759799
20
351.306586
11
42.159798
21
351.306586
0
LINE
8
0
10
42.159798
20
351.306586
11
42.159798
21
371.306415
0
LINE
8
0
10
42.159798
20
371.306415
11
36.759799
21
371.306415
0
LINE
8
0
10
36.759799
20
371.306415
11
36.759799
21
376.706554
0
LINE
8
0
10
36.759799
20
376.706554
11
16.759830
21
376.706554
0
LINE
8
0
10
16.759830
20
376.706554
11
16.759830
21
371.306415
0
LINE
8
0
10
16.759830
20
371.306415
11
-170.140014
21
371.306415
0
LINE
8
0
10
-170.140014
20
371.306415
11
-170.140014
21
376.706554
0
LINE
8
0
10
-170.140014
20
376.706554
11
-190.139842
21
376.706554
0
LINE
8
0
10
-190.139842
20
376.706554
11
-190.139842
21
371.306415
0
LINE
8
0
10
-190.139842
20
371.306415
11
-377.039951
21
371.306415
0
LINE
8
0
10
-377.039951
20
371.306415
11
-377.039951
21
376.706554
0
LINE
8
0
10
-377.039951
20
376.706554
11
-397.039780
21
376.706554
0
LINE
8
0
10
-397.039780
20
376.706554
11
-397.039780
21
371.306415
0
LINE
8
0
10
-397.039780
20
371.306415
11
-402.439919
21
371.306415
0
LINE
8
0
10
-402.439919
20
371.306415
11
-402.439919
21
351.306586
0
LINE
8
0
10
-402.439919
20
351.306586
11
-397.039780
21
351.306586
0
LINE
8
0
10
471.403025
20
251.884525
11
471.299179
21
252.667277
0
LINE
8
0
10
471.299179
20
252.667277
11
471.001102
21
253.384523
0
LINE
8
0
10
471.001102
20
253.384523
11
470.528987
21
254.001288
0
LINE
8
0
10
470.528987
20
254.001288
11
469.903027
21
254.482598
0
LINE
8
0
10
469.903027
20
254.482598
11
469.173221
21
254.784040
0
LINE
8
0
10
469.173221
20
254.784040
11
468.403029
21
254.884521
0
LINE
8
0
10
468.403029
20
254.884521
11
467.632837
21
254.784040
0
LINE
8
0
10
467.632837
20
254.784040
11
466.903031
21
254.482598
0
LINE
8
0
10
466.903031
20
254.482598
11
466.277071
21
254.001288
0
LINE
8
0
10
466.277071
20
254.001288
11
465.804956
21
253.384523
0
LINE
8
0
10
465.804956
20
253.384523
11
465.506879
21
252.667277
0
LINE
8
0
10
465.506879
20
252.667277
11
465.403033
21
251.884525
0
LINE
8
0
10
465.403033
20
251.884525
11
465.506879
21
251.101773
0
LINE
8
0
10
465.506879
20
251.101773
11
465.804956
21
250.384527
0
LINE
8
0
10
465.804956
20
250.384527
11
466.277071
21
249.767761
0
LINE
8
0
10
466.277071
20
249.767761
11
466.903031
21
249.286452
0
LINE
8
0
10
466.903031
20
249.286452
11
467.632837
21
248.985009
0
LINE
8
0
10
467.632837
20
248.985009
11
468.403029
21
248.884528
0
LINE
8
0
10
468.403029
20
248.884528
11
469.173221
21
248.985009
0
LINE
8
0
10
469.173221
20
248.985009
11
469.903027
21
249.286452
0
LINE
8
0
10
469.903027
20
249.286452
11
470.528987
21
249.767761
0
LINE
8
0
10
470.528987
20
249.767761
11
471.001102
21
250.384527
0
LINE
8
0
10
471.001102
20
250.384527
11
471.299179
21
251.101773
0
LINE
8
0
10
471.299179
20
251.101773
11
471.403025
21
251.884525
0
LINE
8
0
10
471.403025
20
251.884525
11
471.403025
21
251.884525
0
LINE
8
0
10
84.603515
20
168.522121
11
84.367760
21
169.689856
0
LINE
8
0
10
84.367760
20
169.689856
11
83.724835
21
170.643442
0
LINE
8
0
10
83.724835
20
170.643442
11
82.771250
21
171.286366
0
LINE
8
0
10
82.771250
20
171.286366
11
81.603515
21
171.522121
0
LINE
8
0
10
81.603515
20
171.522121
11
80.435779
21
171.286366
0
LINE
8
0
10
80.435779
20
171.286366
11
79.482194
21
170.643442
0
LINE
8
0
10
79.482194
20
170.643442
11
78.839269
21
169.689856
0
LINE
8
0
10
78.839269
20
169.689856
11
78.603514
21
168.522121
0
LINE
8
0
10
78.603514
20
168.522121
11
78.839269
21
167.354385
0
LINE
8
0
10
78.839269
20
167.354385
11
79.482194
21
166.400800
0
LINE
8
0
10
79.482194
20
166.400800
11
80.435779
21
165.757875
0
LINE
8
0
10
80.435779
20
165.757875
11
81.603515
21
165.522120
0
LINE
8
0
10
81.603515
20
165.522120
11
82.771250
21
165.757875
0
LINE
8
0
10
82.771250
20
165.757875
11
83.724835
21
166.400800
0
LINE
8
0
10
83.724835
20
166.400800
11
84.367760
21
167.354385
0
LINE
8
0
10
84.367760
20
167.354385
11
84.603515
21
168.522121
0
LINE
8
0
10
84.603515
20
168.522121
11
84.603515
21
168.522121
0
LINE
8
0
10
300.503241
20
358.247393
11
300.399394
21
359.030146
0
LINE
8
0
10
300.399394
20
359.030146
11
300.101317
21
359.747392
0
LINE
8
0
10
300.101317
20
359.747392
11
299.629202
21
360.364157
0
LINE
8
0
10
299.629202
20
360.364157
11
299.003242
21
360.845467
0
LINE
8
0
10
299.003242
20
360.845467
11
298.273436
21
361.146909
0
LINE
8
0
10
298.273436
20
361.146909
11
297.503244
21
361.247390
0
LINE
8
0
10
297.503244
20
361.247390
11
296.733052
21
361.146909
0
LINE
8
0
10
296.733052
20
361.146909
11
296.003246
21
360.845467
0
LINE
8
0
10
296.003246
20
360.845467
11
295.377285
21
360.364157
0
LINE
8
0
10
295.377285
20
360.364157
11
294.905170
21
359.747392
0
LINE
8
0
10
294.905170
20
359.747392
11
294.607093
21
359.030146
0
LINE
8
0
10
294.607093
20
359.030146
11
294.503247
21
358.247393
0
LINE
8
0
10
294.503247
20
358.247393
11
294.607093
21
357.464641
0
LINE
8
0
10
294.607093
20
357.464641
11
294.905170
21
356.747395
0
LINE
8
0
10
294.905170
20
356.747395
11
295.377285
21
356.130630
0
LINE
8
0
10
295.377285
20
356.130630
11
296.003246
21
355.649320
0
LINE
8
0
10
296.003246
20
355.649320
11
296.733052
21
355.347877
0
LINE
8
0
10
296.733052
20
355.347877
11
297.503244
21
355.247397
0
LINE
8
0
10
297.503244
20
355.247397
11
298.273436
21
355.347877
0
LINE
8
0
10
298.273436
20
355.347877
11
299.003242
21
355.649320
0
LINE
8
0
10
299.003242
20
355.649320
11
299.629202
21
356.130630
0
LINE
8
0
10
299.629202
20
356.130630
11
300.101317
21
356.747395
0
LINE
8
0
10
300.101317
20
356.747395
11
300.399394
21
357.464641
0
LINE
8
0
10
300.399394
20
357.464641
11
300.503241
21
358.247393
0
LINE
8
0
10
300.503241
20
358.247393
11
300.503241
21
358.247393
0
LINE
8
0
10
255.503298
20
251.884525
11
255.399451
21
252.667277
0
LINE
8
0
10
255.399451
20
252.667277
11
255.101374
21
253.384523
0
LINE
8
0
10
255.101374
20
253.384523
11
254.629259
21
254.001289
0
LINE
8
0
10
254.629259
20
254.001289
11
254.003299
21
254.482598
0
LINE
8
0
10
254.003299
20
254.482598
11
253.273493
21
254.784041
0
LINE
8
0
10
253.273493
20
254.784041
11
252.503301
21
254.884522
0
LINE
8
0
10
252.503301
20
254.884522
11
251.733109
21
254.784041
0
LINE
8
0
10
251.733109
20
254.784041
11
251.003302
21
254.482598
0
LINE
8
0
10
251.003302
20
254.482598
11
250.377342
21
254.001289
0
LINE
8
0
10
250.377342
20
254.001289
11
249.905227
21
253.384523
0
LINE
8
0
10
249.905227
20
253.384523
11
249.607150
21
252.667277
0
LINE
8
0
10
249.607150
20
252.667277
11
249.503304
21
251.884525
0
LINE
8
0
10
249.503304
20
251.884525
11
249.607150
21
251.101773
0
LINE
8
0
10
249.607150
20
251.101773
11
249.905227
21
250.384526
0
LINE
8
0
10
249.905227
20
250.384526
11
250.377342
21
249.767761
0
LINE
8
0
10
250.377342
20
249.767761
11
251.003302
21
249.286451
0
LINE
8
0
10
251.003302
20
249.286451
11
251.733109
21
248.985009
0
LINE
8
0
10
251.733109
20
248.985009
11
252.503301
21
248.884528
0
LINE
8
0
10
252.503301
20
248.884528
11
253.273493
21
248.985009
0
LINE
8
0
10
253.273493
20
248.985009
11
254.003299
21
249.286451
0
LINE
8
0
10
254.003299
20
249.286451
11
254.629259
21
249.767761
0
LINE
8
0
10
254.629259
20
249.767761
11
255.101374
21
250.384526
0
LINE
8
0
10
255.101374
20
250.384526
11
255.399451
21
251.101773
0
LINE
8
0
10
255.399451
20
251.101773
11
255.503298
21
251.884525
0
LINE
8
0
10
255.503298
20
251.884525
11
255.503298
21
251.884525
0
LINE
8
0
10
300.503241
20
251.884525
11
300.399394
21
252.667277
0
LINE
8
0
10
300.399394
20
252.667277
11
300.101317
21
253.384523
0
LINE
8
0
10
300.101317
20
253.384523
11
299.629202
21
254.001289
0
LINE
8
0
10
299.629202
20
254.001289
11
299.003242
21
254.482598
0
LINE
8
0
10
299.003242
20
254.482598
11
298.273436
21
254.784041
0
LINE
8
0
10
298.273436
20
254.784041
11
297.503244
21
254.884522
0
LINE
8
0
10
297.503244
20
254.884522
11
296.733052
21
254.784041
0
LINE
8
0
10
296.733052
20
254.784041
11
296.003246
21
254.482598
0
LINE
8
0
10
296.003246
20
254.482598
11
295.377285
21
254.001289
0
LINE
8
0
10
295.377285
20
254.001289
11
294.905170
21
253.384523
0
LINE
8
0
10
294.905170
20
253.384523
11
294.607093
21
252.667277
0
LINE
8
0
10
294.607093
20
252.667277
11
294.503247
21
251.884525
0
LINE
8
0
10
294.503247
20
251.884525
11
294.607093
21
251.101773
0
LINE
8
0
10
294.607093
20
251.101773
11
294.905170
21
250.384526
0
LINE
8
0
10
294.905170
20
250.384526
11
295.377285
21
249.767761
0
LINE
8
0
10
295.377285
20
249.767761
11
296.003246
21
249.286451
0
LINE
8
0
10
296.003246
20
249.286451
11
296.733052
21
248.985009
0
LINE
8
0
10
296.733052
20
248.985009
11
297.503244
21
248.884528
0
LINE
8
0
10
297.503244
20
248.884528
11
298.273436
21
248.985009
0
LINE
8
0
10
298.273436
20
248.985009
11
299.003242
21
249.286451
0
LINE
8
0
10
299.003242
20
249.286451
11
299.629202
21
249.767761
0
LINE
8
0
10
299.629202
20
249.767761
11
300.101317
21
250.384526
0
LINE
8
0
10
300.101317
20
250.384526
11
300.399394
21
251.101773
0
LINE
8
0
10
300.399394
20
251.101773
11
300.503241
21
251.884525
0
LINE
8
0
10
300.503241
20
251.884525
11
300.503241
21
251.884525
0
LINE
8
0
10
84.603515
20
358.247393
11
84.367760
21
359.415129
0
LINE
8
0
10
84.367760
20
359.415129
11
83.724835
21
360.368714
0
LINE
8
0
10
83.724835
20
360.368714
11
82.771250
21
361.011639
0
LINE
8
0
10
82.771250
20
361.011639
11
81.603515
21
361.247394
0
LINE
8
0
10
81.603515
20
361.247394
11
80.435779
21
361.011639
0
LINE
8
0
10
80.435779
20
361.011639
11
79.482194
21
360.368714
0
LINE
8
0
10
79.482194
20
360.368714
11
78.839269
21
359.415129
0
LINE
8
0
10
78.839269
20
359.415129
11
78.603514
21
358.247393
0
LINE
8
0
10
78.603514
20
358.247393
11
78.839269
21
357.079658
0
LINE
8
0
10
78.839269
20
357.079658
11
79.482194
21
356.126073
0
LINE
8
0
10
79.482194
20
356.126073
11
80.435779
21
355.483148
0
LINE
8
0
10
80.435779
20
355.483148
11
81.603515
21
355.247393
0
LINE
8
0
10
81.603515
20
355.247393
11
82.771250
21
355.483148
0
LINE
8
0
10
82.771250
20
355.483148
11
83.724835
21
356.126073
0
LINE
8
0
10
83.724835
20
356.126073
11
84.367760
21
357.079658
0
LINE
8
0
10
84.367760
20
357.079658
11
84.603515
21
358.247393
0
LINE
8
0
10
84.603515
20
358.247393
11
84.603515
21
358.247393
0
LINE
8
0
10
255.503298
20
168.522121
11
255.399451
21
169.304873
0
LINE
8
0
10
255.399451
20
169.304873
11
255.101374
21
170.022119
0
LINE
8
0
10
255.101374
20
170.022119
11
254.629259
21
170.638885
0
LINE
8
0
10
254.629259
20
170.638885
11
254.003299
21
171.120194
0
LINE
8
0
10
254.003299
20
171.120194
11
253.273493
21
171.421637
0
LINE
8
0
10
253.273493
20
171.421637
11
252.503301
21
171.522118
0
LINE
8
0
10
252.503301
20
171.522118
11
251.733109
21
171.421637
0
LINE
8
0
10
251.733109
20
171.421637
11
251.003302
21
171.120194
0
LINE
8
0
10
251.003302
20
171.120194
11
250.377342
21
170.638885
0
LINE
8
0
10
250.377342
20
170.638885
11
249.905227
21
170.022119
0
LINE
8
0
10
249.905227
20
170.022119
11
249.607150
21
169.304873
0
LINE
8
0
10
249.607150
20
169.304873
11
249.503304
21
168.522121
0
LINE
8
0
10
249.503304
20
168.522121
11
249.607150
21
167.739369
0
LINE
8
0
10
249.607150
20
167.739369
11
249.905227
21
167.022122
0
LINE
8
0
10
249.905227
20
167.022122
11
250.377342
21
166.405357
0
LINE
8
0
10
250.377342
20
166.405357
11
251.003302
21
165.924047
0
LINE
8
0
10
251.003302
20
165.924047
11
251.733109
21
165.622605
0
LINE
8
0
10
251.733109
20
165.622605
11
252.503301
21
165.522124
0
LINE
8
0
10
252.503301
20
165.522124
11
253.273493
21
165.622605
0
LINE
8
0
10
253.273493
20
165.622605
11
254.003299
21
165.924047
0
LINE
8
0
10
254.003299
20
165.924047
11
254.629259
21
166.405357
0
LINE
8
0
10
254.629259
20
166.405357
11
255.101374
21
167.022122
0
LINE
8
0
10
255.101374
20
167.022122
11
255.399451
21
167.739369
0
LINE
8
0
10
255.399451
20
167.739369
11
255.503298
21
168.522121
0
LINE
8
0
10
255.503298
20
168.522121
11
255.503298
21
168.522121
0
LINE
8
0
10
471.403025
20
274.884990
11
471.299179
21
275.667742
0
LINE
8
0
10
471.299179
20
275.667742
11
471.001102
21
276.384988
0
LINE
8
0
10
471.001102
20
276.384988
11
470.528987
21
277.001753
0
LINE
8
0
10
470.528987
20
277.001753
11
469.903027
21
277.483063
0
LINE
8
0
10
469.903027
20
277.483063
11
469.173221
21
277.784505
0
LINE
8
0
10
469.173221
20
277.784505
11
468.403029
21
277.884986
0
LINE
8
0
10
468.403029
20
277.884986
11
467.632837
21
277.784505
0
LINE
8
0
10
467.632837
20
277.784505
11
466.903031
21
277.483063
0
LINE
8
0
10
466.903031
20
277.483063
11
466.277071
21
277.001753
0
LINE
8
0
10
466.277071
20
277.001753
11
465.804956
21
276.384988
0
LINE
8
0
10
465.804956
20
276.384988
11
465.506879
21
275.667742
0
LINE
8
0
10
465.506879
20
275.667742
11
465.403033
21
274.884990
0
LINE
8
0
10
465.403033
20
274.884990
11
465.506879
21
274.102238
0
LINE
8
0
10
465.506879
20
274.102238
11
465.804956
21
273.384991
0
LINE
8
0
10
465.804956
20
273.384991
11
466.277071
21
272.768226
0
LINE
8
0
10
466.277071
20
272.768226
11
466.903031
21
272.286917
0
LINE
8
0
10
466.903031
20
272.286917
11
467.632837
21
271.985474
0
LINE
8
0
10
467.632837
20
271.985474
11
468.403029
21
271.884993
0
LINE
8
0
10
468.403029
20
271.884993
11
469.173221
21
271.985474
0
LINE
8
0
10
469.173221
20
271.985474
11
469.903027
21
272.286917
0
LINE
8
0
10
469.903027
20
272.286917
11
470.528987
21
272.768226
0
LINE
8
0
10
470.528987
20
272.768226
11
471.001102
21
273.384991
0
LINE
8
0
10
471.001102
20
273.384991
11
471.299179
21
274.102238
0
LINE
8
0
10
471.299179
20
274.102238
11
471.403025
21
274.884990
0
LINE
8
0
10
471.403025
20
274.884990
11
471.403025
21
274.884990
0
LINE
8
0
10
471.403025
20
168.522121
11
471.299179
21
169.304873
0
LINE
8
0
10
471.299179
20
169.304873
11
471.001102
21
170.022119
0
LINE
8
0
10
471.001102
20
170.022119
11
470.528987
21
170.638884
0
LINE
8
0
10
470.528987
20
170.638884
11
469.903027
21
171.120194
0
LINE
8
0
10
469.903027
20
171.120194
11
469.173221
21
171.421636
0
LINE
8
0
10
469.173221
20
171.421636
11
468.403029
21
171.522117
0
LINE
8
0
10
468.403029
20
171.522117
11
467.632837
21
171.421636
0
LINE
8
0
10
467.632837
20
171.421636
11
466.903031
21
171.120194
0
LINE
8
0
10
466.903031
20
171.120194
11
466.277071
21
170.638884
0
LINE
8
0
10
466.277071
20
170.638884
11
465.804956
21
170.022119
0
LINE
8
0
10
465.804956
20
170.022119
11
465.506879
21
169.304873
0
LINE
8
0
10
465.506879
20
169.304873
11
465.403033
21
168.522121
0
LINE
8
0
10
465.403033
20
168.522121
11
465.506879
21
167.739369
0
LINE
8
0
10
465.506879
20
167.739369
11
465.804956
21
167.022123
0
LINE
8
0
10
465.804956
20
167.022123
11
466.277071
21
166.405357
0
LINE
8
0
10
466.277071
20
166.405357
11
466.903031
21
165.924048
0
LINE
8
0
10
466.903031
20
165.924048
11
467.632837
21
165.622605
0
LINE
8
0
10
467.632837
20
165.622605
11
468.403029
21
165.522125
0
LINE
8
0
10
468.403029
20
165.522125
11
469.173221
21
165.622605
0
LINE
8
0
10
469.173221
20
165.622605
11
469.903027
21
165.924048
0
LINE
8
0
10
469.903027
20
165.924048
11
470.528987
21
166.405357
0
LINE
8
0
10
470.528987
20
166.405357
11
471.001102
21
167.022123
0
LINE
8
0
10
471.001102
20
167.022123
11
471.299179
21
167.739369
0
LINE
8
0
10
471.299179
20
167.739369
11
471.403025
21
168.522121
0
LINE
8
0
10
471.403025
20
168.522121
11
471.403025
21
168.522121
0
LINE
8
0
10
84.603515
20
251.884525
11
84.367760
21
253.052260
0
LINE
8
0
10
84.367760
20
253.052260
11
83.724835
21
254.005845
0
LINE
8
0
10
83.724835
20
254.005845
11
82.771250
21
254.648770
0
LINE
8
0
10
82.771250
20
254.648770
11
81.603515
21
254.884525
0
LINE
8
0
10
81.603515
20
254.884525
11
80.435779
21
254.648770
0
LINE
8
0
10
80.435779
20
254.648770
11
79.482194
21
254.005845
0
LINE
8
0
10
79.482194
20
254.005845
11
78.839269
21
253.052260
0
LINE
8
0
10
78.839269
20
253.052260
11
78.603514
21
251.884525
0
LINE
8
0
10
78.603514
20
251.884525
11
78.839269
21
250.716789
0
LINE
8
0
10
78.839269
20
250.716789
11
79.482194
21
249.763204
0
LINE
8
0
10
79.482194
20
249.763204
11
80.435779
21
249.120279
0
LINE
8
0
10
80.435779
20
249.120279
11
81.603515
21
248.884524
0
LINE
8
0
10
81.603515
20
248.884524
11
82.771250
21
249.120279
0
LINE
8
0
10
82.771250
20
249.120279
11
83.724835
21
249.763204
0
LINE
8
0
10
83.724835
20
249.763204
11
84.367760
21
250.716789
0
LINE
8
0
10
84.367760
20
250.716789
11
84.603515
21
251.884525
0
LINE
8
0
10
84.603515
20
251.884525
11
84.603515
21
251.884525
0
LINE
8
0
10
255.503298
20
358.247393
11
255.399451
21
359.030146
0
LINE
8
0
10
255.399451
20
359.030146
11
255.101374
21
359.747392
0
LINE
8
0
10
255.101374
20
359.747392
11
254.629259
21
360.364157
0
LINE
8
0
10
254.629259
20
360.364157
11
254.003299
21
360.845467
0
LINE
8
0
10
254.003299
20
360.845467
11
253.273493
21
361.146909
0
LINE
8
0
10
253.273493
20
361.146909
11
252.503301
21
361.247390
0
LINE
8
0
10
252.503301
20
361.247390
11
251.733109
21
361.146909
0
LINE
8
0
10
251.733109
20
361.146909
11
251.003302
21
360.845467
0
LINE
8
0
10
251.003302
20
360.845467
11
250.377342
21
360.364157
0
LINE
8
0
10
250.377342
20
360.364157
11
249.905227
21
359.747392
0
LINE
8
0
10
249.905227
20
359.747392
11
249.607150
21
359.030146
0
LINE
8
0
10
249.607150
20
359.030146
11
249.503304
21
358.247393
0
LINE
8
0
10
249.503304
20
358.247393
11
249.607150
21
357.464641
0
LINE
8
0
10
249.607150
20
357.464641
11
249.905227
21
356.747395
0
LINE
8
0
10
249.905227
20
356.747395
11
250.377342
21
356.130630
0
LINE
8
0
10
250.377342
20
356.130630
11
251.003302
21
355.649320
0
LINE
8
0
10
251.003302
20
355.649320
11
251.733109
21
355.347877
0
LINE
8
0
10
251.733109
20
355.347877
11
252.503301
21
355.247397
0
LINE
8
0
10
252.503301
20
355.247397
11
253.273493
21
355.347877
0
LINE
8
0
10
253.273493
20
355.347877
11
254.003299
21
355.649320
0
LINE
8
0
10
254.003299
20
355.649320
11
254.629259
21
356.130630
0
LINE
8
0
10
254.629259
20
356.130630
11
255.101374
21
356.747395
0
LINE
8
0
10
255.101374
20
356.747395
11
255.399451
21
357.464641
0
LINE
8
0
10
255.399451
20
357.464641
11
255.503298
21
358.247393
0
LINE
8
0
10
255.503298
20
358.247393
11
255.503298
21
358.247393
0
LINE
8
0
10
255.503298
20
274.884990
11
255.399451
21
275.667742
0
LINE
8
0
10
255.399451
20
275.667742
11
255.101374
21
276.384988
0
LINE
8
0
10
255.101374
20
276.384988
11
254.629259
21
277.001753
0
LINE
8
0
10
254.629259
20
277.001753
11
254.003299
21
277.483063
0
LINE
8
0
10
254.003299
20
277.483063
11
253.273493
21
277.784506
0
LINE
8
0
10
253.273493
20
277.784506
11
252.503301
21
277.884986
0
LINE
8
0
10
252.503301
20
277.884986
11
251.733109
21
277.784506
0
LINE
8
0
10
251.733109
20
277.784506
11
251.003302
21
277.483063
0
LINE
8
0
10
251.003302
20
277.483063
11
250.377342
21
277.001753
0
LINE
8
0
10
250.377342
20
277.001753
11
249.905227
21
276.384988
0
LINE
8
0
10
249.905227
20
276.384988
11
249.607150
21
275.667742
0
LINE
8
0
10
249.607150
20
275.667742
11
249.503304
21
274.884990
0
LINE
8
0
10
249.503304
20
274.884990
11
249.607150
21
274.102237
0
LINE
8
0
10
249.607150
20
274.102237
11
249.905227
21
273.384991
0
LINE
8
0
10
249.905227
20
273.384991
11
250.377342
21
272.768226
0
LINE
8
0
10
250.377342
20
272.768226
11
251.003302
21
272.286916
0
LINE
8
0
10
251.003302
20
272.286916
11
251.733109
21
271.985474
0
LINE
8
0
10
251.733109
20
271.985474
11
252.503301
21
271.884993
0
LINE
8
0
10
252.503301
20
271.884993
11
253.273493
21
271.985474
0
LINE
8
0
10
253.273493
20
271.985474
11
254.003299
21
272.286916
0
LINE
8
0
10
254.003299
20
272.286916
11
254.629259
21
272.768226
0
LINE
8
0
10
254.629259
20
272.768226
11
255.101374
21
273.384991
0
LINE
8
0
10
255.101374
20
273.384991
11
255.399451
21
274.102237
0
LINE
8
0
10
255.399451
20
274.102237
11
255.503298
21
274.884990
0
LINE
8
0
10
255.503298
20
274.884990
11
255.503298
21
274.884990
0
LINE
8
0
10
300.503241
20
274.884990
11
300.399394
21
275.667742
0
LINE
8
0
10
300.399394
20
275.667742
11
300.101317
21
276.384988
0
LINE
8
0
10
300.101317
20
276.384988
11
299.629202
21
277.001753
0
LINE
8
0
10
299.629202
20
277.001753
11
299.003242
21
277.483063
0
LINE
8
0
10
299.003242
20
277.483063
11
298.273436
21
277.784506
0
LINE
8
0
10
298.273436
20
277.784506
11
297.503244
21
277.884986
0
LINE
8
0
10
297.503244
20
277.884986
11
296.733052
21
277.784506
0
LINE
8
0
10
296.733052
20
277.784506
11
296.003246
21
277.483063
0
LINE
8
0
10
296.003246
20
277.483063
11
295.377285
21
277.001753
0
LINE
8
0
10
295.377285
20
277.001753
11
294.905170
21
276.384988
0
LINE
8
0
10
294.905170
20
276.384988
11
294.607093
21
275.667742
0
LINE
8
0
10
294.607093
20
275.667742
11
294.503247
21
274.884990
0
LINE
8
0
10
294.503247
20
274.884990
11
294.607093
21
274.102237
0
LINE
8
0
10
294.607093
20
274.102237
11
294.905170
21
273.384991
0
LINE
8
0
10
294.905170
20
273.384991
11
295.377285
21
272.768226
0
LINE
8
0
10
295.377285
20
272.768226
11
296.003246
21
272.286916
0
LINE
8
0
10
296.003246
20
272.286916
11
296.733052
21
271.985474
0
LINE
8
0
10
296.733052
20
271.985474
11
297.503244
21
271.884993
0
LINE
8
0
10
297.503244
20
271.884993
11
298.273436
21
271.985474
0
LINE
8
0
10
298.273436
20
271.985474
11
299.003242
21
272.286916
0
LINE
8
0
10
299.003242
20
272.286916
11
299.629202
21
272.768226
0
LINE
8
0
10
299.629202
20
272.768226
11
300.101317
21
273.384991
0
LINE
8
0
10
300.101317
20
273.384991
11
300.399394
21
274.102237
0
LINE
8
0
10
300.399394
20
274.102237
11
300.503241
21
274.884990
0
LINE
8
0
10
300.503241
20
274.884990
11
300.503241
21
274.884990
0
LINE
8
0
10
84.603515
20
274.884990
11
84.367760
21
276.052725
0
LINE
8
0
10
84.367760
20
276.052725
11
83.724835
21
277.006310
0
LINE
8
0
10
83.724835
20
277.006310
11
82.771250
21
277.649235
0
LINE
8
0
10
82.771250
20
277.649235
11
81.603515
21
277.884990
0
LINE
8
0
10
81.603515
20
277.884990
11
80.435779
21
277.649235
0
LINE
8
0
10
80.435779
20
277.649235
11
79.482194
21
277.006310
0
LINE
8
0
10
79.482194
20
277.006310
11
78.839269
21
276.052725
0
LINE
8
0
10
78.839269
20
276.052725
11
78.603514
21
274.884990
0
LINE
8
0
10
78.603514
20
274.884990
11
78.839269
21
273.717254
0
LINE
8
0
10
78.839269
20
273.717254
11
79.482194
21
272.763669
0
LINE
8
0
10
79.482194
20
272.763669
11
80.435779
21
272.120744
0
LINE
8
0
10
80.435779
20
272.120744
11
81.603515
21
271.884989
0
LINE
8
0
10
81.603515
20
271.884989
11
82.771250
21
272.120744
0
LINE
8
0
10
82.771250
20
272.120744
11
83.724835
21
272.763669
0
LINE
8
0
10
83.724835
20
272.763669
11
84.367760
21
273.717254
0
LINE
8
0
10
84.367760
20
273.717254
11
84.603515
21
274.884990
0
LINE
8
0
10
84.603515
20
274.884990
11
84.603515
21
274.884990
0
LINE
8
0
10
300.503241
20
168.522121
11
300.399394
21
169.304873
0
LINE
8
0
10
300.399394
20
169.304873
11
300.101317
21
170.022119
0
LINE
8
0
10
300.101317
20
170.022119
11
299.629202
21
170.638885
0
LINE
8
0
10
299.629202
20
170.638885
11
299.003242
21
171.120194
0
LINE
8
0
10
299.003242
20
171.120194
11
298.273436
21
171.421637
0
LINE
8
0
10
298.273436
20
171.421637
11
297.503244
21
171.522118
0
LINE
8
0
10
297.503244
20
171.522118
11
296.733052
21
171.421637
0
LINE
8
0
10
296.733052
20
171.421637
11
296.003246
21
171.120194
0
LINE
8
0
10
296.003246
20
171.120194
11
295.377285
21
170.638885
0
LINE
8
0
10
295.377285
20
170.638885
11
294.905170
21
170.022119
0
LINE
8
0
10
294.905170
20
170.022119
11
294.607093
21
169.304873
0
LINE
8
0
10
294.607093
20
169.304873
11
294.503247
21
168.522121
0
LINE
8
0
10
294.503247
20
168.522121
11
294.607093
21
167.739369
0
LINE
8
0
10
294.607093
20
167.739369
11
294.905170
21
167.022122
0
LINE
8
0
10
294.905170
20
167.022122
11
295.377285
21
166.405357
0
LINE
8
0
10
295.377285
20
166.405357
11
296.003246
21
165.924047
0
LINE
8
0
10
296.003246
20
165.924047
11
296.733052
21
165.622605
0
LINE
8
0
10
296.733052
20
165.622605
11
297.503244
21
165.522124
0
LINE
8
0
10
297.503244
20
165.522124
11
298.273436
21
165.622605
0
LINE
8
0
10
298.273436
20
165.622605
11
299.003242
21
165.924047
0
LINE
8
0
10
299.003242
20
165.924047
11
299.629202
21
166.405357
0
LINE
8
0
10
299.629202
20
166.405357
11
300.101317
21
167.022122
0
LINE
8
0
10
300.101317
20
167.022122
11
300.399394
21
167.739369
0
LINE
8
0
10
300.399394
20
167.739369
11
300.503241
21
168.522121
0
LINE
8
0
10
300.503241
20
168.522121
11
300.503241
21
168.522121
0
LINE
8
0
10
471.403025
20
358.247393
11
471.299179
21
359.030145
0
LINE
8
0
10
471.299179
20
359.030145
11
471.001102
21
359.747392
0
LINE
8
0
10
471.001102
20
359.747392
11
470.528987
21
360.364157
0
LINE
8
0
10
470.528987
20
360.364157
11
469.903027
21
360.845466
0
LINE
8
0
10
469.903027
20
360.845466
11
469.173221
21
361.146909
0
LINE
8
0
10
469.173221
20
361.146909
11
468.403029
21
361.247390
0
LINE
8
0
10
468.403029
20
361.247390
11
467.632837
21
361.146909
0
LINE
8
0
10
467.632837
20
361.146909
11
466.903031
21
360.845466
0
LINE
8
0
10
466.903031
20
360.845466
11
466.277071
21
360.364157
0
LINE
8
0
10
466.277071
20
360.364157
11
465.804956
21
359.747392
0
LINE
8
0
10
465.804956
20
359.747392
11
465.506879
21
359.030145
0
LINE
8
0
10
465.506879
20
359.030145
11
465.403033
21
358.247393
0
LINE
8
0
10
465.403033
20
358.247393
11
465.506879
21
357.464641
0
LINE
8
0
10
465.506879
20
357.464641
11
465.804956
21
356.747395
0
LINE
8
0
10
465.804956
20
356.747395
11
466.277071
21
356.130630
0
LINE
8
0
10
466.277071
20
356.130630
11
466.903031
21
355.649320
0
LINE
8
0
10
466.903031
20
355.649320
11
467.632837
21
355.347878
0
LINE
8
0
10
467.632837
20
355.347878
11
468.403029
21
355.247397
0
LINE
8
0
10
468.403029
20
355.247397
11
469.173221
21
355.347878
0
LINE
8
0
10
469.173221
20
355.347878
11
469.903027
21
355.649320
0
LINE
8
0
10
469.903027
20
355.649320
11
470.528987
21
356.130630
0
LINE
8
0
10
470.528987
20
356.130630
11
471.001102
21
356.747395
0
LINE
8
0
10
471.001102
20
356.747395
11
471.299179
21
357.464641
0
LINE
8
0
10
471.299179
20
357.464641
11
471.403025
21
358.247393
0
LINE
8
0
10
471.403025
20
358.247393
11
471.403025
21
358.247393
0
LINE
8
0
10
458.403041
20
354.247401
11
458.403041
21
179.522106
0
LINE
8
0
10
458.403041
20
179.522106
11
307.503231
21
179.522106
0
LINE
8
0
10
307.503231
20
179.522106
11
307.503231
21
354.247401
0
LINE
8
0
10
307.503231
20
354.247401
11
458.403041
21
354.247401
0
LINE
8
0
10
58.603553
20
348.247400
11
91.603508
21
348.247400
0
LINE
8
0
10
91.603508
20
348.247400
11
91.603508
21
354.247401
0
LINE
8
0
10
91.603508
20
354.247401
11
242.503313
21
354.247401
0
LINE
8
0
10
242.503313
20
354.247401
11
242.503313
21
179.522106
0
LINE
8
0
10
242.503313
20
179.522106
11
91.603508
21
179.522106
0
LINE
8
0
10
91.603508
20
179.522106
11
91.603508
21
288.247489
0
LINE
8
0
10
91.603508
20
288.247489
11
58.603553
21
288.247489
0
LINE
8
0
10
58.603553
20
288.247489
11
58.603553
21
247.372247
0
LINE
8
0
10
58.603553
20
247.372247
11
58.603553
21
176.522105
0
LINE
8
0
10
58.603553
20
176.522105
11
53.203546
21
176.522105
0
LINE
8
0
10
53.203546
20
176.522105
11
53.203546
21
156.522144
0
LINE
8
0
10
53.203546
20
156.522144
11
58.603553
21
156.522144
0
LINE
8
0
10
58.603553
20
156.522144
11
58.603553
21
151.122137
0
LINE
8
0
10
58.603553
20
151.122137
11
78.603514
21
151.122137
0
LINE
8
0
10
78.603514
20
151.122137
11
78.603514
21
156.522144
0
LINE
8
0
10
78.603514
20
156.522144
11
472.403024
21
156.522144
0
LINE
8
0
10
472.403024
20
156.522144
11
472.403024
21
151.122137
0
LINE
8
0
10
472.403024
20
151.122137
11
492.402999
21
151.122137
0
LINE
8
0
10
492.402999
20
151.122137
11
492.402999
21
156.522144
0
LINE
8
0
10
492.402999
20
156.522144
11
497.802992
21
156.522144
0
LINE
8
0
10
497.802992
20
156.522144
11
497.802992
21
176.522105
0
LINE
8
0
10
497.802992
20
176.522105
11
492.402999
21
176.522105
0
LINE
8
0
10
492.402999
20
176.522105
11
492.402999
21
272.410186
0
LINE
8
0
10
492.402999
20
272.410186
11
492.402999
21
351.247400
0
LINE
8
0
10
492.402999
20
351.247400
11
497.802992
21
351.247400
0
LINE
8
0
10
497.802992
20
351.247400
11
497.802992
21
371.247362
0
LINE
8
0
10
497.802992
20
371.247362
11
492.402999
21
371.247362
0
LINE
8
0
10
492.402999
20
371.247362
11
492.402999
21
376.647368
0
LINE
8
0
10
492.402999
20
376.647368
11
472.403024
21
376.647368
0
LINE
8
0
10
472.403024
20
376.647368
11
472.403024
21
371.247362
0
LINE
8
0
10
472.403024
20
371.247362
11
78.603514
21
371.247362
0
LINE
8
0
10
78.603514
20
371.247362
11
78.603514
21
376.647368
0
LINE
8
0
10
78.603514
20
376.647368
11
58.603553
21
376.647368
0
LINE
8
0
10
58.603553
20
376.647368
11
58.603553
21
371.247362
0
LINE
8
0
10
58.603553
20
371.247362
11
53.203546
21
371.247362
0
LINE
8
0
10
53.203546
20
371.247362
11
53.203546
21
351.247400
0
LINE
8
0
10
53.203546
20
351.247400
11
58.603553
21
351.247400
0
LINE
8
0
10
58.603553
20
351.247400
11
58.603553
21
348.247400
0
LINE
8
0
10
492.183025
20
31.150525
11
492.079179
21
31.933277
0
LINE
8
0
10
492.079179
20
31.933277
11
491.781102
21
32.650523
0
LINE
8
0
10
491.781102
20
32.650523
11
491.308987
21
33.267288
0
LINE
8
0
10
491.308987
20
33.267288
11
490.683027
21
33.748598
0
LINE
8
0
10
490.683027
20
33.748598
11
489.953221
21
34.050040
0
LINE
8
0
10
489.953221
20
34.050040
11
489.183029
21
34.150521
0
LINE
8
0
10
489.183029
20
34.150521
11
488.412837
21
34.050040
0
LINE
8
0
10
488.412837
20
34.050040
11
487.683031
21
33.748598
0
LINE
8
0
10
487.683031
20
33.748598
11
487.057071
21
33.267288
0
LINE
8
0
10
487.057071
20
33.267288
11
486.584956
21
32.650523
0
LINE
8
0
10
486.584956
20
32.650523
11
486.286879
21
31.933277
0
LINE
8
0
10
486.286879
20
31.933277
11
486.183033
21
31.150525
0
LINE
8
0
10
486.183033
20
31.150525
11
486.286879
21
30.367773
0
LINE
8
0
10
486.286879
20
30.367773
11
486.584956
21
29.650527
0
LINE
8
0
10
486.584956
20
29.650527
11
487.057071
21
29.033761
0
LINE
8
0
10
487.057071
20
29.033761
11
487.683031
21
28.552452
0
LINE
8
0
10
487.683031
20
28.552452
11
488.412837
21
28.251009
0
LINE
8
0
10
488.412837
20
28.251009
11
489.183029
21
28.150528
0
LINE
8
0
10
489.183029
20
28.150528
11
489.953221
21
28.251009
0
LINE
8
0
10
489.953221
20
28.251009
11
490.683027
21
28.552452
0
LINE
8
0
10
490.683027
20
28.552452
11
491.308987
21
29.033761
0
LINE
8
0
10
491.308987
20
29.033761
11
491.781102
21
29.650527
0
LINE
8
0
10
491.781102
20
29.650527
11
492.079179
21
30.367773
0
LINE
8
0
10
492.079179
20
30.367773
11
492.183025
21
31.150525
0
LINE
8
0
10
492.183025
20
31.150525
11
492.183025
21
31.150525
0
LINE
8
0
10
105.383515
20
-52.211879
11
105.147760
21
-51.044144
0
LINE
8
0
10
105.147760
20
-51.044144
11
104.504835
21
-50.090558
0
LINE
8
0
10
104.504835
20
-50.090558
11
103.551250
21
-49.447634
0
LINE
8
0
10
103.551250
20
-49.447634
11
102.383515
21
-49.211879
0
LINE
8
0
10
102.383515
20
-49.211879
11
101.215779
21
-49.447634
0
LINE
8
0
10
101.215779
20
-49.447634
11
100.262194
21
-50.090558
0
LINE
8
0
10
100.262194
20
-50.090558
11
99.619269
21
-51.044144
0
LINE
8
0
10
99.619269
20
-51.044144
11
99.383514
21
-52.211879
0
LINE
8
0
10
99.383514
20
-52.211879
11
99.619269
21
-53.379615
0
LINE
8
0
10
99.619269
20
-53.379615
11
100.262194
21
-54.333200
0
LINE
8
0
10
100.262194
20
-54.333200
11
101.215779
21
-54.976125
0
LINE
8
0
10
101.215779
20
-54.976125
11
102.383515
21
-55.211880
0
LINE
8
0
10
102.383515
20
-55.211880
11
103.551250
21
-54.976125
0
LINE
8
0
10
103.551250
20
-54.976125
11
104.504835
21
-54.333200
0
LINE
8
0
10
104.504835
20
-54.333200
11
105.147760
21
-53.379615
0
LINE
8
0
10
105.147760
20
-53.379615
11
105.383515
21
-52.211879
0
LINE
8
0
10
105.383515
20
-52.211879
11
105.383515
21
-52.211879
0
LINE
8
0
10
321.283241
20
137.513393
11
321.179394
21
138.296146
0
LINE
8
0
10
321.179394
20
138.296146
11
320.881317
21
139.013392
0
LINE
8
0
10
320.881317
20
139.013392
11
320.409202
21
139.630157
0
LINE
8
0
10
320.409202
20
139.630157
11
319.783242
21
140.111467
0
LINE
8
0
10
319.783242
20
140.111467
11
319.053436
21
140.412909
0
LINE
8
0
10
319.053436
20
140.412909
11
318.283244
21
140.513390
0
LINE
8
0
10
318.283244
20
140.513390
11
317.513052
21
140.412909
0
LINE
8
0
10
317.513052
20
140.412909
11
316.783246
21
140.111467
0
LINE
8
0
10
316.783246
20
140.111467
11
316.157285
21
139.630157
0
LINE
8
0
10
316.157285
20
139.630157
11
315.685170
21
139.013392
0
LINE
8
0
10
315.685170
20
139.013392
11
315.387093
21
138.296146
0
LINE
8
0
10
315.387093
20
138.296146
11
315.283247
21
137.513393
0
LINE
8
0
10
315.283247
20
137.513393
11
315.387093
21
136.730641
0
LINE
8
0
10
315.387093
20
136.730641
11
315.685170
21
136.013395
0
LINE
8
0
10
315.685170
20
136.013395
11
316.157285
21
135.396630
0
LINE
8
0
10
316.157285
20
135.396630
11
316.783246
21
134.915320
0
LINE
8
0
10
316.783246
20
134.915320
11
317.513052
21
134.613877
0
LINE
8
0
10
317.513052
20
134.613877
11
318.283244
21
134.513397
0
LINE
8
0
10
318.283244
20
134.513397
11
319.053436
21
134.613877
0
LINE
8
0
10
319.053436
20
134.613877
11
319.783242
21
134.915320
0
LINE
8
0
10
319.783242
20
134.915320
11
320.409202
21
135.396630
0
LINE
8
0
10
320.409202
20
135.396630
11
320.881317
21
136.013395
0
LINE
8
0
10
320.881317
20
136.013395
11
321.179394
21
136.730641
0
LINE
8
0
10
321.179394
20
136.730641
11
321.283241
21
137.513393
0
LINE
8
0
10
321.283241
20
137.513393
11
321.283241
21
137.513393
0
LINE
8
0
10
276.283298
20
31.150525
11
276.179451
21
31.933277
0
LINE
8
0
10
276.179451
20
31.933277
11
275.881374
21
32.650523
0
LINE
8
0
10
275.881374
20
32.650523
11
275.409259
21
33.267289
0
LINE
8
0
10
275.409259
20
33.267289
11
274.783299
21
33.748598
0
LINE
8
0
10
274.783299
20
33.748598
11
274.053493
21
34.050041
0
LINE
8
0
10
274.053493
20
34.050041
11
273.283301
21
34.150522
0
LINE
8
0
10
273.283301
20
34.150522
11
272.513109
21
34.050041
0
LINE
8
0
10
272.513109
20
34.050041
11
271.783302
21
33.748598
0
LINE
8
0
10
271.783302
20
33.748598
11
271.157342
21
33.267289
0
LINE
8
0
10
271.157342
20
33.267289
11
270.685227
21
32.650523
0
LINE
8
0
10
270.685227
20
32.650523
11
270.387150
21
31.933277
0
LINE
8
0
10
270.387150
20
31.933277
11
270.283304
21
31.150525
0
LINE
8
0
10
270.283304
20
31.150525
11
270.387150
21
30.367773
0
LINE
8
0
10
270.387150
20
30.367773
11
270.685227
21
29.650526
0
LINE
8
0
10
270.685227
20
29.650526
11
271.157342
21
29.033761
0
LINE
8
0
10
271.157342
20
29.033761
11
271.783302
21
28.552451
0
LINE
8
0
10
271.783302
20
28.552451
11
272.513109
21
28.251009
0
LINE
8
0
10
272.513109
20
28.251009
11
273.283301
21
28.150528
0
LINE
8
0
10
273.283301
20
28.150528
11
274.053493
21
28.251009
0
LINE
8
0
10
274.053493
20
28.251009
11
274.783299
21
28.552451
0
LINE
8
0
10
274.783299
20
28.552451
11
275.409259
21
29.033761
0
LINE
8
0
10
275.409259
20
29.033761
11
275.881374
21
29.650526
0
LINE
8
0
10
275.881374
20
29.650526
11
276.179451
21
30.367773
0
LINE
8
0
10
276.179451
20
30.367773
11
276.283298
21
31.150525
0
LINE
8
0
10
276.283298
20
31.150525
11
276.283298
21
31.150525
0
LINE
8
0
10
321.283241
20
31.150525
11
321.179394
21
31.933277
0
LINE
8
0
10
321.179394
20
31.933277
11
320.881317
21
32.650523
0
LINE
8
0
10
320.881317
20
32.650523
11
320.409202
21
33.267289
0
LINE
8
0
10
320.409202
20
33.267289
11
319.783242
21
33.748598
0
LINE
8
0
10
319.783242
20
33.748598
11
319.053436
21
34.050041
0
LINE
8
0
10
319.053436
20
34.050041
11
318.283244
21
34.150522
0
LINE
8
0
10
318.283244
20
34.150522
11
317.513052
21
34.050041
0
LINE
8
0
10
317.513052
20
34.050041
11
316.783246
21
33.748598
0
LINE
8
0
10
316.783246
20
33.748598
11
316.157285
21
33.267289
0
LINE
8
0
10
316.157285
20
33.267289
11
315.685170
21
32.650523
0
LINE
8
0
10
315.685170
20
32.650523
11
315.387093
21
31.933277
0
LINE
8
0
10
315.387093
20
31.933277
11
315.283247
21
31.150525
0
LINE
8
0
10
315.283247
20
31.150525
11
315.387093
21
30.367773
0
LINE
8
0
10
315.387093
20
30.367773
11
315.685170
21
29.650526
0
LINE
8
0
10
315.685170
20
29.650526
11
316.157285
21
29.033761
0
LINE
8
0
10
316.157285
20
29.033761
11
316.783246
21
28.552451
0
LINE
8
0
10
316.783246
20
28.552451
11
317.513052
21
28.251009
0
LINE
8
0
10
317.513052
20
28.251009
11
318.283244
21
28.150528
0
LINE
8
0
10
318.283244
20
28.150528
11
319.053436
21
28.251009
0
LINE
8
0
10
319.053436
20
28.251009
11
319.783242
21
28.552451
0
LINE
8
0
10
319.783242
20
28.552451
11
320.409202
21
29.033761
0
LINE
8
0
10
320.409202
20
29.033761
11
320.881317
21
29.650526
0
LINE
8
0
10
320.881317
20
29.650526
11
321.179394
21
30.367773
0
LINE
8
0
10
321.179394
20
30.367773
11
321.283241
21
31.150525
0
LINE
8
0
10
321.283241
20
31.150525
11
321.283241
21
31.150525
0
LINE
8
0
10
105.383515
20
137.513393
11
105.147760
21
138.681129
0
LINE
8
0
10
105.147760
20
138.681129
11
104.504835
21
139.634714
0
LINE
8
0
10
104.504835
20
139.634714
11
103.551250
21
140.277639
0
LINE
8
0
10
103.551250
20
140.277639
11
102.383515
21
140.513394
0
LINE
8
0
10
102.383515
20
140.513394
11
101.215779
21
140.277639
0
LINE
8
0
10
101.215779
20
140.277639
11
100.262194
21
139.634714
0
LINE
8
0
10
100.262194
20
139.634714
11
99.619269
21
138.681129
0
LINE
8
0
10
99.619269
20
138.681129
11
99.383514
21
137.513393
0
LINE
8
0
10
99.383514
20
137.513393
11
99.619269
21
136.345658
0
LINE
8
0
10
99.619269
20
136.345658
11
100.262194
21
135.392073
0
LINE
8
0
10
100.262194
20
135.392073
11
101.215779
21
134.749148
0
LINE
8
0
10
101.215779
20
134.749148
11
102.383515
21
134.513393
0
LINE
8
0
10
102.383515
20
134.513393
11
103.551250
21
134.749148
0
LINE
8
0
10
103.551250
20
134.749148
11
104.504835
21
135.392073
0
LINE
8
0
10
104.504835
20
135.392073
11
105.147760
21
136.345658
0
LINE
8
0
10
105.147760
20
136.345658
11
105.383515
21
137.513393
0
LINE
8
0
10
105.383515
20
137.513393
11
105.383515
21
137.513393
0
LINE
8
0
10
276.283298
20
-52.211879
11
276.179451
21
-51.429127
0
LINE
8
0
10
276.179451
20
-51.429127
11
275.881374
21
-50.711881
0
LINE
8
0
10
275.881374
20
-50.711881
11
275.409259
21
-50.095115
0
LINE
8
0
10
275.409259
20
-50.095115
11
274.783299
21
-49.613806
0
LINE
8
0
10
274.783299
20
-49.613806
11
274.053493
21
-49.312363
0
LINE
8
0
10
274.053493
20
-49.312363
11
273.283301
21
-49.211882
0
LINE
8
0
10
273.283301
20
-49.211882
11
272.513109
21
-49.312363
0
LINE
8
0
10
272.513109
20
-49.312363
11
271.783302
21
-49.613806
0
LINE
8
0
10
271.783302
20
-49.613806
11
271.157342
21
-50.095115
0
LINE
8
0
10
271.157342
20
-50.095115
11
270.685227
21
-50.711881
0
LINE
8
0
10
270.685227
20
-50.711881
11
270.387150
21
-51.429127
0
LINE
8
0
10
270.387150
20
-51.429127
11
270.283304
21
-52.211879
0
LINE
8
0
10
270.283304
20
-52.211879
11
270.387150
21
-52.994631
0
LINE
8
0
10
270.387150
20
-52.994631
11
270.685227
21
-53.711878
0
LINE
8
0
10
270.685227
20
-53.711878
11
271.157342
21
-54.328643
0
LINE
8
0
10
271.157342
20
-54.328643
11
271.783302
21
-54.809953
0
LINE
8
0
10
271.783302
20
-54.809953
11
272.513109
21
-55.111395
0
LINE
8
0
10
272.513109
20
-55.111395
11
273.283301
21
-55.211876
0
LINE
8
0
10
273.283301
20
-55.211876
11
274.053493
21
-55.111395
0
LINE
8
0
10
274.053493
20
-55.111395
11
274.783299
21
-54.809953
0
LINE
8
0
10
274.783299
20
-54.809953
11
275.409259
21
-54.328643
0
LINE
8
0
10
275.409259
20
-54.328643
11
275.881374
21
-53.711878
0
LINE
8
0
10
275.881374
20
-53.711878
11
276.179451
21
-52.994631
0
LINE
8
0
10
276.179451
20
-52.994631
11
276.283298
21
-52.211879
0
LINE
8
0
10
276.283298
20
-52.211879
11
276.283298
21
-52.211879
0
LINE
8
0
10
492.183025
20
54.150990
11
492.079179
21
54.933742
0
LINE
8
0
10
492.079179
20
54.933742
11
491.781102
21
55.650988
0
LINE
8
0
10
491.781102
20
55.650988
11
491.308987
21
56.267753
0
LINE
8
0
10
491.308987
20
56.267753
11
490.683027
21
56.749063
0
LINE
8
0
10
490.683027
20
56.749063
11
489.953221
21
57.050505
0
LINE
8
0
10
489.953221
20
57.050505
11
489.183029
21
57.150986
0
LINE
8
0
10
489.183029
20
57.150986
11
488.412837
21
57.050505
0
LINE
8
0
10
488.412837
20
57.050505
11
487.683031
21
56.749063
0
LINE
8
0
10
487.683031
20
56.749063
11
487.057071
21
56.267753
0
LINE
8
0
10
487.057071
20
56.267753
11
486.584956
21
55.650988
0
LINE
8
0
10
486.584956
20
55.650988
11
486.286879
21
54.933742
0
LINE
8
0
10
486.286879
20
54.933742
11
486.183033
21
54.150990
0
LINE
8
0
10
486.183033
20
54.150990
11
486.286879
21
53.368238
0
LINE
8
0
10
486.286879
20
53.368238
11
486.584956
21
52.650991
0
LINE
8
0
10
486.584956
20
52.650991
11
487.057071
21
52.034226
0
LINE
8
0
10
487.057071
20
52.034226
11
487.683031
21
51.552917
0
LINE
8
0
10
487.683031
20
51.552917
11
488.412837
21
51.251474
0
LINE
8
0
10
488.412837
20
51.251474
11
489.183029
21
51.150993
0
LINE
8
0
10
489.183029
20
51.150993
11
489.953221
21
51.251474
0
LINE
8
0
10
489.953221
20
51.251474
11
490.683027
21
51.552917
0
LINE
8
0
10
490.683027
20
51.552917
11
491.308987
21
52.034226
0
LINE
8
0
10
491.308987
20
52.034226
11
491.781102
21
52.650991
0
LINE
8
0
10
491.781102
20
52.650991
11
492.079179
21
53.368238
0
LINE
8
0
10
492.079179
20
53.368238
11
492.183025
21
54.150990
0
LINE
8
0
10
492.183025
20
54.150990
11
492.183025
21
54.150990
0
LINE
8
0
10
492.183025
20
-52.211879
11
492.079179
21
-51.429127
0
LINE
8
0
10
492.079179
20
-51.429127
11
491.781102
21
-50.711881
0
LINE
8
0
10
491.781102
20
-50.711881
11
491.308987
21
-50.095116
0
LINE
8
0
10
491.308987
20
-50.095116
11
490.683027
21
-49.613806
0
LINE
8
0
10
490.683027
20
-49.613806
11
489.953221
21
-49.312364
0
LINE
8
0
10
489.953221
20
-49.312364
11
489.183029
21
-49.211883
0
LINE
8
0
10
489.183029
20
-49.211883
11
488.412837
21
-49.312364
0
LINE
8
0
10
488.412837
20
-49.312364
11
487.683031
21
-49.613806
0
LINE
8
0
10
487.683031
20
-49.613806
11
487.057071
21
-50.095116
0
LINE
8
0
10
487.057071
20
-50.095116
11
486.584956
21
-50.711881
0
LINE
8
0
10
486.584956
20
-50.711881
11
486.286879
21
-51.429127
0
LINE
8
0
10
486.286879
20
-51.429127
11
486.183033
21
-52.211879
0
LINE
8
0
10
486.183033
20
-52.211879
11
486.286879
21
-52.994631
0
LINE
8
0
10
486.286879
20
-52.994631
11
486.584956
21
-53.711877
0
LINE
8
0
10
486.584956
20
-53.711877
11
487.057071
21
-54.328643
0
LINE
8
0
10
487.057071
20
-54.328643
11
487.683031
21
-54.809952
0
LINE
8
0
10
487.683031
20
-54.809952
11
488.412837
21
-55.111395
0
LINE
8
0
10
488.412837
20
-55.111395
11
489.183029
21
-55.211875
0
LINE
8
0
10
489.183029
20
-55.211875
11
489.953221
21
-55.111395
0
LINE
8
0
10
489.953221
20
-55.111395
11
490.683027
21
-54.809952
0
LINE
8
0
10
490.683027
20
-54.809952
11
491.308987
21
-54.328643
0
LINE
8
0
10
491.308987
20
-54.328643
11
491.781102
21
-53.711877
0
LINE
8
0
10
491.781102
20
-53.711877
11
492.079179
21
-52.994631
0
LINE
8
0
10
492.079179
20
-52.994631
11
492.183025
21
-52.211879
0
LINE
8
0
10
492.183025
20
-52.211879
11
492.183025
21
-52.211879
0
LINE
8
0
10
105.383515
20
31.150525
11
105.147760
21
32.318260
0
LINE
8
0
10
105.147760
20
32.318260
11
104.504835
21
33.271845
0
LINE
8
0
10
104.504835
20
33.271845
11
103.551250
21
33.914770
0
LINE
8
0
10
103.551250
20
33.914770
11
102.383515
21
34.150525
0
LINE
8
0
10
102.383515
20
34.150525
11
101.215779
21
33.914770
0
LINE
8
0
10
101.215779
20
33.914770
11
100.262194
21
33.271845
0
LINE
8
0
10
100.262194
20
33.271845
11
99.619269
21
32.318260
0
LINE
8
0
10
99.619269
20
32.318260
11
99.383514
21
31.150525
0
LINE
8
0
10
99.383514
20
31.150525
11
99.619269
21
29.982789
0
LINE
8
0
10
99.619269
20
29.982789
11
100.262194
21
29.029204
0
LINE
8
0
10
100.262194
20
29.029204
11
101.215779
21
28.386279
0
LINE
8
0
10
101.215779
20
28.386279
11
102.383515
21
28.150524
0
LINE
8
0
10
102.383515
20
28.150524
11
103.551250
21
28.386279
0
LINE
8
0
10
103.551250
20
28.386279
11
104.504835
21
29.029204
0
LINE
8
0
10
104.504835
20
29.029204
11
105.147760
21
29.982789
0
LINE
8
0
10
105.147760
20
29.982789
11
105.383515
21
31.150525
0
LINE
8
0
10
105.383515
20
31.150525
11
105.383515
21
31.150525
0
LINE
8
0
10
276.283298
20
137.513393
11
276.179451
21
138.296146
0
LINE
8
0
10
276.179451
20
138.296146
11
275.881374
21
139.013392
0
LINE
8
0
10
275.881374
20
139.013392
11
275.409259
21
139.630157
0
LINE
8
0
10
275.409259
20
139.630157
11
274.783299
21
140.111467
0
LINE
8
0
10
274.783299
20
140.111467
11
274.053493
21
140.412909
0
LINE
8
0
10
274.053493
20
140.412909
11
273.283301
21
140.513390
0
LINE
8
0
10
273.283301
20
140.513390
11
272.513109
21
140.412909
0
LINE
8
0
10
272.513109
20
140.412909
11
271.783302
21
140.111467
0
LINE
8
0
10
271.783302
20
140.111467
11
271.157342
21
139.630157
0
LINE
8
0
10
271.157342
20
139.630157
11
270.685227
21
139.013392
0
LINE
8
0
10
270.685227
20
139.013392
11
270.387150
21
138.296146
0
LINE
8
0
10
270.387150
20
138.296146
11
270.283304
21
137.513393
0
LINE
8
0
10
270.283304
20
137.513393
11
270.387150
21
136.730641
0
LINE
8
0
10
270.387150
20
136.730641
11
270.685227
21
136.013395
0
LINE
8
0
10
270.685227
20
136.013395
11
271.157342
21
135.396630
0
LINE
8
0
10
271.157342
20
135.396630
11
271.783302
21
134.915320
0
LINE
8
0
10
271.783302
20
134.915320
11
272.513109
21
134.613877
0
LINE
8
0
10
272.513109
20
134.613877
11
273.283301
21
134.513397
0
LINE
8
0
10
273.283301
20
134.513397
11
274.053493
21
134.613877
0
LINE
8
0
10
274.053493
20
134.613877
11
274.783299
21
134.915320
0
LINE
8
0
10
274.783299
20
134.915320
11
275.409259
21
135.396630
0
LINE
8
0
10
275.409259
20
135.396630
11
275.881374
21
136.013395
0
LINE
8
0
10
275.881374
20
136.013395
11
276.179451
21
136.730641
0
LINE
8
0
10
276.179451
20
136.730641
11
276.283298
21
137.513393
0
LINE
8
0
10
276.283298
20
137.513393
11
276.283298
21
137.513393
0
LINE
8
0
10
276.283298
20
54.150990
11
276.179451
21
54.933742
0
LINE
8
0
10
276.179451
20
54.933742
11
275.881374
21
55.650988
0
LINE
8
0
10
275.881374
20
55.650988
11
275.409259
21
56.267753
0
LINE
8
0
10
275.409259
20
56.267753
11
274.783299
21
56.749063
0
LINE
8
0
10
274.783299
20
56.749063
11
274.053493
21
57.050506
0
LINE
8
0
10
274.053493
20
57.050506
11
273.283301
21
57.150986
0
LINE
8
0
10
273.283301
20
57.150986
11
272.513109
21
57.050506
0
LINE
8
0
10
272.513109
20
57.050506
11
271.783302
21
56.749063
0
LINE
8
0
10
271.783302
20
56.749063
11
271.157342
21
56.267753
0
LINE
8
0
10
271.157342
20
56.267753
11
270.685227
21
55.650988
0
LINE
8
0
10
270.685227
20
55.650988
11
270.387150
21
54.933742
0
LINE
8
0
10
270.387150
20
54.933742
11
270.283304
21
54.150990
0
LINE
8
0
10
270.283304
20
54.150990
11
270.387150
21
53.368237
0
LINE
8
0
10
270.387150
20
53.368237
11
270.685227
21
52.650991
0
LINE
8
0
10
270.685227
20
52.650991
11
271.157342
21
52.034226
0
LINE
8
0
10
271.157342
20
52.034226
11
271.783302
21
51.552916
0
LINE
8
0
10
271.783302
20
51.552916
11
272.513109
21
51.251474
0
LINE
8
0
10
272.513109
20
51.251474
11
273.283301
21
51.150993
0
LINE
8
0
10
273.283301
20
51.150993
11
274.053493
21
51.251474
0
LINE
8
0
10
274.053493
20
51.251474
11
274.783299
21
51.552916
0
LINE
8
0
10
274.783299
20
51.552916
11
275.409259
21
52.034226
0
LINE
8
0
10
275.409259
20
52.034226
11
275.881374
21
52.650991
0
LINE
8
0
10
275.881374
20
52.650991
11
276.179451
21
53.368237
0
LINE
8
0
10
276.179451
20
53.368237
11
276.283298
21
54.150990
0
LINE
8
0
10
276.283298
20
54.150990
11
276.283298
21
54.150990
0
LINE
8
0
10
321.283241
20
54.150990
11
321.179394
21
54.933742
0
LINE
8
0
10
321.179394
20
54.933742
11
320.881317
21
55.650988
0
LINE
8
0
10
320.881317
20
55.650988
11
320.409202
21
56.267753
0
LINE
8
0
10
320.409202
20
56.267753
11
319.783242
21
56.749063
0
LINE
8
0
10
319.783242
20
56.749063
11
319.053436
21
57.050506
0
LINE
8
0
10
319.053436
20
57.050506
11
318.283244
21
57.150986
0
LINE
8
0
10
318.283244
20
57.150986
11
317.513052
21
57.050506
0
LINE
8
0
10
317.513052
20
57.050506
11
316.783246
21
56.749063
0
LINE
8
0
10
316.783246
20
56.749063
11
316.157285
21
56.267753
0
LINE
8
0
10
316.157285
20
56.267753
11
315.685170
21
55.650988
0
LINE
8
0
10
315.685170
20
55.650988
11
315.387093
21
54.933742
0
LINE
8
0
10
315.387093
20
54.933742
11
315.283247
21
54.150990
0
LINE
8
0
10
315.283247
20
54.150990
11
315.387093
21
53.368237
0
LINE
8
0
10
315.387093
20
53.368237
11
315.685170
21
52.650991
0
LINE
8
0
10
315.685170
20
52.650991
11
316.157285
21
52.034226
0
LINE
8
0
10
316.157285
20
52.034226
11
316.783246
21
51.552916
0
LINE
8
0
10
316.783246
20
51.552916
11
317.513052
21
51.251474
0
LINE
8
0
10
317.513052
20
51.251474
11
318.283244
21
51.150993
0
LINE
8
0
10
318.283244
20
51.150993
11
319.053436
21
51.251474
0
LINE
8
0
10
319.053436
20
51.251474
11
319.783242
21
51.552916
0
LINE
8
0
10
319.783242
20
51.552916
11
320.409202
21
52.034226
0
LINE
8
0
10
320.409202
20
52.034226
11
320.881317
21
52.650991
0
LINE
8
0
10
320.881317
20
52.650991
11
321.179394
21
53.368237
0
LINE
8
0
10
321.179394
20
53.368237
11
321.283241
21
54.150990
0
LINE
8
0
10
321.283241
20
54.150990
11
321.283241
21
54.150990
0
LINE
8
0
10
105.383515
20
54.150990
11
105.147760
21
55.318725
0
LINE
8
0
10
105.147760
20
55.318725
11
104.504835
21
56.272310
0
LINE
8
0
10
104.504835
20
56.272310
11
103.551250
21
56.915235
0
LINE
8
0
10
103.551250
20
56.915235
11
102.383515
21
57.150990
0
LINE
8
0
10
102.383515
20
57.150990
11
101.215779
21
56.915235
0
LINE
8
0
10
101.215779
20
56.915235
11
100.262194
21
56.272310
0
LINE
8
0
10
100.262194
20
56.272310
11
99.619269
21
55.318725
0
LINE
8
0
10
99.619269
20
55.318725
11
99.383514
21
54.150990
0
LINE
8
0
10
99.383514
20
54.150990
11
99.619269
21
52.983254
0
LINE
8
0
10
99.619269
20
52.983254
11
100.262194
21
52.029669
0
LINE
8
0
10
100.262194
20
52.029669
11
101.215779
21
51.386744
0
LINE
8
0
10
101.215779
20
51.386744
11
102.383515
21
51.150989
0
LINE
8
0
10
102.383515
20
51.150989
11
103.551250
21
51.386744
0
LINE
8
0
10
103.551250
20
51.386744
11
104.504835
21
52.029669
0
LINE
8
0
10
104.504835
20
52.029669
11
105.147760
21
52.983254
0
LINE
8
0
10
105.147760
20
52.983254
11
105.383515
21
54.150990
0
LINE
8
0
10
105.383515
20
54.150990
11
105.383515
21
54.150990
0
LINE
8
0
10
321.283241
20
-52.211879
11
321.179394
21
-51.429127
0
LINE
8
0
10
321.179394
20
-51.429127
11
320.881317
21
-50.711881
0
LINE
8
0
10
320.881317
20
-50.711881
11
320.409202
21
-50.095115
0
LINE
8
0
10
320.409202
20
-50.095115
11
319.783242
21
-49.613806
0
LINE
8
0
10
319.783242
20
-49.613806
11
319.053436
21
-49.312363
0
LINE
8
0
10
319.053436
20
-49.312363
11
318.283244
21
-49.211882
0
LINE
8
0
10
318.283244
20
-49.211882
11
317.513052
21
-49.312363
0
LINE
8
0
10
317.513052
20
-49.312363
11
316.783246
21
-49.613806
0
LINE
8
0
10
316.783246
20
-49.613806
11
316.157285
21
-50.095115
0
LINE
8
0
10
316.157285
20
-50.095115
11
315.685170
21
-50.711881
0
LINE
8
0
10
315.685170
20
-50.711881
11
315.387093
21
-51.429127
0
LINE
8
0
10
315.387093
20
-51.429127
11
315.283247
21
-52.211879
0
LINE
8
0
10
315.283247
20
-52.211879
11
315.387093
21
-52.994631
0
LINE
8
0
10
315.387093
20
-52.994631
11
315.685170
21
-53.711878
0
LINE
8
0
10
315.685170
20
-53.711878
11
316.157285
21
-54.328643
0
LINE
8
0
10
316.157285
20
-54.328643
11
316.783246
21
-54.809953
0
LINE
8
0
10
316.783246
20
-54.809953
11
317.513052
21
-55.111395
0
LINE
8
0
10
317.513052
20
-55.111395
11
318.283244
21
-55.211876
0
LINE
8
0
10
318.283244
20
-55.211876
11
319.053436
21
-55.111395
0
LINE
8
0
10
319.053436
20
-55.111395
11
319.783242
21
-54.809953
0
LINE
8
0
10
319.783242
20
-54.809953
11
320.409202
21
-54.328643
0
LINE
8
0
10
320.409202
20
-54.328643
11
320.881317
21
-53.711878
0
LINE
8
0
10
320.881317
20
-53.711878
11
321.179394
21
-52.994631
0
LINE
8
0
10
321.179394
20
-52.994631
11
321.283241
21
-52.211879
0
LINE
8
0
10
321.283241
20
-52.211879
11
321.283241
21
-52.211879
0
LINE
8
0
10
492.183025
20
137.513393
11
492.079179
21
138.296145
0
LINE
8
0
10
492.079179
20
138.296145
11
491.781102
21
139.013392
0
LINE
8
0
10
491.781102
20
139.013392
11
491.308987
21
139.630157
0
LINE
8
0
10
491.308987
20
139.630157
11
490.683027
21
140.111466
0
LINE
8
0
10
490.683027
20
140.111466
11
489.953221
21
140.412909
0
LINE
8
0
10
489.953221
20
140.412909
11
489.183029
21
140.513390
0
LINE
8
0
10
489.183029
20
140.513390
11
488.412837
21
140.412909
0
LINE
8
0
10
488.412837
20
140.412909
11
487.683031
21
140.111466
0
LINE
8
0
10
487.683031
20
140.111466
11
487.057071
21
139.630157
0
LINE
8
0
10
487.057071
20
139.630157
11
486.584956
21
139.013392
0
LINE
8
0
10
486.584956
20
139.013392
11
486.286879
21
138.296145
0
LINE
8
0
10
486.286879
20
138.296145
11
486.183033
21
137.513393
0
LINE
8
0
10
486.183033
20
137.513393
11
486.286879
21
136.730641
0
LINE
8
0
10
486.286879
20
136.730641
11
486.584956
21
136.013395
0
LINE
8
0
10
486.584956
20
136.013395
11
487.057071
21
135.396630
0
LINE
8
0
10
487.057071
20
135.396630
11
487.683031
21
134.915320
0
LINE
8
0
10
487.683031
20
134.915320
11
488.412837
21
134.613878
0
LINE
8
0
10
488.412837
20
134.613878
11
489.183029
21
134.513397
0
LINE
8
0
10
489.183029
20
134.513397
11
489.953221
21
134.613878
0
LINE
8
0
10
489.953221
20
134.613878
11
490.683027
21
134.915320
0
LINE
8
0
10
490.683027
20
134.915320
11
491.308987
21
135.396630
0
LINE
8
0
10
491.308987
20
135.396630
11
491.781102
21
136.013395
0
LINE
8
0
10
491.781102
20
136.013395
11
492.079179
21
136.730641
0
LINE
8
0
10
492.079179
20
136.730641
11
492.183025
21
137.513393
0
LINE
8
0
10
492.183025
20
137.513393
11
492.183025
21
137.513393
0
LINE
8
0
10
479.183041
20
133.513401
11
479.183041
21
-41.211894
0
LINE
8
0
10
479.183041
20
-41.211894
11
328.283231
21
-41.211894
0
LINE
8
0
10
328.283231
20
-41.211894
11
328.283231
21
133.513401
0
LINE
8
0
10
328.283231
20
133.513401
11
479.183041
21
133.513401
0
LINE
8
0
10
79.383553
20
127.513400
11
112.383508
21
127.513400
0
LINE
8
0
10
112.383508
20
127.513400
11
112.383508
21
133.513401
0
LINE
8
0
10
112.383508
20
133.513401
11
263.283313
21
133.513401
0
LINE
8
0
10
263.283313
20
133.513401
11
263.283313
21
-41.211894
0
LINE
8
0
10
263.283313
20
-41.211894
11
112.383508
21
-41.211894
0
LINE
8
0
10
112.383508
20
-41.211894
11
112.383508
21
67.513489
0
LINE
8
0
10
112.383508
20
67.513489
11
79.383553
21
67.513489
0
LINE
8
0
10
79.383553
20
67.513489
11
79.383553
21
26.638247
0
LINE
8
0
10
79.383553
20
26.638247
11
79.383553
21
-44.211895
0
LINE
8
0
10
79.383553
20
-44.211895
11
73.983546
21
-44.211895
0
LINE
8
0
10
73.983546
20
-44.211895
11
73.983546
21
-64.211856
0
LINE
8
0
10
73.983546
20
-64.211856
11
79.383553
21
-64.211856
0
LINE
8
0
10
79.383553
20
-64.211856
11
79.383553
21
-69.611863
0
LINE
8
0
10
79.383553
20
-69.611863
11
99.383514
21
-69.611863
0
LINE
8
0
10
99.383514
20
-69.611863
11
99.383514
21
-64.211856
0
LINE
8
0
10
99.383514
20
-64.211856
11
493.183024
21
-64.211856
0
LINE
8
0
10
493.183024
20
-64.211856
11
493.183024
21
-69.611863
0
LINE
8
0
10
493.183024
20
-69.611863
11
513.182999
21
-69.611863
0
LINE
8
0
10
513.182999
20
-69.611863
11
513.182999
21
-64.211856
0
LINE
8
0
10
513.182999
20
-64.211856
11
518.582992
21
-64.211856
0
LINE
8
0
10
518.582992
20
-64.211856
11
518.582992
21
-44.211895
0
LINE
8
0
10
518.582992
20
-44.211895
11
513.182999
21
-44.211895
0
LINE
8
0
10
513.182999
20
-44.211895
11
513.182999
21
51.676186
0
LINE
8
0
10
513.182999
20
51.676186
11
513.182999
21
130.513400
0
LINE
8
0
10
513.182999
20
130.513400
11
518.582992
21
130.513400
0
LINE
8
0
10
518.582992
20
130.513400
11
518.582992
21
150.513362
0
LINE
8
0
10
518.582992
20
150.513362
11
513.182999
21
150.513362
0
LINE
8
0
10
513.182999
20
150.513362
11
513.182999
21
155.913368
0
LINE
8
0
10
513.182999
20
155.913368
11
493.183024
21
155.913368
0
LINE
8
0
10
493.183024
20
155.913368
11
493.183024
21
150.513362
0
LINE
8
0
10
493.183024
20
150.513362
11
99.383514
21
150.513362
0
LINE
8
0
10
99.383514
20
150.513362
11
99.383514
21
155.913368
0
LINE
8
0
10
99.383514
20
155.913368
11
79.383553
21
155.913368
0
LINE
8
0
10
79.383553
20
155.913368
11
79.383553
21
150.513362
0
LINE
8
0
10
79.383553
20
150.513362
11
73.983546
21
150.513362
0
LINE
8
0
10
73.983546
20
150.513362
11
73.983546
21
130.513400
0
LINE
8
0
10
73.983546
20
130.513400
11
79.383553
21
130.513400
0
LINE
8
0
10
79.383553
20
130.513400
11
79.383553
21
127.513400
0
LINE
8
0
10
-194.492260
20
-119.682663
11
-224.542222
21
-119.682663
0
LINE
8
0
10
-224.542222
20
-119.682663
11
-225.846809
21
-119.509585
0
LINE
8
0
10
-225.846809
20
-119.509585
11
-227.042220
21
-119.012790
0
LINE
8
0
10
-227.042220
20
-119.012790
11
-228.070163
21
-118.225931
0
LINE
8
0
10
-228.070163
20
-118.225931
11
-228.872346
21
-117.182664
0
LINE
8
0
10
-228.872346
20
-117.182664
11
-229.374750
21
-115.966320
0
LINE
8
0
10
-229.374750
20
-115.966320
11
-229.542219
21
-114.682666
0
LINE
8
0
10
-229.542219
20
-114.682666
11
-229.374750
21
-113.399012
0
LINE
8
0
10
-229.374750
20
-113.399012
11
-228.872346
21
-112.182667
0
LINE
8
0
10
-228.872346
20
-112.182667
11
-228.070163
21
-111.139400
0
LINE
8
0
10
-228.070163
20
-111.139400
11
-227.042220
21
-110.352541
0
LINE
8
0
10
-227.042220
20
-110.352541
11
-225.846809
21
-109.855746
0
LINE
8
0
10
-225.846809
20
-109.855746
11
-224.542222
21
-109.682669
0
LINE
8
0
10
-224.542222
20
-109.682669
11
-144.542324
21
-109.682669
0
LINE
8
0
10
-144.542324
20
-109.682669
11
-143.237736
21
-109.855746
0
LINE
8
0
10
-143.237736
20
-109.855746
11
-142.042325
21
-110.352541
0
LINE
8
0
10
-142.042325
20
-110.352541
11
-141.014382
21
-111.139400
0
LINE
8
0
10
-141.014382
20
-111.139400
11
-140.212199
21
-112.182667
0
LINE
8
0
10
-140.212199
20
-112.182667
11
-139.709795
21
-113.399012
0
LINE
8
0
10
-139.709795
20
-113.399012
11
-139.542327
21
-114.682666
0
LINE
8
0
10
-139.542327
20
-114.682666
11
-139.709795
21
-115.966320
0
LINE
8
0
10
-139.709795
20
-115.966320
11
-140.212199
21
-117.182664
0
LINE
8
0
10
-140.212199
20
-117.182664
11
-141.014382
21
-118.225931
0
LINE
8
0
10
-141.014382
20
-118.225931
11
-142.042325
21
-119.012790
0
LINE
8
0
10
-142.042325
20
-119.012790
11
-143.237736
21
-119.509585
0
LINE
8
0
10
-143.237736
20
-119.509585
11
-144.542324
21
-119.682663
0
LINE
8
0
10
-144.542324
20
-119.682663
11
-174.592285
21
-119.682663
0
LINE
8
0
10
-174.592285
20
-119.682663
11
-174.592285
21
-142.082630
0
LINE
8
0
10
-174.592285
20
-142.082630
11
12.457490
21
-142.082630
0
LINE
8
0
10
12.457490
20
-142.082630
11
12.457490
21
-109.682669
0
LINE
8
0
10
12.457490
20
-109.682669
11
32.357465
21
-109.682669
0
LINE
8
0
10
32.357465
20
-109.682669
11
32.357465
21
-71.682716
0
LINE
8
0
10
32.357465
20
-71.682716
11
-401.442000
21
-71.682716
0
LINE
8
0
10
-401.442000
20
-71.682716
11
-401.442000
21
-109.682669
0
LINE
8
0
10
-401.442000
20
-109.682669
11
-381.542025
21
-109.682669
0
LINE
8
0
10
-381.542025
20
-109.682669
11
-381.542025
21
-142.082630
0
LINE
8
0
10
-381.542025
20
-142.082630
11
-194.492260
21
-142.082630
0
LINE
8
0
10
-194.492260
20
-142.082630
11
-194.492260
21
-119.682663
0
LINE
8
0
10
241.420740
20
-119.837663
11
211.370778
21
-119.837663
0
LINE
8
0
10
211.370778
20
-119.837663
11
210.066191
21
-119.664585
0
LINE
8
0
10
210.066191
20
-119.664585
11
208.870780
21
-119.167790
0
LINE
8
0
10
208.870780
20
-119.167790
11
207.842837
21
-118.380931
0
LINE
8
0
10
207.842837
20
-118.380931
11
207.040654
21
-117.337664
0
LINE
8
0
10
207.040654
20
-117.337664
11
206.538250
21
-116.121320
0
LINE
8
0
10
206.538250
20
-116.121320
11
206.370781
21
-114.837666
0
LINE
8
0
10
206.370781
20
-114.837666
11
206.538250
21
-113.554012
0
LINE
8
0
10
206.538250
20
-113.554012
11
207.040654
21
-112.337667
0
LINE
8
0
10
207.040654
20
-112.337667
11
207.842837
21
-111.294400
0
LINE
8
0
10
207.842837
20
-111.294400
11
208.870780
21
-110.507541
0
LINE
8
0
10
208.870780
20
-110.507541
11
210.066191
21
-110.010746
0
LINE
8
0
10
210.066191
20
-110.010746
11
211.370778
21
-109.837669
0
LINE
8
0
10
211.370778
20
-109.837669
11
291.370676
21
-109.837669
0
LINE
8
0
10
291.370676
20
-109.837669
11
292.675264
21
-110.010746
0
LINE
8
0
10
292.675264
20
-110.010746
11
293.870675
21
-110.507541
0
LINE
8
0
10
293.870675
20
-110.507541
11
294.898618
21
-111.294400
0
LINE
8
0
10
294.898618
20
-111.294400
11
295.700801
21
-112.337667
0
LINE
8
0
10
295.700801
20
-112.337667
11
296.203205
21
-113.554012
0
LINE
8
0
10
296.203205
20
-113.554012
11
296.370673
21
-114.837666
0
LINE
8
0
10
296.370673
20
-114.837666
11
296.203205
21
-116.121320
0
LINE
8
0
10
296.203205
20
-116.121320
11
295.700801
21
-117.337664
0
LINE
8
0
10
295.700801
20
-117.337664
11
294.898618
21
-118.380931
0
LINE
8
0
10
294.898618
20
-118.380931
11
293.870675
21
-119.167790
0
LINE
8
0
10
293.870675
20
-119.167790
11
292.675264
21
-119.664585
0
LINE
8
0
10
292.675264
20
-119.664585
11
291.370676
21
-119.837663
0
LINE
8
0
10
291.370676
20
-119.837663
11
261.320715
21
-119.837663
0
LINE
8
0
10
261.320715
20
-119.837663
11
261.320715
21
-142.237630
0
LINE
8
0
10
261.320715
20
-142.237630
11
448.370490
21
-142.237630
0
LINE
8
0
10
448.370490
20
-142.237630
11
448.370490
21
-109.837669
0
LINE
8
0
10
448.370490
20
-109.837669
11
468.270465
21
-109.837669
0
LINE
8
0
10
468.270465
20
-109.837669
11
468.270465
21
-71.837716
0
LINE
8
0
10
468.270465
20
-71.837716
11
34.471000
21
-71.837716
0
LINE
8
0
10
34.471000
20
-71.837716
11
34.471000
21
-109.837669
0
LINE
8
0
10
34.471000
20
-109.837669
11
54.370975
21
-109.837669
0
LINE
8
0
10
54.370975
20
-109.837669
11
54.370975
21
-142.237630
0
LINE
8
0
10
54.370975
20
-142.237630
11
241.420740
21
-142.237630
0
LINE
8
0
10
241.420740
20
-142.237630
11
241.420740
21
-119.837663
0
LINE
8
0
10
-298.137131
20
-193.394363
11
-328.187093
21
-193.394363
0
LINE
8
0
10
-328.187093
20
-193.394363
11
-329.491680
21
-193.221285
0
LINE
8
0
10
-329.491680
20
-193.221285
11
-330.687091
21
-192.724490
0
LINE
8
0
10
-330.687091
20
-192.724490
11
-331.715034
21
-191.937631
0
LINE
8
0
10
-331.715034
20
-191.937631
11
-332.517217
21
-190.894364
0
LINE
8
0
10
-332.517217
20
-190.894364
11
-333.019621
21
-189.678020
0
LINE
8
0
10
-333.019621
20
-189.678020
11
-333.187089
21
-188.394366
0
LINE
8
0
10
-333.187089
20
-188.394366
11
-333.019621
21
-187.110712
0
LINE
8
0
10
-333.019621
20
-187.110712
11
-332.517217
21
-185.894367
0
LINE
8
0
10
-332.517217
20
-185.894367
11
-331.715034
21
-184.851100
0
LINE
8
0
10
-331.715034
20
-184.851100
11
-330.687091
21
-184.064241
0
LINE
8
0
10
-330.687091
20
-184.064241
11
-329.491680
21
-183.567446
0
LINE
8
0
10
-329.491680
20
-183.567446
11
-328.187093
21
-183.394369
0
LINE
8
0
10
-328.187093
20
-183.394369
11
-248.187195
21
-183.394369
0
LINE
8
0
10
-248.187195
20
-183.394369
11
-246.882607
21
-183.567446
0
LINE
8
0
10
-246.882607
20
-183.567446
11
-245.687196
21
-184.064241
0
LINE
8
0
10
-245.687196
20
-184.064241
11
-244.659253
21
-184.851100
0
LINE
8
0
10
-244.659253
20
-184.851100
11
-243.857070
21
-185.894367
0
LINE
8
0
10
-243.857070
20
-185.894367
11
-243.354666
21
-187.110712
0
LINE
8
0
10
-243.354666
20
-187.110712
11
-243.187198
21
-188.394366
0
LINE
8
0
10
-243.187198
20
-188.394366
11
-243.354666
21
-189.678020
0
LINE
8
0
10
-243.354666
20
-189.678020
11
-243.857070
21
-190.894364
0
LINE
8
0
10
-243.857070
20
-190.894364
11
-244.659253
21
-191.937631
0
LINE
8
0
10
-244.659253
20
-191.937631
11
-245.687196
21
-192.724490
0
LINE
8
0
10
-245.687196
20
-192.724490
11
-246.882607
21
-193.221285
0
LINE
8
0
10
-246.882607
20
-193.221285
11
-248.187195
21
-193.394363
0
LINE
8
0
10
-248.187195
20
-193.394363
11
-278.237156
21
-193.394363
0
LINE
8
0
10
-278.237156
20
-193.394363
11
-278.237156
21
-215.794330
0
LINE
8
0
10
-278.237156
20
-215.794330
11
-200.124253
21
-215.794330
0
LINE
8
0
10
-200.124253
20
-215.794330
11
-200.124253
21
-183.394369
0
LINE
8
0
10
-200.124253
20
-183.394369
11
-180.224278
21
-183.394369
0
LINE
8
0
10
-180.224278
20
-183.394369
11
-180.224278
21
-215.794330
0
LINE
8
0
10
-180.224278
20
-215.794330
11
-174.824287
21
-215.794330
0
LINE
8
0
10
-174.824287
20
-215.794330
11
-174.824287
21
-145.394416
0
LINE
8
0
10
-174.824287
20
-145.394416
11
-401.550000
21
-145.394416
0
LINE
8
0
10
-401.550000
20
-145.394416
11
-401.550000
21
-215.794330
0
LINE
8
0
10
-401.550000
20
-215.794330
11
-396.150007
21
-215.794330
0
LINE
8
0
10
-396.150007
20
-215.794330
11
-396.150007
21
-183.394369
0
LINE
8
0
10
-396.150007
20
-183.394369
11
-376.250032
21
-183.394369
0
LINE
8
0
10
-376.250032
20
-183.394369
11
-376.250032
21
-215.794330
0
LINE
8
0
10
-376.250032
20
-215.794330
11
-298.137131
21
-215.794330
0
LINE
8
0
10
-298.137131
20
-215.794330
11
-298.137131
21
-193.394363
0
LINE
8
0
10
-129.339055
20
-186.615755
11
-129.339055
21
-206.815741
0
LINE
8
0
10
-129.339055
20
-206.815741
11
-141.539038
21
-206.815741
0
LINE
8
0
10
-141.539038
20
-206.815741
11
-141.539038
21
-186.615755
0
LINE
8
0
10
-141.539038
20
-186.615755
11
-129.339055
21
-186.615755
0
LINE
8
0
10
-83.739111
20
-195.165755
11
-83.739111
21
-209.915728
0
LINE
8
0
10
-83.739111
20
-209.915728
11
-115.239072
21
-209.915728
0
LINE
8
0
10
-115.239072
20
-209.915728
11
-115.239072
21
-195.165755
0
LINE
8
0
10
-115.239072
20
-195.165755
11
-83.739111
21
-195.165755
0
LINE
8
0
10
-94.639097
20
-189.515770
11
-94.806982
21
-188.250321
0
LINE
8
0
10
-94.806982
20
-188.250321
11
-95.288873
21
-187.090773
0
LINE
8
0
10
-95.288873
20
-187.090773
11
-96.052126
21
-186.093669
0
LINE
8
0
10
-96.052126
20
-186.093669
11
-97.064095
21
-185.315552
0
LINE
8
0
10
-97.064095
20
-185.315552
11
-98.243948
21
-184.828220
0
LINE
8
0
10
-98.243948
20
-184.828220
11
-99.489092
21
-184.665776
0
LINE
8
0
10
-99.489092
20
-184.665776
11
-100.734235
21
-184.828220
0
LINE
8
0
10
-100.734235
20
-184.828220
11
-101.914089
21
-185.315552
0
LINE
8
0
10
-101.914089
20
-185.315552
11
-102.926057
21
-186.093669
0
LINE
8
0
10
-102.926057
20
-186.093669
11
-103.689310
21
-187.090773
0
LINE
8
0
10
-103.689310
20
-187.090773
11
-104.171201
21
-188.250321
0
LINE
8
0
10
-104.171201
20
-188.250321
11
-104.339086
21
-189.515770
0
LINE
8
0
10
-104.339086
20
-189.515770
11
-104.171201
21
-190.781219
0
LINE
8
0
10
-104.171201
20
-190.781219
11
-103.689310
21
-191.940767
0
LINE
8
0
10
-103.689310
20
-191.940767
11
-102.926057
21
-192.937871
0
LINE
8
0
10
-102.926057
20
-192.937871
11
-101.914089
21
-193.715989
0
LINE
8
0
10
-101.914089
20
-193.715989
11
-100.734235
21
-194.203321
0
LINE
8
0
10
-100.734235
20
-194.203321
11
-99.489092
21
-194.365765
0
LINE
8
0
10
-99.489092
20
-194.365765
11
-98.243948
21
-194.203321
0
LINE
8
0
10
-98.243948
20
-194.203321
11
-97.064095
21
-193.715989
0
LINE
8
0
10
-97.064095
20
-193.715989
11
-96.052126
21
-192.937871
0
LINE
8
0
10
-96.052126
20
-192.937871
11
-95.288873
21
-191.940767
0
LINE
8
0
10
-95.288873
20
-191.940767
11
-94.806982
21
-190.781219
0
LINE
8
0
10
-94.806982
20
-190.781219
11
-94.639097
21
-189.515770
0
LINE
8
0
10
-94.639097
20
-189.515770
11
-94.639097
21
-189.515770
0
LINE
8
0
10
-18.576110
20
-193.516212
11
-48.626124
21
-193.516212
0
LINE
8
0
10
-48.626124
20
-193.516212
11
-48.626124
21
-215.915809
0
LINE
8
0
10
-48.626124
20
-215.915809
11
29.486715
21
-215.915809
0
LINE
8
0
10
29.486715
20
-215.915809
11
29.486715
21
-183.514975
0
LINE
8
0
10
29.486715
20
-183.514975
11
49.386796
21
-183.514975
0
LINE
8
0
10
49.386796
20
-183.514975
11
49.386796
21
-215.915809
0
LINE
8
0
10
49.386796
20
-215.915809
11
54.786671
21
-215.915809
0
LINE
8
0
10
54.786671
20
-215.915809
11
54.786671
21
-145.515829
0
LINE
8
0
10
54.786671
20
-145.515829
11
-171.939000
21
-145.515829
0
LINE
8
0
10
-171.939000
20
-145.515829
11
-171.939000
21
-215.915809
0
LINE
8
0
10
-171.939000
20
-215.915809
11
-166.539020
21
-215.915809
0
LINE
8
0
10
-166.539020
20
-215.915809
11
-166.539020
21
-183.514975
0
LINE
8
0
10
-166.539020
20
-183.514975
11
-146.639044
21
-183.514975
0
LINE
8
0
10
-146.639044
20
-183.514975
11
-146.639044
21
-215.915809
0
LINE
8
0
10
-146.639044
20
-215.915809
11
-68.526205
21
-215.915809
0
LINE
8
0
10
-68.526205
20
-215.915809
11
-68.526205
21
-183.514975
0
LINE
8
0
10
-68.526205
20
-183.514975
11
-18.576110
21
-183.514975
0
LINE
8
0
10
-18.576195
20
-193.515763
11
-17.271607
21
-193.342685
0
LINE
8
0
10
-17.271607
20
-193.342685
11
-16.076196
21
-192.845890
0
LINE
8
0
10
-16.076196
20
-192.845890
11
-15.048253
21
-192.059031
0
LINE
8
0
10
-15.048253
20
-192.059031
11
-14.246070
21
-191.015764
0
LINE
8
0
10
-14.246070
20
-191.015764
11
-13.743666
21
-189.799420
0
LINE
8
0
10
-13.743666
20
-189.799420
11
-13.576198
21
-188.515766
0
LINE
8
0
10
-13.576198
20
-188.515766
11
-13.743666
21
-187.232112
0
LINE
8
0
10
-13.743666
20
-187.232112
11
-14.246070
21
-186.015767
0
LINE
8
0
10
-14.246070
20
-186.015767
11
-15.048253
21
-184.972500
0
LINE
8
0
10
-15.048253
20
-184.972500
11
-16.076196
21
-184.185641
0
LINE
8
0
10
-16.076196
20
-184.185641
11
-17.271607
21
-183.688846
0
LINE
8
0
10
-17.271607
20
-183.688846
11
-18.576195
21
-183.515769
 0 
ENDSEC
 0 
EOF