0
SECTION
2
HEADER
9
$INSUNITS
70
4
9
$ACADVER
1
AC1014
9
$HANDSEED
5
FFFF
0
ENDSEC
0
SECTION
2
TABLES
0
TABLE
2
VPORT
5
8
100
AcDbSymbolTable
0
ENDTAB
0
TABLE
2
LTYPE
5
5
100
AcDbSymbolTable
0
LTYPE
5
14
100
AcDbSymbolTableRecord
100
AcDbLinetypeTableRecord
2
BYBLOCK
70
0
0
LTYPE
5
15
100
AcDbSymbolTableRecord
100
AcDbLinetypeTableRecord
2
BYLAYER
70
0
0
LTYPE
5
16
100
AcDbSymbolTableRecord
100
AcDbLinetypeTableRecord
2
DASHED
70
0
3
Dashed __ __ __ __ __ __ __ __ __ __ __ __ __ _
72
65
73
2
40
0.75
49
0.5
74
0
49
-0.25
74
0
0
ENDTAB
0
TABLE
2
LAYER
5
2
100
AcDbSymbolTable
70
3
0
LAYER
5
50
100
AcDbSymbolTableRecord
100
AcDbLayerTableRecord
2
1
70
0
62
7
6
DASHED
0
LAYER
5
51
100
AcDbSymbolTableRecord
100
AcDbLayerTableRecord
2
0
70
0
62
7
6
CONTINUOUS
0
ENDTAB
0
TABLE
2
STYLE
5
3
100
AcDbSymbolTable
70
1
0
STYLE
5
11
100
AcDbSymbolTableRecord
100
AcDbTextStyleTableRecord
2
STANDARD
70
0
0
ENDTAB
0
TABLE
2
VIEW
5
6
100
AcDbSymbolTable
70
0
0
ENDTAB
0
TABLE
2
UCS
5
7
100
AcDbSymbolTable
70
0
0
ENDTAB
0
TABLE
2
APPID
5
9
100
AcDbSymbolTable
70
2
0
APPID
5
12
100
AcDbSymbolTableRecord
100
AcDbRegAppTableRecord
2
ACAD
70
0
0
ENDTAB
0
TABLE
2
DIMSTYLE
5
A
100
AcDbSymbolTable
70
1
0
ENDTAB
0
TABLE
2
BLOCK_RECORD
5
1
100
AcDbSymbolTable
70
1
0
BLOCK_RECORD
5
1F
100
AcDbSymbolTableRecord
100
AcDbBlockTableRecord
2
*MODEL_SPACE
0
BLOCK_RECORD
5
1B
100
AcDbSymbolTableRecord
100
AcDbBlockTableRecord
2
*PAPER_SPACE
0
ENDTAB
0
ENDSEC
0
SECTION
2
BLOCKS
0
BLOCK
5
20
100
AcDbEntity
100
AcDbBlockBegin
2
*MODEL_SPACE
0
ENDBLK
5
21
100
AcDbEntity
100
AcDbBlockEnd
0
BLOCK
5
1C
100
AcDbEntity
100
AcDbBlockBegin
2
*PAPER_SPACE
0
ENDBLK
5
1D
100
AcDbEntity
100
AcDbBlockEnd
0
ENDSEC
0
SECTION
2
ENTITIES
0
LINE
5
100
100
AcDbEntity
8
0
100
AcDbLine
10
-399.80000000000013
20
-85.54583333333332
30
0
11
-399.80000000000013
21
-81.999999999999972
31
0
0
LINE
5
101
100
AcDbEntity
8
0
100
AcDbLine
10
-399.80000000000013
20
-81.999999999999972
30
0
11
-432.80000001490123
21
-81.999999999999972
31
0
0
LINE
5
102
100
AcDbEntity
8
0
100
AcDbLine
10
-432.80000001490123
20
-81.999999999999972
30
0
11
-432.8000000023751
21
-96.362749992529075
31
0
0
LINE
5
103
100
AcDbEntity
8
0
100
AcDbLine
10
-432.8000000023751
20
-96.362749992529075
30
0
11
-438.20000000237508
21
-96.362749992529075
31
0
0
LINE
5
104
100
AcDbEntity
8
0
100
AcDbLine
10
-438.20000000237508
20
-96.362749992529075
30
0
11
-438.20000000237508
21
-116.36274999252907
31
0
0
LINE
5
105
100
AcDbEntity
8
0
100
AcDbLine
10
-438.20000000237508
20
-116.36274999252907
30
0
11
-432.8000000023751
21
-116.36274999252907
31
0
0
LINE
5
106
100
AcDbEntity
8
0
100
AcDbLine
10
-432.8000000023751
20
-116.36274999252907
30
0
11
-432.80000000000007
21
-122.87528460048385
31
0
0
LINE
5
107
100
AcDbEntity
8
0
100
AcDbLine
10
-432.80000000000007
20
-122.87528460048385
30
0
11
-432.80000000000007
21
-193.72549999999995
31
0
0
LINE
5
108
100
AcDbEntity
8
0
100
AcDbLine
10
-432.80000000000007
20
-193.72549999999995
30
0
11
-438.20000000000005
21
-193.72549999999995
31
0
0
LINE
5
109
100
AcDbEntity
8
0
100
AcDbLine
10
-438.20000000000005
20
-193.72549999999995
30
0
11
-438.20000000000005
21
-213.72549999999995
31
0
0
LINE
5
110
100
AcDbEntity
8
0
100
AcDbLine
10
-438.20000000000005
20
-213.72549999999995
30
0
11
-432.80000000000007
21
-213.72549999999995
31
0
0
LINE
5
111
100
AcDbEntity
8
0
100
AcDbLine
10
-432.80000000000007
20
-213.72549999999995
30
0
11
-432.80000000000007
21
-219.12549999999996
31
0
0
LINE
5
112
100
AcDbEntity
8
0
100
AcDbLine
10
-432.80000000000007
20
-219.12549999999996
30
0
11
-412.80000000000007
21
-219.12549999999996
31
0
0
LINE
5
113
100
AcDbEntity
8
0
100
AcDbLine
10
-412.80000000000007
20
-219.12549999999996
30
0
11
-412.80000000000007
21
-213.72549999999995
31
0
0
LINE
5
114
100
AcDbEntity
8
0
100
AcDbLine
10
-412.80000000000007
20
-213.72549999999995
30
0
11
-225.89999999524719
21
-213.72549999999995
31
0
0
LINE
5
115
100
AcDbEntity
8
0
100
AcDbLine
10
-225.89999999524719
20
-213.72549999999995
30
0
11
-225.89999999524719
21
-219.12549999999996
31
0
0
LINE
5
116
100
AcDbEntity
8
0
100
AcDbLine
10
-225.89999999524719
20
-219.12549999999996
30
0
11
-205.89999999524719
21
-219.12549999999996
31
0
0
LINE
5
117
100
AcDbEntity
8
0
100
AcDbLine
10
-205.89999999524719
20
-219.12549999999996
30
0
11
-205.89999999524719
21
-213.72549999999995
31
0
0
LINE
5
118
100
AcDbEntity
8
0
100
AcDbLine
10
-205.89999999524719
20
-213.72549999999995
30
0
11
-18.999999999999986
21
-213.72549999999995
31
0
0
LINE
5
119
100
AcDbEntity
8
0
100
AcDbLine
10
-18.999999999999986
20
-213.72549999999995
30
0
11
-18.999999999999986
21
-219.12549999999996
31
0
0
LINE
5
120
100
AcDbEntity
8
0
100
AcDbLine
10
-18.999999999999986
20
-219.12549999999996
30
0
11
1.0000000000000142
21
-219.12549999999996
31
0
0
LINE
5
121
100
AcDbEntity
8
0
100
AcDbLine
10
1.0000000000000142
20
-219.12549999999996
30
0
11
1.0000000000000142
21
-213.72549999999995
31
0
0
LINE
5
122
100
AcDbEntity
8
0
100
AcDbLine
10
1.0000000000000142
20
-213.72549999999995
30
0
11
6.4000000000000146
21
-213.72549999999995
31
0
0
LINE
5
123
100
AcDbEntity
8
0
100
AcDbLine
10
6.4000000000000146
20
-213.72549999999995
30
0
11
6.4000000000000146
21
-193.72549999999995
31
0
0
LINE
5
124
100
AcDbEntity
8
0
100
AcDbLine
10
6.4000000000000146
20
-193.72549999999995
30
0
11
1.0000000000000142
21
-193.72549999999995
31
0
0
LINE
5
125
100
AcDbEntity
8
0
100
AcDbLine
10
1.0000000000000142
20
-193.72549999999995
30
0
11
1.0000000120222832
21
-116.36274999254887
31
0
0
LINE
5
126
100
AcDbEntity
8
0
100
AcDbLine
10
1.0000000120222832
20
-116.36274999254887
30
0
11
6.4000000120226481
21
-116.36274999254887
31
0
0
LINE
5
127
100
AcDbEntity
8
0
100
AcDbLine
10
6.4000000120226481
20
-116.36274999254887
30
0
11
6.4000000120226455
21
-96.362749992548871
31
0
0
LINE
5
128
100
AcDbEntity
8
0
100
AcDbLine
10
6.4000000120226455
20
-96.362749992548871
30
0
11
1.0000000120226449
21
-96.362749992548871
31
0
0
LINE
5
129
100
AcDbEntity
8
0
100
AcDbLine
10
1.0000000120226447
20
-96.362749992548871
30
0
11
1.0000000149011612
21
-18.999999985098839
31
0
0
LINE
5
130
100
AcDbEntity
8
0
100
AcDbLine
10
1.0000000149011612
20
-18.999999985098839
30
0
11
6.4000000149011615
21
-18.999999985098839
31
0
0
LINE
5
131
100
AcDbEntity
8
0
100
AcDbLine
10
6.4000000149011615
20
-18.999999985098839
30
0
11
6.4000000149011615
21
1.0000000149011612
31
0
0
LINE
5
132
100
AcDbEntity
8
0
100
AcDbLine
10
6.4000000149011615
20
1.0000000149011612
30
0
11
1.0000000149011612
21
1.0000000149011612
31
0
0
LINE
5
133
100
AcDbEntity
8
0
100
AcDbLine
10
1.0000000149011612
20
1.0000000149011612
30
0
11
1.0000000149011612
21
6.4000000149011615
31
0
0
LINE
5
134
100
AcDbEntity
8
0
100
AcDbLine
10
1.0000000149011612
20
6.4000000149011615
30
0
11
-18.999999985098839
21
6.4000000149011615
31
0
0
LINE
5
135
100
AcDbEntity
8
0
100
AcDbLine
10
-18.999999985098839
20
6.4000000149011615
30
0
11
-18.999999985098839
21
1.0000000149011612
31
0
0
LINE
5
136
100
AcDbEntity
8
0
100
AcDbLine
10
-18.999999985098839
20
1.0000000149011612
30
0
11
-205.89999997999885
21
1.0000000149011612
31
0
0
LINE
5
137
100
AcDbEntity
8
0
100
AcDbLine
10
-205.89999997999885
20
1.0000000149011612
30
0
11
-205.89999997999885
21
6.4000000149011607
31
0
0
LINE
5
138
100
AcDbEntity
8
0
100
AcDbLine
10
-205.89999997999885
20
6.4000000149011607
30
0
11
-225.89999997999885
21
6.4000000149011607
31
0
0
LINE
5
139
100
AcDbEntity
8
0
100
AcDbLine
10
-225.89999997999885
20
6.4000000149011607
30
0
11
-225.89999997999885
21
1.0000000149011612
31
0
0
LINE
5
140
100
AcDbEntity
8
0
100
AcDbLine
10
-225.89999997999885
20
1.0000000149011612
30
0
11
-412.80000001490123
21
1.0000000149011612
31
0
0
LINE
5
141
100
AcDbEntity
8
0
100
AcDbLine
10
-412.80000001490123
20
1.0000000149011612
30
0
11
-412.80000001490123
21
6.4000000149011615
31
0
0
LINE
5
142
100
AcDbEntity
8
0
100
AcDbLine
10
-412.80000001490123
20
6.4000000149011615
30
0
11
-432.80000001490123
21
6.4000000149011615
31
0
0
LINE
5
143
100
AcDbEntity
8
0
100
AcDbLine
10
-432.80000001490123
20
6.4000000149011615
30
0
11
-432.80000001490123
21
1.0000000149011612
31
0
0
LINE
5
144
100
AcDbEntity
8
0
100
AcDbLine
10
-432.80000001490123
20
1.0000000149011612
30
0
11
-438.20000001490121
21
1.0000000149011612
31
0
0
LINE
5
145
100
AcDbEntity
8
0
100
AcDbLine
10
-438.20000001490121
20
1.0000000149011612
30
0
11
-438.20000001490121
21
-18.999999985098839
31
0
0
LINE
5
146
100
AcDbEntity
8
0
100
AcDbLine
10
-438.20000001490121
20
-18.999999985098839
30
0
11
-432.80000001490123
21
-18.999999985098839
31
0
0
LINE
5
147
100
AcDbEntity
8
0
100
AcDbLine
10
-432.80000001490123
20
-18.999999985098839
30
0
11
-432.80000001490123
21
-21.999999999999975
31
0
0
LINE
5
148
100
AcDbEntity
8
0
100
AcDbLine
10
-432.80000001490123
20
-21.999999999999975
30
0
11
-399.80000000000007
21
-21.999999999999975
31
0
0
LINE
5
149
100
AcDbEntity
8
0
100
AcDbLine
10
-399.80000000000007
20
-21.999999999999975
30
0
11
-399.80000000000013
21
-15.999999999999979
31
0
0
LINE
5
150
100
AcDbEntity
8
0
100
AcDbLine
10
-399.80000000000013
20
-15.999999999999979
30
0
11
-248.90000000000001
21
-15.999999999999979
31
0
0
LINE
5
151
100
AcDbEntity
8
0
100
AcDbLine
10
-248.90000000000001
20
-15.999999999999979
30
0
11
-248.90000000000001
21
-35.725499999999926
31
0
0
LINE
5
152
100
AcDbEntity
8
0
100
AcDbLine
10
-248.90000000000001
20
-35.725499999999926
30
0
11
-183.90000000000012
21
-35.725499999999926
31
0
0
LINE
5
153
100
AcDbEntity
8
0
100
AcDbLine
10
-183.90000000000012
20
-35.725499999999926
30
0
11
-183.90000000000012
21
-16.000000000000014
31
0
0
LINE
5
154
100
AcDbEntity
8
0
100
AcDbLine
10
-183.90000000000012
20
-16.000000000000014
30
0
11
-33.000000000000043
21
-15.999999999999979
31
0
0
LINE
5
155
100
AcDbEntity
8
0
100
AcDbLine
10
-33.000000000000043
20
-15.999999999999979
30
0
11
-33.000000000000043
21
-85.54583333333332
31
0
0
LINE
5
156
100
AcDbEntity
8
0
100
AcDbLine
10
-33.000000000000043
20
-85.54583333333332
30
0
11
-183.90000000000009
21
-85.545833333333292
31
0
0
LINE
5
157
100
AcDbEntity
8
0
100
AcDbLine
10
-183.90000000000009
20
-85.545833333333292
30
0
11
-183.90000000000012
21
-70.725499999999926
31
0
0
LINE
5
158
100
AcDbEntity
8
0
100
AcDbLine
10
-183.90000000000012
20
-70.725499999999926
30
0
11
-248.90000000000003
21
-70.725499999999926
31
0
0
LINE
5
159
100
AcDbEntity
8
0
100
AcDbLine
10
-248.90000000000003
20
-70.725499999999926
30
0
11
-248.90000000000003
21
-85.545833333333292
31
0
0
LINE
5
160
100
AcDbEntity
8
0
100
AcDbLine
10
-248.90000000000003
20
-85.545833333333292
30
0
11
-399.80000000000013
21
-85.54583333333332
31
0
0
CIRCLE
5
161
100
AcDbEntity
8
0
100
AcDbCircle
10
-409.80000000000013
20
-95.362499999999969
30
0
40
1.4999999999999858
210
0
220
-0
230
1
0
CIRCLE
5
162
100
AcDbEntity
8
0
100
AcDbCircle
10
-409.80000000000013
20
-118.363
30
0
40
1.4999999999999858
210
0
220
-0
230
1
0
CIRCLE
5
163
100
AcDbEntity
8
0
100
AcDbCircle
10
-409.80000000000013
20
-11.999999999999993
30
0
40
1.4999999999999858
210
0
220
-0
230
1
0
CIRCLE
5
164
100
AcDbEntity
8
0
100
AcDbCircle
10
-238.90000000000001
20
-11.999999999999993
30
0
40
1.4999999999999858
210
0
220
-0
230
1
0
CIRCLE
5
165
100
AcDbEntity
8
0
100
AcDbCircle
10
-409.80000000000013
20
-201.72549999999995
30
0
40
1.4999999999999858
210
0
220
-0
230
1
0
CIRCLE
5
166
100
AcDbEntity
8
0
100
AcDbCircle
10
-193.90000000000009
20
-11.999999999999993
30
0
40
1.4999999999999858
210
0
220
-0
230
1
0
CIRCLE
5
167
100
AcDbEntity
8
0
100
AcDbCircle
10
-193.90000000000009
20
-201.72549999999995
30
0
40
1.4999999999999858
210
0
220
-0
230
1
0
CIRCLE
5
168
100
AcDbEntity
8
0
100
AcDbCircle
10
-23.000000000000007
20
-95.362499999999969
30
0
40
1.4999999999999991
210
0
220
-0
230
1
0
CIRCLE
5
169
100
AcDbEntity
8
0
100
AcDbCircle
10
-23.000000000000007
20
-11.999999999999993
30
0
40
1.4999999999999991
210
0
220
-0
230
1
0
CIRCLE
5
170
100
AcDbEntity
8
0
100
AcDbCircle
10
-23.000000000000007
20
-118.363
30
0
40
1.4999999999999991
210
0
220
-0
230
1
0
CIRCLE
5
171
100
AcDbEntity
8
0
100
AcDbCircle
10
-23.000000000000007
20
-201.72549999999995
30
0
40
1.4999999999999991
210
0
220
-0
230
1
0
CIRCLE
5
172
100
AcDbEntity
8
0
100
AcDbCircle
10
-238.90000000000001
20
-201.72549999999995
30
0
40
1.4999999999999858
210
0
220
-0
230
1
0
LWPOLYLINE
5
173
100
AcDbEntity
8
0
100
AcDbPolyline
90
12
70
1
43
0.0
10
-399.80000000000013
20
-123.27133333333333
10
-248.90000000000003
20
-123.27133333333333
10
-248.90000000000003
20
-125.72549999999993
10
-183.90000000000009
20
-125.72549999999993
10
-183.90000000000009
20
-123.27133333333333
10
-33.000000000000043
20
-123.27133333333333
10
-33.000000000000043
20
-190.72549999999993
10
-183.90000000000009
20
-190.72549999999993
10
-183.90000000000009
20
-160.72549999999993
10
-248.90000000000001
20
-160.72549999999993
10
-248.90000000000003
20
-190.72549999999993
10
-399.80000000000013
20
-190.72549999999993
0
CIRCLE
5
174
100
AcDbEntity
8
0
100
AcDbCircle
10
-238.90000000000001
20
-118.363
30
0
40
1.4999999999999858
210
0
220
-0
230
1
0
CIRCLE
5
175
100
AcDbEntity
8
0
100
AcDbCircle
10
-238.90000000000001
20
-95.362499999999969
30
0
40
1.4999999999999858
210
0
220
-0
230
1
0
CIRCLE
5
176
100
AcDbEntity
8
0
100
AcDbCircle
10
-193.90000000000009
20
-118.363
30
0
40
1.4999999999999858
210
0
220
-0
230
1
0
CIRCLE
5
177
100
AcDbEntity
8
0
100
AcDbCircle
10
-193.90000000000009
20
-95.362499999999969
30
0
40
1.4999999999999858
210
0
220
-0
230
1
0
ENDSEC
0
SECTION
2
OBJECTS
0
DICTIONARY
5
C
100
AcDbDictionary
3
ACAD_GROUP
350
D
3
ACAD_MLINESTYLE
350
17
0
DICTIONARY
5
D
100
AcDbDictionary
0
DICTIONARY
5
1A
330
C
100
AcDbDictionary
0
DICTIONARY
5
17
100
AcDbDictionary
0
ENDSEC
0
EOF
